%TF.GenerationSoftware,KiCad,Pcbnew,(6.0.8)*%
%TF.CreationDate,2022-12-06T23:52:26-08:00*%
%TF.ProjectId,motor_controller,6d6f746f-725f-4636-9f6e-74726f6c6c65,B1 (HULA) v0.2*%
%TF.SameCoordinates,Original*%
%TF.FileFunction,Copper,L4,Bot*%
%TF.FilePolarity,Positive*%
%FSLAX46Y46*%
G04 Gerber Fmt 4.6, Leading zero omitted, Abs format (unit mm)*
G04 Created by KiCad (PCBNEW (6.0.8)) date 2022-12-06 23:52:26*
%MOMM*%
%LPD*%
G01*
G04 APERTURE LIST*
%TA.AperFunction,ComponentPad*%
%ADD10R,1.700000X1.700000*%
%TD*%
%TA.AperFunction,ComponentPad*%
%ADD11O,1.700000X1.700000*%
%TD*%
%TA.AperFunction,ComponentPad*%
%ADD12R,1.600000X1.600000*%
%TD*%
%TA.AperFunction,ComponentPad*%
%ADD13C,1.600000*%
%TD*%
%TA.AperFunction,ViaPad*%
%ADD14C,0.800000*%
%TD*%
%TA.AperFunction,ViaPad*%
%ADD15C,0.700000*%
%TD*%
%TA.AperFunction,Conductor*%
%ADD16C,0.300000*%
%TD*%
%TA.AperFunction,Conductor*%
%ADD17C,0.293370*%
%TD*%
%TA.AperFunction,Conductor*%
%ADD18C,0.500000*%
%TD*%
G04 APERTURE END LIST*
D10*
%TO.P,J501,1,Pin_1*%
%TO.N,/(5) Motor Driver/VM*%
X135440000Y-88640000D03*
D11*
%TO.P,J501,2,Pin_2*%
%TO.N,ACTUATOR_POWER_FLAG*%
X137980000Y-88640000D03*
%TO.P,J501,3,Pin_3*%
%TO.N,unconnected-(J501-Pad3)*%
X140520000Y-88640000D03*
%TO.P,J501,4,Pin_4*%
%TO.N,~{FLT}*%
X143060000Y-88640000D03*
%TO.P,J501,5,Pin_5*%
%TO.N,~{SLP}*%
X145600000Y-88640000D03*
%TO.P,J501,6,Pin_6*%
%TO.N,PWM*%
X148140000Y-88640000D03*
%TO.P,J501,7,Pin_7*%
%TO.N,DIR*%
X150680000Y-88640000D03*
%TO.P,J501,8,Pin_8*%
%TO.N,GND*%
X153220000Y-88640000D03*
%TD*%
D10*
%TO.P,J201,1,Pin_1*%
%TO.N,/(2) Power Supply/POWER_BUS*%
X79350000Y-55175000D03*
D11*
%TO.P,J201,2,Pin_2*%
%TO.N,GND*%
X81890000Y-55175000D03*
%TD*%
D10*
%TO.P,J601,1,Pin_1*%
%TO.N,CAN_TX*%
X168625000Y-68200000D03*
D11*
%TO.P,J601,2,Pin_2*%
%TO.N,CAN_RX*%
X168625000Y-70740000D03*
%TO.P,J601,3,Pin_3*%
%TO.N,I2C_SDA*%
X168625000Y-73280000D03*
%TO.P,J601,4,Pin_4*%
%TO.N,I2C_SCL*%
X168625000Y-75820000D03*
%TD*%
D12*
%TO.P,C501,1*%
%TO.N,/(5) Motor Driver/VM*%
X160500000Y-94147349D03*
D13*
%TO.P,C501,2*%
%TO.N,GND*%
X160500000Y-97647349D03*
%TD*%
D10*
%TO.P,J603,1,Pin_1*%
%TO.N,+3V3*%
X160890000Y-57650000D03*
D11*
%TO.P,J603,2,Pin_2*%
%TO.N,/(6) Peripherals/DIO*%
X160890000Y-60190000D03*
%TO.P,J603,3,Pin_3*%
%TO.N,GND*%
X158350000Y-57650000D03*
%TO.P,J603,4,Pin_4*%
%TO.N,/(6) Peripherals/SCLK*%
X158350000Y-60190000D03*
%TO.P,J603,5,Pin_5*%
%TO.N,GND*%
X155810000Y-57650000D03*
%TO.P,J603,6,Pin_6*%
%TO.N,/(6) Peripherals/SWO*%
X155810000Y-60190000D03*
%TO.P,J603,7,Pin_7*%
%TO.N,GND*%
X153270000Y-57650000D03*
%TO.P,J603,8,Pin_8*%
%TO.N,/(6) Peripherals/RST*%
X153270000Y-60190000D03*
%TD*%
D10*
%TO.P,J502,1,Pin_1*%
%TO.N,+12V*%
X135440000Y-116560000D03*
D11*
%TO.P,J502,2,Pin_2*%
X137980000Y-116560000D03*
%TO.P,J502,3,Pin_3*%
%TO.N,PWR_MOTOR_P*%
X140520000Y-116560000D03*
%TO.P,J502,4,Pin_4*%
X143060000Y-116560000D03*
%TO.P,J502,5,Pin_5*%
%TO.N,PWR_MOTOR_N*%
X145600000Y-116560000D03*
%TO.P,J502,6,Pin_6*%
X148140000Y-116560000D03*
%TO.P,J502,7,Pin_7*%
%TO.N,GND*%
X150680000Y-116560000D03*
%TO.P,J502,8,Pin_8*%
X153220000Y-116560000D03*
%TD*%
D10*
%TO.P,J503,1,Pin_1*%
%TO.N,PWR_MOTOR_P*%
X168800000Y-116550000D03*
D11*
%TO.P,J503,2,Pin_2*%
%TO.N,PWR_MOTOR_N*%
X168800000Y-114010000D03*
%TO.P,J503,3,Pin_3*%
%TO.N,GND*%
X168800000Y-111470000D03*
%TO.P,J503,4,Pin_4*%
%TO.N,+3V3*%
X168800000Y-108930000D03*
%TO.P,J503,5,Pin_5*%
%TO.N,ENC_A*%
X168800000Y-106390000D03*
%TO.P,J503,6,Pin_6*%
%TO.N,ENC_B*%
X168800000Y-103850000D03*
%TD*%
D10*
%TO.P,J602,1,Pin_1*%
%TO.N,+3V3*%
X168675000Y-85925000D03*
D11*
%TO.P,J602,2,Pin_2*%
%TO.N,SW_LIMIT*%
X168675000Y-83385000D03*
%TO.P,J602,3,Pin_3*%
%TO.N,GND*%
X168675000Y-80845000D03*
%TD*%
D14*
%TO.N,GND*%
X161000000Y-120000000D03*
X167000000Y-120000000D03*
X165000000Y-120000000D03*
X163000000Y-120000000D03*
X169000000Y-120000000D03*
X152000000Y-121000000D03*
X156000000Y-121000000D03*
X154000000Y-121000000D03*
X159000000Y-120000000D03*
X142000000Y-121000000D03*
X148000000Y-121000000D03*
X146000000Y-121000000D03*
X144000000Y-121000000D03*
X150000000Y-121000000D03*
X132000000Y-121000000D03*
X138000000Y-121000000D03*
X136000000Y-121000000D03*
X134000000Y-121000000D03*
X140000000Y-121000000D03*
X79000000Y-120000000D03*
X85000000Y-120000000D03*
X83000000Y-120000000D03*
X81000000Y-120000000D03*
X87000000Y-120000000D03*
X94000000Y-120000000D03*
X92000000Y-120000000D03*
X89000000Y-120000000D03*
X96000000Y-120000000D03*
X118000000Y-120000000D03*
X104000000Y-120000000D03*
X102000000Y-120000000D03*
X116000000Y-120000000D03*
X124000000Y-120000000D03*
X126000000Y-120000000D03*
X128000000Y-120000000D03*
X106000000Y-120000000D03*
X130000000Y-120000000D03*
X100000000Y-120000000D03*
X114000000Y-120000000D03*
X108000000Y-120000000D03*
X120000000Y-120000000D03*
X110000000Y-120000000D03*
X122000000Y-120000000D03*
X98000000Y-120000000D03*
X112000000Y-120000000D03*
X110000000Y-114000000D03*
X115000000Y-73019721D03*
X168981284Y-89018716D03*
X100000000Y-118000000D03*
X136000000Y-68000000D03*
X146000000Y-61000000D03*
X146990089Y-107993862D03*
X169018716Y-94981284D03*
X157000000Y-102000000D03*
X85000000Y-111800000D03*
X125000000Y-61000000D03*
X86000000Y-77000000D03*
X134000000Y-106000000D03*
X115000000Y-79019721D03*
X148983247Y-107993862D03*
X112000000Y-90000000D03*
X155000000Y-108000000D03*
D15*
X148421781Y-64894516D03*
D14*
X116000000Y-60000000D03*
X96000000Y-94000000D03*
X84019721Y-85000000D03*
X128000000Y-90000000D03*
X134000000Y-104000000D03*
X151900000Y-114100000D03*
X117000000Y-73019721D03*
X98000000Y-58700000D03*
X139989032Y-97968154D03*
X112000000Y-56019721D03*
X87000000Y-57000000D03*
X91000000Y-55000000D03*
X87000000Y-116000000D03*
X81000000Y-110000000D03*
X100500000Y-66500000D03*
X169018716Y-96981284D03*
X88000000Y-81000000D03*
X87000000Y-59000000D03*
X132000000Y-76000000D03*
X145895598Y-63424070D03*
X152700000Y-86700000D03*
X124000000Y-90000000D03*
X150976404Y-107993862D03*
X123000000Y-71980279D03*
X84000000Y-75000000D03*
X127000000Y-74019721D03*
D15*
X144100000Y-67200000D03*
D14*
X155750000Y-55750000D03*
X81000000Y-61000000D03*
X150996931Y-65981284D03*
X98000000Y-92000000D03*
X148000000Y-110000000D03*
X84100000Y-56000000D03*
X116000000Y-114000000D03*
X108000000Y-112000000D03*
X152000000Y-71000000D03*
X87000000Y-118000000D03*
X97000000Y-87500000D03*
X133000000Y-66000000D03*
X120000000Y-90000000D03*
D15*
X138525000Y-78275000D03*
D14*
X153018716Y-105018716D03*
X112000000Y-54000000D03*
X130000000Y-118000000D03*
X128000000Y-94000000D03*
X110000000Y-54000000D03*
X157018716Y-105018716D03*
X141000000Y-108000000D03*
X106000000Y-118000000D03*
X82019721Y-81000000D03*
X160998339Y-107993862D03*
X132774070Y-82304402D03*
X127000000Y-76000000D03*
X161018716Y-118018716D03*
X167018716Y-98981284D03*
X121000000Y-61000000D03*
X142000000Y-110000000D03*
X141968154Y-99989384D03*
X117000000Y-79019721D03*
X162749070Y-77354402D03*
X86019721Y-83000000D03*
X140989384Y-54997484D03*
X93000000Y-55000000D03*
X147988831Y-56981284D03*
X126000000Y-118000000D03*
X121000000Y-68019721D03*
X116000000Y-118000000D03*
X122000000Y-112000000D03*
X124000000Y-118000000D03*
X120300000Y-80200000D03*
X123000000Y-61000000D03*
X94000000Y-92000000D03*
X121000000Y-71980279D03*
D15*
X135674100Y-71850000D03*
D14*
X169000000Y-63000000D03*
X118000000Y-58000000D03*
X136000000Y-102000000D03*
X154000000Y-100000000D03*
X86019721Y-81000000D03*
X84000000Y-100000000D03*
D15*
X145125000Y-68725000D03*
D14*
X158250000Y-55750000D03*
X92000000Y-102000000D03*
X94000000Y-71200000D03*
X143945725Y-63416107D03*
X93900000Y-110375000D03*
X157000000Y-110000000D03*
X138000000Y-68000000D03*
X129000000Y-74019721D03*
X84000000Y-67000000D03*
X97000000Y-74000000D03*
X92800000Y-110375000D03*
X91019721Y-87000000D03*
X89000000Y-61000000D03*
D15*
X150300000Y-63750000D03*
D14*
X126000000Y-79000000D03*
X164225497Y-85900000D03*
X87000000Y-55000000D03*
X83000000Y-114000000D03*
X91000000Y-61000000D03*
X110000000Y-112000000D03*
D15*
X145350000Y-74600000D03*
D14*
X108000000Y-114000000D03*
X165200000Y-109999503D03*
X141000000Y-84000000D03*
X86019721Y-79000000D03*
X152000000Y-110000000D03*
X152999446Y-65981284D03*
X88000000Y-85000000D03*
X166300000Y-111500000D03*
X88000000Y-83000000D03*
X140018716Y-93018716D03*
X97000000Y-61000000D03*
X81000000Y-59000000D03*
X151000000Y-105000000D03*
X116000000Y-58000000D03*
X102000000Y-118000000D03*
X84100000Y-54800000D03*
X160000000Y-68000000D03*
X128000000Y-118000000D03*
X123000000Y-74000000D03*
X115000000Y-77000000D03*
X102000000Y-112000000D03*
X86000000Y-73000000D03*
X137000000Y-108000000D03*
X83000000Y-59000000D03*
X139943854Y-103979473D03*
D15*
X148400000Y-66600000D03*
D14*
X126000000Y-92000000D03*
X82019721Y-83000000D03*
X96000000Y-104000000D03*
X85000000Y-116000000D03*
X152000000Y-100000000D03*
X132770398Y-83715491D03*
X143997484Y-60984353D03*
D15*
X146142917Y-77745944D03*
D14*
X92000000Y-100000000D03*
X84019721Y-79000000D03*
X122000000Y-87600000D03*
X130000000Y-94000000D03*
X95019721Y-87500000D03*
X134983800Y-91981284D03*
X94000000Y-90000000D03*
X167000000Y-95000000D03*
X161018716Y-115018716D03*
X150018716Y-93018716D03*
X82000000Y-69000000D03*
X144000000Y-112000000D03*
X89000000Y-116000000D03*
X118000000Y-118000000D03*
X134000000Y-68000000D03*
X120000000Y-112000000D03*
X116000000Y-89991488D03*
X84000000Y-71000000D03*
X112000000Y-58000000D03*
X104000000Y-118000000D03*
X115000000Y-81000000D03*
X86000000Y-75000000D03*
X161018716Y-112018716D03*
X117000000Y-75000000D03*
X147983800Y-60984353D03*
X166962568Y-89037432D03*
X160000000Y-100800000D03*
X88000000Y-96000000D03*
X87980279Y-74986899D03*
X90600000Y-71200000D03*
X135000000Y-66000000D03*
X148000000Y-59000000D03*
X93900000Y-73000000D03*
X82000000Y-71000000D03*
X146991900Y-64989384D03*
X142986869Y-64989384D03*
X162982229Y-102857829D03*
X156983800Y-83981284D03*
X93900000Y-111400000D03*
X79000000Y-110000000D03*
X155000000Y-84000000D03*
X95000000Y-59000000D03*
X106000000Y-112000000D03*
X167000000Y-61000000D03*
X158986315Y-83981284D03*
X129000000Y-76000000D03*
X151900000Y-63800000D03*
X79000000Y-111800000D03*
X98500000Y-87500000D03*
X114000000Y-58000000D03*
X114000000Y-118000000D03*
X138000000Y-106000000D03*
X155990441Y-99989384D03*
X118000000Y-114000000D03*
X106000000Y-114000000D03*
X126000000Y-96000000D03*
D15*
X150255000Y-75200000D03*
D14*
X114000000Y-60000000D03*
X169000000Y-54000000D03*
X122000000Y-90000000D03*
X89000000Y-59000000D03*
X87980279Y-77000000D03*
X166981284Y-91018716D03*
X138000000Y-110000000D03*
X98000000Y-115000000D03*
X117000000Y-81000000D03*
X94000000Y-68900000D03*
X161000000Y-105000000D03*
X88000000Y-79000000D03*
X162000000Y-87000000D03*
X126000000Y-114000000D03*
X84000000Y-102000000D03*
X132000000Y-102000000D03*
X150500000Y-114100000D03*
X166981284Y-93018716D03*
X134000000Y-74000000D03*
X132000000Y-104000000D03*
X139996931Y-111986315D03*
X139000000Y-66000000D03*
X95400000Y-73000000D03*
X128000000Y-79000000D03*
X153136553Y-83603023D03*
X110000000Y-58000000D03*
X144978065Y-107949992D03*
X135000000Y-108000000D03*
X148018716Y-100018716D03*
X155018716Y-102000000D03*
X85000000Y-59000000D03*
X103700000Y-71200000D03*
X123000000Y-70000000D03*
X137000000Y-64000000D03*
X95000000Y-57000000D03*
X126000000Y-88000000D03*
X119000000Y-61019721D03*
X114000000Y-89991488D03*
X132000000Y-74000000D03*
D15*
X156500000Y-87800000D03*
D14*
X112000000Y-118000000D03*
X132000000Y-68000000D03*
X124000000Y-79000000D03*
X163018716Y-89018716D03*
X149018716Y-105018716D03*
D15*
X154300000Y-81200000D03*
D14*
X93000000Y-61000000D03*
X128000000Y-96000000D03*
X83000000Y-111800000D03*
X96000000Y-90000000D03*
X100000000Y-114000000D03*
D15*
X137349100Y-75025000D03*
D14*
X152018716Y-93018716D03*
X159000000Y-105000000D03*
X91675000Y-115300000D03*
X91000000Y-59000000D03*
X142991900Y-56981284D03*
X79000000Y-114000000D03*
X87000000Y-111800000D03*
D15*
X157747877Y-81287264D03*
D14*
X94000000Y-94000000D03*
X159018716Y-118018716D03*
X118000000Y-90000000D03*
X82000000Y-77000000D03*
X158600000Y-100800000D03*
X82850000Y-57200000D03*
X143000000Y-84000000D03*
X81450000Y-57200000D03*
X118000000Y-56019721D03*
X132000000Y-72000000D03*
X87000000Y-110000000D03*
X83000000Y-118000000D03*
X110000000Y-60000000D03*
X92800000Y-111400000D03*
X116000000Y-112000000D03*
X142010263Y-97968154D03*
X132949503Y-88000000D03*
X102000000Y-114000000D03*
X154000000Y-110000000D03*
X87000000Y-61000000D03*
X96000000Y-102000000D03*
X130000000Y-116000000D03*
X126000000Y-94000000D03*
X163000000Y-110000000D03*
X155018716Y-105018716D03*
X122000000Y-114000000D03*
X134000000Y-72000000D03*
X104000000Y-114000000D03*
X126000000Y-116000000D03*
X85000000Y-61000000D03*
X163000000Y-115000000D03*
X134000000Y-78000000D03*
X123000000Y-68019721D03*
X162300000Y-63150000D03*
X163850000Y-56500000D03*
X163996931Y-78989384D03*
X141000000Y-57000000D03*
X143000000Y-55000000D03*
X156517521Y-71817345D03*
X159018716Y-102500000D03*
X79000000Y-116000000D03*
X130000000Y-114000000D03*
X81000000Y-116000000D03*
X99000000Y-74000000D03*
X122000000Y-118000000D03*
X147018716Y-105018716D03*
X98000000Y-118000000D03*
X81000000Y-111800000D03*
X153200000Y-114100000D03*
X89000000Y-55000000D03*
X145988680Y-109999295D03*
X129550497Y-88000000D03*
X92000000Y-97900000D03*
X162300000Y-100800000D03*
X114000000Y-54000000D03*
X83000000Y-61000000D03*
X161200000Y-100800000D03*
X128000000Y-92000000D03*
X81000000Y-114000000D03*
X121000000Y-70000000D03*
X93000000Y-57000000D03*
X98000000Y-96000000D03*
X144018716Y-93018716D03*
X143000000Y-82000000D03*
X104000000Y-112000000D03*
X135982542Y-103985611D03*
X157000000Y-108000000D03*
X164000000Y-81000000D03*
X99000000Y-72000000D03*
X98000000Y-57600000D03*
X123000000Y-75980279D03*
X134000000Y-80000000D03*
X169018716Y-98981284D03*
X133000000Y-64000000D03*
X161000000Y-110000000D03*
X84000000Y-98000000D03*
X165000000Y-118000000D03*
X157018716Y-112018716D03*
X87980279Y-72986899D03*
X135000000Y-61000000D03*
X137000000Y-61000000D03*
X84000000Y-73000000D03*
X97000000Y-55000000D03*
X130000000Y-102000000D03*
X150000000Y-110000000D03*
X114000000Y-56019721D03*
X159018716Y-112018716D03*
X126000000Y-90000000D03*
X110000000Y-118000000D03*
X137950696Y-101958243D03*
X167000000Y-63000000D03*
D15*
X141775000Y-72925000D03*
D14*
X119000000Y-77000000D03*
X139989032Y-95989032D03*
X89000000Y-118000000D03*
X163000000Y-112000000D03*
X87000000Y-114000000D03*
X119000000Y-73019721D03*
X150300000Y-56500000D03*
X136000000Y-106000000D03*
X169000000Y-56000000D03*
X124000000Y-112000000D03*
X118000000Y-54000000D03*
X96000000Y-98000000D03*
X124000000Y-88000000D03*
X112000000Y-60000000D03*
X151000000Y-102000000D03*
X141974291Y-105984907D03*
X159018716Y-115018716D03*
X114000000Y-114000000D03*
X140989384Y-58965085D03*
X130000000Y-96000000D03*
X83000000Y-116000000D03*
X96000000Y-100000000D03*
X101800000Y-66500000D03*
X163000000Y-108000000D03*
X163018716Y-118018716D03*
X84000000Y-77000000D03*
X86000000Y-71000000D03*
X161018716Y-102500000D03*
X82000000Y-102000000D03*
X119000000Y-75000000D03*
X93000000Y-59000000D03*
X133000000Y-61000000D03*
X82000000Y-98000000D03*
X91100000Y-118200000D03*
X157018716Y-115018716D03*
X132000000Y-78000000D03*
X159982542Y-77978769D03*
X96000000Y-96000000D03*
X142018716Y-93018716D03*
X108000000Y-118000000D03*
X165000000Y-112000000D03*
X136986315Y-93983800D03*
X153250000Y-55750000D03*
X169000000Y-91000000D03*
X164700000Y-54700000D03*
X150000000Y-100000000D03*
X161000000Y-84000000D03*
X131000000Y-64000000D03*
X88000000Y-87000000D03*
X129000000Y-61000000D03*
X90000000Y-96000000D03*
X90000000Y-74000000D03*
X95000000Y-61000000D03*
X129000000Y-64000000D03*
X141990089Y-111986315D03*
X137000000Y-66000000D03*
X162000000Y-66000000D03*
X84019721Y-81000000D03*
X85000000Y-110000000D03*
X128000000Y-116000000D03*
X135982542Y-109993157D03*
X119000000Y-67019721D03*
X129200000Y-71300000D03*
X93019721Y-87000000D03*
X121300000Y-80200000D03*
X138000000Y-112000000D03*
X167000000Y-65000000D03*
X121000000Y-74000000D03*
X141968154Y-95989032D03*
X144000000Y-110000000D03*
X134000000Y-76000000D03*
X116000000Y-54000000D03*
X131000000Y-66000000D03*
X86019721Y-85000000D03*
X119000000Y-63000000D03*
X118000000Y-112000000D03*
X98000000Y-56600000D03*
X121000000Y-75980279D03*
D15*
X144850000Y-78550000D03*
D14*
X134000000Y-102000000D03*
X86019721Y-87000000D03*
X117000000Y-77000000D03*
X96000000Y-92000000D03*
X146000000Y-93000000D03*
X145986315Y-58983800D03*
X134000000Y-70000000D03*
X142984907Y-107978065D03*
X82019721Y-79000000D03*
X85000000Y-118000000D03*
X152997635Y-107993862D03*
X120000000Y-118000000D03*
X128000000Y-112000000D03*
X153018716Y-102000000D03*
X119000000Y-71000000D03*
X112000000Y-114000000D03*
D15*
X138999100Y-75000000D03*
D14*
X124000000Y-116000000D03*
X119000000Y-69000000D03*
D15*
X149875000Y-80350000D03*
D14*
X100000000Y-96000000D03*
X82000000Y-67000000D03*
X144018716Y-100018716D03*
X154000000Y-93000000D03*
X144994415Y-54997484D03*
X140000000Y-68000000D03*
X120000000Y-114000000D03*
X167000000Y-56000000D03*
X154000000Y-86700000D03*
X166500000Y-80800000D03*
X159000000Y-110000000D03*
X115000000Y-75000000D03*
X89000000Y-57000000D03*
X110000000Y-90000000D03*
X163100000Y-105400497D03*
X131000000Y-61000000D03*
X169000000Y-65000000D03*
X127000000Y-61000000D03*
X148018716Y-93018716D03*
X146018716Y-100018716D03*
X95000000Y-55000000D03*
X81000000Y-118000000D03*
X82000000Y-73000000D03*
X108000000Y-90000000D03*
X112000000Y-112000000D03*
X114000000Y-112000000D03*
X116000000Y-56019721D03*
D15*
X151800000Y-82499503D03*
D14*
X90600000Y-68900000D03*
X139000000Y-108000000D03*
X137975700Y-103985611D03*
X169000000Y-93000000D03*
X144989384Y-64989384D03*
X135000000Y-64000000D03*
X82000000Y-75000000D03*
X127990692Y-87987523D03*
X84000000Y-69000000D03*
X128000000Y-114000000D03*
X110000000Y-56019721D03*
X82019721Y-85000000D03*
X79000000Y-118000000D03*
X94000000Y-96000000D03*
X119000000Y-65000000D03*
X132000000Y-70000000D03*
X154000000Y-69000000D03*
X85000000Y-114000000D03*
X118000000Y-60000000D03*
X91000000Y-57000000D03*
X83000000Y-110000000D03*
X167000000Y-54000000D03*
X84019721Y-83000000D03*
X98000000Y-90000000D03*
X92000000Y-96000000D03*
X158977109Y-107993862D03*
X82000000Y-100000000D03*
X84019721Y-87000000D03*
X82019721Y-87000000D03*
X140000000Y-106000000D03*
X169000000Y-61000000D03*
X167000000Y-97000000D03*
X139996931Y-109993157D03*
D15*
%TO.N,NRST*%
X149300000Y-64700000D03*
X145384621Y-77262114D03*
%TO.N,SRAM_~{CS}*%
X151800000Y-81600000D03*
X157600000Y-80400000D03*
%TO.N,ENC_A*%
X163100000Y-106350000D03*
X130500000Y-88000000D03*
%TO.N,ENC_B*%
X132000000Y-88000000D03*
X163100000Y-103800000D03*
D14*
%TO.N,+3V3*%
X165200000Y-109000000D03*
X152300000Y-84150000D03*
X144075000Y-62425000D03*
X145925000Y-62425000D03*
X161750000Y-77325000D03*
X155575000Y-72150000D03*
X165225000Y-85900000D03*
X131775000Y-83625000D03*
X131775000Y-82275000D03*
%TD*%
D16*
%TO.N,NRST*%
X149300000Y-73346735D02*
X149300000Y-64700000D01*
X145384621Y-77262114D02*
X149300000Y-73346735D01*
D17*
%TO.N,SRAM_~{CS}*%
X153000000Y-80400000D02*
X157600000Y-80400000D01*
X151800000Y-81600000D02*
X153000000Y-80400000D01*
D16*
%TO.N,ENC_A*%
X144600000Y-106350000D02*
X130500000Y-92250000D01*
X130500000Y-92250000D02*
X130500000Y-88000000D01*
X163100000Y-106350000D02*
X144600000Y-106350000D01*
%TO.N,ENC_B*%
X132000000Y-88000000D02*
X132000000Y-91081891D01*
X144718109Y-103800000D02*
X163100000Y-103800000D01*
X132000000Y-91081891D02*
X144718109Y-103800000D01*
D18*
%TO.N,+3V3*%
X155600000Y-72125000D02*
X155575000Y-72150000D01*
X161750000Y-72375000D02*
X165225000Y-75850000D01*
X131775000Y-83625000D02*
X131775000Y-82275000D01*
X155600000Y-66225000D02*
X155600000Y-72125000D01*
X165225000Y-85900000D02*
X165225000Y-108975000D01*
X132600000Y-85700000D02*
X150600000Y-85700000D01*
X145925000Y-62425000D02*
X151800000Y-62425000D01*
X131775000Y-84875000D02*
X132600000Y-85700000D01*
X144075000Y-62425000D02*
X145925000Y-62425000D01*
X150750000Y-85700000D02*
X152300000Y-84150000D01*
X165225000Y-83200000D02*
X165225000Y-85900000D01*
X131775000Y-84875000D02*
X131775000Y-83625000D01*
X165225000Y-75850000D02*
X165225000Y-83200000D01*
X150600000Y-85700000D02*
X150750000Y-85700000D01*
X165225000Y-108975000D02*
X165200000Y-109000000D01*
X151800000Y-62425000D02*
X155600000Y-66225000D01*
X161750000Y-72375000D02*
X161750000Y-77325000D01*
X155600000Y-66225000D02*
X161750000Y-72375000D01*
%TD*%
M02*
