M48
; DRILL file {KiCad (6.0.8)} date Tue Dec  6 23:52:16 2022
; FORMAT={-:-/ absolute / metric / decimal}
; #@! TF.CreationDate,2022-12-06T23:52:16-08:00
; #@! TF.GenerationSoftware,Kicad,Pcbnew,(6.0.8)
; #@! TF.FileFunction,MixedPlating,1,4
FMAT,2
METRIC
; #@! TA.AperFunction,Plated,PTH,ViaDrill
T1C0.300
; #@! TA.AperFunction,Plated,PTH,ViaDrill
T2C0.400
; #@! TA.AperFunction,Plated,PTH,ComponentDrill
T3C0.800
; #@! TA.AperFunction,Plated,PTH,ComponentDrill
T4C1.000
%
G90
G05
T1
X130.5Y-88.0
X132.0Y-88.0
X135.674Y-71.85
X137.349Y-75.025
X138.525Y-78.275
X138.999Y-75.0
X141.775Y-72.925
X144.1Y-67.2
X144.85Y-78.55
X145.125Y-68.725
X145.35Y-74.6
X145.385Y-77.262
X146.143Y-77.746
X148.4Y-66.6
X148.422Y-64.895
X149.3Y-64.7
X149.875Y-80.35
X150.255Y-75.2
X150.3Y-63.75
X151.8Y-81.6
X151.8Y-82.5
X154.3Y-81.2
X156.5Y-87.8
X157.6Y-80.4
X157.748Y-81.287
X163.1Y-103.8
X163.1Y-106.35
T2
X79.0Y-110.0
X79.0Y-111.8
X79.0Y-114.0
X79.0Y-116.0
X79.0Y-118.0
X79.0Y-120.0
X81.0Y-59.0
X81.0Y-61.0
X81.0Y-110.0
X81.0Y-111.8
X81.0Y-114.0
X81.0Y-116.0
X81.0Y-118.0
X81.0Y-120.0
X81.45Y-57.2
X82.0Y-67.0
X82.0Y-69.0
X82.0Y-71.0
X82.0Y-73.0
X82.0Y-75.0
X82.0Y-77.0
X82.0Y-98.0
X82.0Y-100.0
X82.0Y-102.0
X82.02Y-79.0
X82.02Y-81.0
X82.02Y-83.0
X82.02Y-85.0
X82.02Y-87.0
X82.85Y-57.2
X83.0Y-59.0
X83.0Y-61.0
X83.0Y-110.0
X83.0Y-111.8
X83.0Y-114.0
X83.0Y-116.0
X83.0Y-118.0
X83.0Y-120.0
X84.0Y-67.0
X84.0Y-69.0
X84.0Y-71.0
X84.0Y-73.0
X84.0Y-75.0
X84.0Y-77.0
X84.0Y-98.0
X84.0Y-100.0
X84.0Y-102.0
X84.02Y-79.0
X84.02Y-81.0
X84.02Y-83.0
X84.02Y-85.0
X84.02Y-87.0
X84.1Y-54.8
X84.1Y-56.0
X85.0Y-59.0
X85.0Y-61.0
X85.0Y-110.0
X85.0Y-111.8
X85.0Y-114.0
X85.0Y-116.0
X85.0Y-118.0
X85.0Y-120.0
X86.0Y-71.0
X86.0Y-73.0
X86.0Y-75.0
X86.0Y-77.0
X86.02Y-79.0
X86.02Y-81.0
X86.02Y-83.0
X86.02Y-85.0
X86.02Y-87.0
X87.0Y-55.0
X87.0Y-57.0
X87.0Y-59.0
X87.0Y-61.0
X87.0Y-110.0
X87.0Y-111.8
X87.0Y-114.0
X87.0Y-116.0
X87.0Y-118.0
X87.0Y-120.0
X87.98Y-72.987
X87.98Y-74.987
X87.98Y-77.0
X88.0Y-79.0
X88.0Y-81.0
X88.0Y-83.0
X88.0Y-85.0
X88.0Y-87.0
X88.0Y-96.0
X89.0Y-55.0
X89.0Y-57.0
X89.0Y-59.0
X89.0Y-61.0
X89.0Y-116.0
X89.0Y-118.0
X89.0Y-120.0
X90.0Y-74.0
X90.0Y-96.0
X90.6Y-68.9
X90.6Y-71.2
X91.0Y-55.0
X91.0Y-57.0
X91.0Y-59.0
X91.0Y-61.0
X91.02Y-87.0
X91.1Y-118.2
X91.675Y-115.3
X92.0Y-96.0
X92.0Y-97.9
X92.0Y-100.0
X92.0Y-102.0
X92.0Y-120.0
X92.8Y-110.375
X92.8Y-111.4
X93.0Y-55.0
X93.0Y-57.0
X93.0Y-59.0
X93.0Y-61.0
X93.02Y-87.0
X93.9Y-73.0
X93.9Y-110.375
X93.9Y-111.4
X94.0Y-68.9
X94.0Y-71.2
X94.0Y-90.0
X94.0Y-92.0
X94.0Y-94.0
X94.0Y-96.0
X94.0Y-120.0
X95.0Y-55.0
X95.0Y-57.0
X95.0Y-59.0
X95.0Y-61.0
X95.02Y-87.5
X95.4Y-73.0
X96.0Y-90.0
X96.0Y-92.0
X96.0Y-94.0
X96.0Y-96.0
X96.0Y-98.0
X96.0Y-100.0
X96.0Y-102.0
X96.0Y-104.0
X96.0Y-120.0
X97.0Y-55.0
X97.0Y-61.0
X97.0Y-74.0
X97.0Y-87.5
X98.0Y-56.6
X98.0Y-57.6
X98.0Y-58.7
X98.0Y-90.0
X98.0Y-92.0
X98.0Y-96.0
X98.0Y-115.0
X98.0Y-118.0
X98.0Y-120.0
X98.5Y-87.5
X99.0Y-72.0
X99.0Y-74.0
X100.0Y-96.0
X100.0Y-114.0
X100.0Y-118.0
X100.0Y-120.0
X100.5Y-66.5
X101.8Y-66.5
X102.0Y-112.0
X102.0Y-114.0
X102.0Y-118.0
X102.0Y-120.0
X103.7Y-71.2
X104.0Y-112.0
X104.0Y-114.0
X104.0Y-118.0
X104.0Y-120.0
X106.0Y-112.0
X106.0Y-114.0
X106.0Y-118.0
X106.0Y-120.0
X108.0Y-90.0
X108.0Y-112.0
X108.0Y-114.0
X108.0Y-118.0
X108.0Y-120.0
X110.0Y-54.0
X110.0Y-56.02
X110.0Y-58.0
X110.0Y-60.0
X110.0Y-90.0
X110.0Y-112.0
X110.0Y-114.0
X110.0Y-118.0
X110.0Y-120.0
X112.0Y-54.0
X112.0Y-56.02
X112.0Y-58.0
X112.0Y-60.0
X112.0Y-90.0
X112.0Y-112.0
X112.0Y-114.0
X112.0Y-118.0
X112.0Y-120.0
X114.0Y-54.0
X114.0Y-56.02
X114.0Y-58.0
X114.0Y-60.0
X114.0Y-89.991
X114.0Y-112.0
X114.0Y-114.0
X114.0Y-118.0
X114.0Y-120.0
X115.0Y-73.02
X115.0Y-75.0
X115.0Y-77.0
X115.0Y-79.02
X115.0Y-81.0
X116.0Y-54.0
X116.0Y-56.02
X116.0Y-58.0
X116.0Y-60.0
X116.0Y-89.991
X116.0Y-112.0
X116.0Y-114.0
X116.0Y-118.0
X116.0Y-120.0
X117.0Y-73.02
X117.0Y-75.0
X117.0Y-77.0
X117.0Y-79.02
X117.0Y-81.0
X118.0Y-54.0
X118.0Y-56.02
X118.0Y-58.0
X118.0Y-60.0
X118.0Y-90.0
X118.0Y-112.0
X118.0Y-114.0
X118.0Y-118.0
X118.0Y-120.0
X119.0Y-61.02
X119.0Y-63.0
X119.0Y-65.0
X119.0Y-67.02
X119.0Y-69.0
X119.0Y-71.0
X119.0Y-73.02
X119.0Y-75.0
X119.0Y-77.0
X120.0Y-90.0
X120.0Y-112.0
X120.0Y-114.0
X120.0Y-118.0
X120.0Y-120.0
X120.3Y-80.2
X121.0Y-61.0
X121.0Y-68.02
X121.0Y-70.0
X121.0Y-71.98
X121.0Y-74.0
X121.0Y-75.98
X121.3Y-80.2
X122.0Y-87.6
X122.0Y-90.0
X122.0Y-112.0
X122.0Y-114.0
X122.0Y-118.0
X122.0Y-120.0
X123.0Y-61.0
X123.0Y-68.02
X123.0Y-70.0
X123.0Y-71.98
X123.0Y-74.0
X123.0Y-75.98
X124.0Y-79.0
X124.0Y-88.0
X124.0Y-90.0
X124.0Y-112.0
X124.0Y-116.0
X124.0Y-118.0
X124.0Y-120.0
X125.0Y-61.0
X126.0Y-79.0
X126.0Y-88.0
X126.0Y-90.0
X126.0Y-92.0
X126.0Y-94.0
X126.0Y-96.0
X126.0Y-114.0
X126.0Y-116.0
X126.0Y-118.0
X126.0Y-120.0
X127.0Y-61.0
X127.0Y-74.02
X127.0Y-76.0
X127.991Y-87.988
X128.0Y-79.0
X128.0Y-90.0
X128.0Y-92.0
X128.0Y-94.0
X128.0Y-96.0
X128.0Y-112.0
X128.0Y-114.0
X128.0Y-116.0
X128.0Y-118.0
X128.0Y-120.0
X129.0Y-61.0
X129.0Y-64.0
X129.0Y-74.02
X129.0Y-76.0
X129.2Y-71.3
X129.55Y-88.0
X130.0Y-94.0
X130.0Y-96.0
X130.0Y-102.0
X130.0Y-114.0
X130.0Y-116.0
X130.0Y-118.0
X130.0Y-120.0
X131.0Y-61.0
X131.0Y-64.0
X131.0Y-66.0
X131.775Y-82.275
X131.775Y-83.625
X132.0Y-68.0
X132.0Y-70.0
X132.0Y-72.0
X132.0Y-74.0
X132.0Y-76.0
X132.0Y-78.0
X132.0Y-102.0
X132.0Y-104.0
X132.0Y-121.0
X132.77Y-83.715
X132.774Y-82.304
X132.95Y-88.0
X133.0Y-61.0
X133.0Y-64.0
X133.0Y-66.0
X134.0Y-68.0
X134.0Y-70.0
X134.0Y-72.0
X134.0Y-74.0
X134.0Y-76.0
X134.0Y-78.0
X134.0Y-80.0
X134.0Y-102.0
X134.0Y-104.0
X134.0Y-106.0
X134.0Y-121.0
X134.984Y-91.981
X135.0Y-61.0
X135.0Y-64.0
X135.0Y-66.0
X135.0Y-108.0
X135.983Y-103.986
X135.983Y-109.993
X136.0Y-68.0
X136.0Y-102.0
X136.0Y-106.0
X136.0Y-121.0
X136.986Y-93.984
X137.0Y-61.0
X137.0Y-64.0
X137.0Y-66.0
X137.0Y-108.0
X137.951Y-101.958
X137.976Y-103.986
X138.0Y-68.0
X138.0Y-106.0
X138.0Y-110.0
X138.0Y-112.0
X138.0Y-121.0
X139.0Y-66.0
X139.0Y-108.0
X139.944Y-103.979
X139.989Y-95.989
X139.989Y-97.968
X139.997Y-109.993
X139.997Y-111.986
X140.0Y-68.0
X140.0Y-106.0
X140.0Y-121.0
X140.019Y-93.019
X140.989Y-54.997
X140.989Y-58.965
X141.0Y-57.0
X141.0Y-84.0
X141.0Y-108.0
X141.968Y-95.989
X141.968Y-99.989
X141.974Y-105.985
X141.99Y-111.986
X142.0Y-110.0
X142.0Y-121.0
X142.01Y-97.968
X142.019Y-93.019
X142.985Y-107.978
X142.987Y-64.989
X142.992Y-56.981
X143.0Y-55.0
X143.0Y-82.0
X143.0Y-84.0
X143.946Y-63.416
X143.997Y-60.984
X144.0Y-110.0
X144.0Y-112.0
X144.0Y-121.0
X144.019Y-93.019
X144.019Y-100.019
X144.075Y-62.425
X144.978Y-107.95
X144.989Y-64.989
X144.994Y-54.997
X145.896Y-63.424
X145.925Y-62.425
X145.986Y-58.984
X145.989Y-109.999
X146.0Y-61.0
X146.0Y-93.0
X146.0Y-121.0
X146.019Y-100.019
X146.99Y-107.994
X146.992Y-64.989
X147.019Y-105.019
X147.984Y-60.984
X147.989Y-56.981
X148.0Y-59.0
X148.0Y-110.0
X148.0Y-121.0
X148.019Y-93.019
X148.019Y-100.019
X148.983Y-107.994
X149.019Y-105.019
X150.0Y-100.0
X150.0Y-110.0
X150.0Y-121.0
X150.019Y-93.019
X150.3Y-56.5
X150.5Y-114.1
X150.976Y-107.994
X150.997Y-65.981
X151.0Y-102.0
X151.0Y-105.0
X151.9Y-63.8
X151.9Y-114.1
X152.0Y-71.0
X152.0Y-100.0
X152.0Y-110.0
X152.0Y-121.0
X152.019Y-93.019
X152.3Y-84.15
X152.7Y-86.7
X152.998Y-107.994
X152.999Y-65.981
X153.019Y-102.0
X153.019Y-105.019
X153.137Y-83.603
X153.2Y-114.1
X153.25Y-55.75
X154.0Y-69.0
X154.0Y-86.7
X154.0Y-93.0
X154.0Y-100.0
X154.0Y-110.0
X154.0Y-121.0
X155.0Y-84.0
X155.0Y-108.0
X155.019Y-102.0
X155.019Y-105.019
X155.575Y-72.15
X155.75Y-55.75
X155.99Y-99.989
X156.0Y-121.0
X156.518Y-71.817
X156.984Y-83.981
X157.0Y-102.0
X157.0Y-108.0
X157.0Y-110.0
X157.019Y-105.019
X157.019Y-112.019
X157.019Y-115.019
X158.25Y-55.75
X158.6Y-100.8
X158.977Y-107.994
X158.986Y-83.981
X159.0Y-105.0
X159.0Y-110.0
X159.0Y-120.0
X159.019Y-102.5
X159.019Y-112.019
X159.019Y-115.019
X159.019Y-118.019
X159.983Y-77.979
X160.0Y-68.0
X160.0Y-100.8
X160.998Y-107.994
X161.0Y-84.0
X161.0Y-105.0
X161.0Y-110.0
X161.0Y-120.0
X161.019Y-102.5
X161.019Y-112.019
X161.019Y-115.019
X161.019Y-118.019
X161.2Y-100.8
X161.75Y-77.325
X162.0Y-66.0
X162.0Y-87.0
X162.3Y-63.15
X162.3Y-100.8
X162.749Y-77.354
X162.982Y-102.858
X163.0Y-108.0
X163.0Y-110.0
X163.0Y-112.0
X163.0Y-115.0
X163.0Y-120.0
X163.019Y-89.019
X163.019Y-118.019
X163.1Y-105.4
X163.85Y-56.5
X163.997Y-78.989
X164.0Y-81.0
X164.225Y-85.9
X164.7Y-54.7
X165.0Y-112.0
X165.0Y-118.0
X165.0Y-120.0
X165.2Y-109.0
X165.2Y-110.0
X165.225Y-85.9
X166.3Y-111.5
X166.5Y-80.8
X166.963Y-89.037
X166.981Y-91.019
X166.981Y-93.019
X167.0Y-54.0
X167.0Y-56.0
X167.0Y-61.0
X167.0Y-63.0
X167.0Y-65.0
X167.0Y-95.0
X167.0Y-97.0
X167.0Y-120.0
X167.019Y-98.981
X168.981Y-89.019
X169.0Y-54.0
X169.0Y-56.0
X169.0Y-61.0
X169.0Y-63.0
X169.0Y-65.0
X169.0Y-91.0
X169.0Y-93.0
X169.0Y-120.0
X169.019Y-94.981
X169.019Y-96.981
X169.019Y-98.981
T3
X160.5Y-94.147
X160.5Y-97.647
T4
X79.35Y-55.175
X81.89Y-55.175
X135.44Y-88.64
X135.44Y-116.56
X137.98Y-88.64
X137.98Y-116.56
X140.52Y-88.64
X140.52Y-116.56
X143.06Y-88.64
X143.06Y-116.56
X145.6Y-88.64
X145.6Y-116.56
X148.14Y-88.64
X148.14Y-116.56
X150.68Y-88.64
X150.68Y-116.56
X153.22Y-88.64
X153.22Y-116.56
X153.27Y-57.65
X153.27Y-60.19
X155.81Y-57.65
X155.81Y-60.19
X158.35Y-57.65
X158.35Y-60.19
X160.89Y-57.65
X160.89Y-60.19
X168.625Y-68.2
X168.625Y-70.74
X168.625Y-73.28
X168.625Y-75.82
X168.675Y-80.845
X168.675Y-83.385
X168.675Y-85.925
X168.8Y-103.85
X168.8Y-106.39
X168.8Y-108.93
X168.8Y-111.47
X168.8Y-114.01
X168.8Y-116.55
T0
M30
