M48
; DRILL file {KiCad (6.0.8)} date Tue Dec  6 21:08:53 2022
; FORMAT={-:-/ absolute / inch / decimal}
; #@! TF.CreationDate,2022-12-06T21:08:53-08:00
; #@! TF.GenerationSoftware,Kicad,Pcbnew,(6.0.8)
; #@! TF.FileFunction,Plated,1,4,PTH
FMAT,2
INCH
; #@! TA.AperFunction,Plated,PTH,ViaDrill
T1C0.0118
; #@! TA.AperFunction,Plated,PTH,ViaDrill
T2C0.0157
; #@! TA.AperFunction,Plated,PTH,ComponentDrill
T3C0.0315
; #@! TA.AperFunction,Plated,PTH,ComponentDrill
T4C0.0394
%
G90
G05
T1
X5.1378Y-3.4646
X5.1969Y-3.4646
X5.3415Y-2.8287
X5.4074Y-2.9537
X5.4537Y-3.0817
X5.4724Y-2.9528
X5.5817Y-2.8711
X5.6732Y-2.6457
X5.7028Y-3.0925
X5.7136Y-2.7057
X5.7224Y-2.937
X5.7238Y-3.0418
X5.7537Y-3.0609
X5.8425Y-2.622
X5.8434Y-2.5549
X5.878Y-2.5472
X5.9006Y-3.1634
X5.9156Y-2.9606
X5.9173Y-2.5098
X5.9764Y-3.2126
X5.9764Y-3.248
X6.0748Y-3.1969
X6.1614Y-3.4567
X6.2047Y-3.1654
X6.2105Y-3.2003
X6.4213Y-4.0866
X6.4213Y-4.187
T2
X3.1102Y-4.3307
X3.1102Y-4.4016
X3.1102Y-4.4882
X3.1102Y-4.5669
X3.1102Y-4.6457
X3.189Y-2.3228
X3.189Y-2.4016
X3.189Y-4.3307
X3.189Y-4.4016
X3.189Y-4.4882
X3.189Y-4.5669
X3.189Y-4.6457
X3.2067Y-2.252
X3.2283Y-2.6378
X3.2283Y-2.7165
X3.2283Y-2.7953
X3.2283Y-2.874
X3.2283Y-2.9528
X3.2283Y-3.0315
X3.2283Y-3.8583
X3.2283Y-3.937
X3.2283Y-4.0157
X3.2291Y-3.1102
X3.2291Y-3.189
X3.2291Y-3.2677
X3.2291Y-3.3465
X3.2291Y-3.4252
X3.2618Y-2.252
X3.2677Y-2.3228
X3.2677Y-2.4016
X3.2677Y-4.3307
X3.2677Y-4.4016
X3.2677Y-4.4882
X3.2677Y-4.5669
X3.2677Y-4.6457
X3.3071Y-2.6378
X3.3071Y-2.7165
X3.3071Y-2.7953
X3.3071Y-2.874
X3.3071Y-2.9528
X3.3071Y-3.0315
X3.3071Y-3.8583
X3.3071Y-3.937
X3.3071Y-4.0157
X3.3079Y-3.1102
X3.3079Y-3.189
X3.3079Y-3.2677
X3.3079Y-3.3465
X3.3079Y-3.4252
X3.311Y-2.1575
X3.311Y-2.2047
X3.3465Y-2.3228
X3.3465Y-2.4016
X3.3465Y-4.3307
X3.3465Y-4.4016
X3.3465Y-4.4882
X3.3465Y-4.5669
X3.3465Y-4.6457
X3.3858Y-2.7953
X3.3858Y-2.874
X3.3858Y-2.9528
X3.3858Y-3.0315
X3.3866Y-3.1102
X3.3866Y-3.189
X3.3866Y-3.2677
X3.3866Y-3.3465
X3.3866Y-3.4252
X3.4252Y-2.1654
X3.4252Y-2.2441
X3.4252Y-2.3228
X3.4252Y-2.4016
X3.4252Y-4.3307
X3.4252Y-4.4016
X3.4252Y-4.4882
X3.4252Y-4.5669
X3.4252Y-4.6457
X3.4638Y-2.8735
X3.4638Y-2.9522
X3.4638Y-3.0315
X3.4646Y-3.1102
X3.4646Y-3.189
X3.4646Y-3.2677
X3.4646Y-3.3465
X3.4646Y-3.4252
X3.4646Y-3.7795
X3.5039Y-2.1654
X3.5039Y-2.2441
X3.5039Y-2.3228
X3.5039Y-2.4016
X3.5039Y-4.5669
X3.5039Y-4.6457
X3.5433Y-2.9134
X3.5433Y-3.7795
X3.5669Y-2.7126
X3.5669Y-2.8031
X3.5827Y-2.1654
X3.5827Y-2.2441
X3.5827Y-2.3228
X3.5827Y-2.4016
X3.5835Y-3.4252
X3.5866Y-4.6535
X3.6093Y-4.5394
X3.622Y-3.7795
X3.622Y-3.8543
X3.622Y-3.937
X3.622Y-4.0157
X3.6535Y-4.3455
X3.6535Y-4.3858
X3.6614Y-2.1654
X3.6614Y-2.2441
X3.6614Y-2.3228
X3.6614Y-2.4016
X3.6622Y-3.4252
X3.6969Y-2.874
X3.6969Y-4.3455
X3.6969Y-4.3858
X3.7008Y-2.7126
X3.7008Y-2.8031
X3.7008Y-3.5433
X3.7008Y-3.622
X3.7008Y-3.7008
X3.7008Y-3.7795
X3.7402Y-2.1654
X3.7402Y-2.2441
X3.7402Y-2.3228
X3.7402Y-2.4016
X3.7409Y-3.4449
X3.7559Y-2.874
X3.7795Y-3.5433
X3.7795Y-3.622
X3.7795Y-3.7008
X3.7795Y-3.7795
X3.7795Y-3.8583
X3.7795Y-3.937
X3.7795Y-4.0157
X3.7795Y-4.0945
X3.8189Y-2.1654
X3.8189Y-2.4016
X3.8189Y-2.9134
X3.8189Y-3.4449
X3.8583Y-2.2283
X3.8583Y-2.2677
X3.8583Y-2.311
X3.8583Y-3.5433
X3.8583Y-3.622
X3.8583Y-3.7795
X3.8583Y-4.5276
X3.8583Y-4.6457
X3.878Y-3.4449
X3.8976Y-2.8346
X3.8976Y-2.9134
X3.937Y-3.7795
X3.937Y-4.4882
X3.937Y-4.6457
X3.9567Y-2.6181
X4.0079Y-2.6181
X4.0157Y-4.4094
X4.0157Y-4.4882
X4.0157Y-4.6457
X4.0827Y-2.8031
X4.0945Y-4.4094
X4.0945Y-4.4882
X4.0945Y-4.6457
X4.1732Y-4.4094
X4.1732Y-4.4882
X4.1732Y-4.6457
X4.252Y-3.5433
X4.252Y-4.4094
X4.252Y-4.4882
X4.252Y-4.6457
X4.3307Y-2.126
X4.3307Y-2.2055
X4.3307Y-2.2835
X4.3307Y-2.3622
X4.3307Y-3.5433
X4.3307Y-4.4094
X4.3307Y-4.4882
X4.3307Y-4.6457
X4.4094Y-2.126
X4.4094Y-2.2055
X4.4094Y-2.2835
X4.4094Y-2.3622
X4.4094Y-3.5433
X4.4094Y-4.4094
X4.4094Y-4.4882
X4.4094Y-4.6457
X4.4882Y-2.126
X4.4882Y-2.2055
X4.4882Y-2.2835
X4.4882Y-2.3622
X4.4882Y-3.543
X4.4882Y-4.4094
X4.4882Y-4.4882
X4.4882Y-4.6457
X4.5276Y-2.8748
X4.5276Y-2.9528
X4.5276Y-3.0315
X4.5276Y-3.111
X4.5276Y-3.189
X4.5669Y-2.126
X4.5669Y-2.2055
X4.5669Y-2.2835
X4.5669Y-2.3622
X4.5669Y-3.543
X4.5669Y-4.4094
X4.5669Y-4.4882
X4.5669Y-4.6457
X4.6063Y-2.8748
X4.6063Y-2.9528
X4.6063Y-3.0315
X4.6063Y-3.111
X4.6063Y-3.189
X4.6457Y-2.126
X4.6457Y-2.2055
X4.6457Y-2.2835
X4.6457Y-2.3622
X4.6457Y-3.5433
X4.6457Y-4.4094
X4.6457Y-4.4882
X4.6457Y-4.6457
X4.685Y-2.4024
X4.685Y-2.4803
X4.685Y-2.5591
X4.685Y-2.6386
X4.685Y-2.7165
X4.685Y-2.7953
X4.685Y-2.8748
X4.685Y-2.9528
X4.685Y-3.0315
X4.7244Y-3.5433
X4.7244Y-4.4094
X4.7244Y-4.4882
X4.7244Y-4.6457
X4.7362Y-3.1575
X4.7638Y-2.4016
X4.7638Y-2.6779
X4.7638Y-2.7559
X4.7638Y-2.8339
X4.7638Y-2.9134
X4.7638Y-2.9913
X4.7756Y-3.1575
X4.8031Y-3.4488
X4.8031Y-3.5433
X4.8031Y-4.4094
X4.8031Y-4.4882
X4.8031Y-4.6457
X4.8425Y-2.4016
X4.8425Y-2.6779
X4.8425Y-2.7559
X4.8425Y-2.8339
X4.8425Y-2.9134
X4.8425Y-2.9913
X4.8819Y-3.1102
X4.8819Y-3.4646
X4.8819Y-3.5433
X4.8819Y-4.4094
X4.8819Y-4.5669
X4.8819Y-4.6457
X4.9213Y-2.4016
X4.9606Y-3.1102
X4.9606Y-3.4646
X4.9606Y-3.5433
X4.9606Y-3.622
X4.9606Y-3.7008
X4.9606Y-3.7795
X4.9606Y-4.4882
X4.9606Y-4.5669
X4.9606Y-4.6457
X5.0Y-2.4016
X5.0Y-2.9142
X5.0Y-2.9921
X5.039Y-3.4641
X5.0394Y-3.1102
X5.0394Y-3.5433
X5.0394Y-3.622
X5.0394Y-3.7008
X5.0394Y-3.7795
X5.0394Y-4.4094
X5.0394Y-4.4882
X5.0394Y-4.5669
X5.0394Y-4.6457
X5.0787Y-2.4016
X5.0787Y-2.5197
X5.0787Y-2.9142
X5.0787Y-2.9921
X5.0866Y-2.8071
X5.1004Y-3.4646
X5.1181Y-3.7008
X5.1181Y-3.7795
X5.1181Y-4.0157
X5.1181Y-4.4882
X5.1181Y-4.5669
X5.1181Y-4.6457
X5.1575Y-2.4016
X5.1575Y-2.5197
X5.1575Y-2.5984
X5.188Y-3.2392
X5.188Y-3.2923
X5.1969Y-2.6772
X5.1969Y-2.7559
X5.1969Y-2.8346
X5.1969Y-2.9134
X5.1969Y-2.9921
X5.1969Y-3.0709
X5.1969Y-4.0157
X5.1969Y-4.0945
X5.2272Y-3.2959
X5.2273Y-3.2403
X5.2342Y-3.4646
X5.2362Y-2.4016
X5.2362Y-2.5197
X5.2362Y-2.5984
X5.2756Y-2.6772
X5.2756Y-2.7559
X5.2756Y-2.8346
X5.2756Y-2.9134
X5.2756Y-2.9921
X5.2756Y-3.0709
X5.2756Y-3.1496
X5.2756Y-4.0157
X5.2756Y-4.0945
X5.2756Y-4.1732
X5.3143Y-3.6213
X5.315Y-2.4016
X5.315Y-2.5197
X5.315Y-2.5984
X5.315Y-4.252
X5.3536Y-4.0939
X5.3536Y-4.3304
X5.3543Y-2.6772
X5.3543Y-4.0157
X5.3543Y-4.1732
X5.3932Y-3.7001
X5.3937Y-2.4016
X5.3937Y-2.5197
X5.3937Y-2.5984
X5.3937Y-4.252
X5.4311Y-4.0141
X5.4321Y-4.0939
X5.4331Y-2.6772
X5.4331Y-4.1732
X5.4331Y-4.3307
X5.4331Y-4.4094
X5.4724Y-2.5984
X5.4724Y-4.252
X5.5096Y-4.0937
X5.5114Y-3.7791
X5.5114Y-3.857
X5.5117Y-4.3304
X5.5117Y-4.4089
X5.5118Y-2.6772
X5.5118Y-4.1732
X5.5125Y-3.6622
X5.5508Y-2.1653
X5.5508Y-2.3215
X5.5512Y-2.2441
X5.5512Y-3.3071
X5.5512Y-4.252
X5.5893Y-3.7791
X5.5893Y-3.9366
X5.5895Y-4.1726
X5.5902Y-4.4089
X5.5906Y-4.3307
X5.591Y-3.857
X5.5913Y-3.6622
X5.6293Y-4.2511
X5.6294Y-2.5586
X5.6296Y-2.2434
X5.6299Y-2.1654
X5.6299Y-3.2283
X5.6299Y-3.3071
X5.6672Y-2.4967
X5.6692Y-2.401
X5.6693Y-4.3307
X5.6693Y-4.4094
X5.67Y-3.6622
X5.67Y-3.9377
X5.6722Y-2.4577
X5.7078Y-4.25
X5.7082Y-2.5586
X5.7084Y-2.1653
X5.7439Y-2.497
X5.7451Y-2.4577
X5.7475Y-2.3222
X5.7476Y-4.3307
X5.748Y-2.4016
X5.748Y-3.6614
X5.7488Y-3.9377
X5.787Y-4.2517
X5.7871Y-2.5586
X5.7881Y-4.1346
X5.8261Y-2.401
X5.8263Y-2.2434
X5.8268Y-2.3228
X5.8268Y-4.3307
X5.8275Y-3.6622
X5.8275Y-3.9377
X5.8655Y-4.2517
X5.8669Y-4.1346
X5.9055Y-3.937
X5.9055Y-4.3307
X5.9062Y-3.6622
X5.9173Y-2.2244
X5.9252Y-4.4921
X5.944Y-4.2517
X5.9448Y-2.5977
X5.9449Y-4.0157
X5.9449Y-4.1339
X5.9803Y-2.5118
X5.9803Y-4.4921
X5.9843Y-2.7953
X5.9843Y-3.937
X5.9843Y-4.3307
X5.985Y-3.6622
X5.9961Y-3.313
X6.0118Y-3.4134
X6.0235Y-4.2517
X6.0236Y-2.5977
X6.0244Y-4.0157
X6.0244Y-4.1346
X6.029Y-3.2915
X6.0315Y-4.4921
X6.0335Y-2.1949
X6.063Y-2.7165
X6.063Y-3.4134
X6.063Y-3.6614
X6.063Y-3.937
X6.063Y-4.3307
X6.1024Y-3.3071
X6.1024Y-4.252
X6.1031Y-4.0157
X6.1031Y-4.1346
X6.125Y-2.8406
X6.1319Y-2.1949
X6.1414Y-3.9366
X6.1621Y-2.8275
X6.1805Y-3.3063
X6.1811Y-4.0157
X6.1811Y-4.252
X6.1811Y-4.3307
X6.1818Y-4.1346
X6.1818Y-4.4102
X6.1818Y-4.5283
X6.2303Y-2.1949
X6.2441Y-3.9685
X6.2589Y-4.2517
X6.2593Y-3.3063
X6.2598Y-4.1339
X6.2598Y-4.3307
X6.2606Y-4.0354
X6.2606Y-4.4102
X6.2606Y-4.5283
X6.2606Y-4.6464
X6.2985Y-3.07
X6.2992Y-2.6772
X6.2992Y-3.9685
X6.3385Y-4.2517
X6.3386Y-3.3071
X6.3386Y-4.1339
X6.3386Y-4.3307
X6.3393Y-4.0354
X6.3393Y-4.4102
X6.3393Y-4.5283
X6.3393Y-4.6464
X6.3465Y-3.9685
X6.3681Y-3.0443
X6.378Y-2.5984
X6.378Y-3.4252
X6.3898Y-2.4862
X6.3898Y-3.9685
X6.4074Y-3.0454
X6.4166Y-4.0495
X6.4173Y-4.252
X6.4173Y-4.3307
X6.4173Y-4.4094
X6.4173Y-4.5276
X6.4181Y-3.5047
X6.4181Y-4.6464
X6.4213Y-4.1496
X6.4508Y-2.2244
X6.4566Y-3.1098
X6.4567Y-3.189
X6.4656Y-3.3819
X6.4843Y-2.1535
X6.4961Y-4.4094
X6.4961Y-4.6457
X6.5039Y-4.2913
X6.5039Y-4.3307
X6.5049Y-3.3819
X6.5472Y-4.3898
X6.5551Y-3.1811
X6.5733Y-3.5054
X6.5741Y-3.5834
X6.5741Y-3.6622
X6.5748Y-2.126
X6.5748Y-2.2047
X6.5748Y-2.4016
X6.5748Y-2.4803
X6.5748Y-2.5591
X6.5748Y-3.7402
X6.5748Y-3.8189
X6.5755Y-3.8969
X6.6528Y-3.5047
X6.6535Y-2.126
X6.6535Y-2.2047
X6.6535Y-2.4016
X6.6535Y-2.4803
X6.6535Y-2.5591
X6.6535Y-3.5827
X6.6535Y-3.6614
X6.6543Y-3.7394
X6.6543Y-3.8182
X6.6543Y-3.8969
T3
X6.3189Y-3.7066
X6.3189Y-3.8444
T4
X3.124Y-2.1722
X3.224Y-2.1722
X5.3323Y-3.4898
X5.3323Y-4.589
X5.4323Y-3.4898
X5.4323Y-4.589
X5.5323Y-3.4898
X5.5323Y-4.589
X5.6323Y-3.4898
X5.6323Y-4.589
X5.7323Y-3.4898
X5.7323Y-4.589
X5.8323Y-3.4898
X5.8323Y-4.589
X5.9323Y-3.4898
X5.9323Y-4.589
X6.0323Y-3.4898
X6.0323Y-4.589
X6.0343Y-2.2697
X6.0343Y-2.3697
X6.1343Y-2.2697
X6.1343Y-2.3697
X6.2343Y-2.2697
X6.2343Y-2.3697
X6.3343Y-2.2697
X6.3343Y-2.3697
X6.6388Y-2.685
X6.6388Y-2.785
X6.6388Y-2.885
X6.6388Y-2.985
X6.6407Y-3.1829
X6.6407Y-3.2829
X6.6407Y-3.3829
X6.6457Y-4.0886
X6.6457Y-4.1886
X6.6457Y-4.2886
X6.6457Y-4.3886
X6.6457Y-4.4886
X6.6457Y-4.5886
T0
M30
