%TF.GenerationSoftware,KiCad,Pcbnew,(6.0.8)*%
%TF.CreationDate,2022-12-06T21:08:53-08:00*%
%TF.ProjectId,motor_controller,6d6f746f-725f-4636-9f6e-74726f6c6c65,B1 (HULA) v0.2*%
%TF.SameCoordinates,Original*%
%TF.FileFunction,Legend,Bot*%
%TF.FilePolarity,Positive*%
%FSLAX46Y46*%
G04 Gerber Fmt 4.6, Leading zero omitted, Abs format (unit mm)*
G04 Created by KiCad (PCBNEW (6.0.8)) date 2022-12-06 21:08:53*
%MOMM*%
%LPD*%
G01*
G04 APERTURE LIST*
%ADD10R,1.700000X1.700000*%
%ADD11O,1.700000X1.700000*%
%ADD12R,1.600000X1.600000*%
%ADD13C,1.600000*%
G04 APERTURE END LIST*
%LPC*%
D10*
%TO.C,J501*%
X135440000Y-88640000D03*
D11*
X137980000Y-88640000D03*
X140520000Y-88640000D03*
X143060000Y-88640000D03*
X145600000Y-88640000D03*
X148140000Y-88640000D03*
X150680000Y-88640000D03*
X153220000Y-88640000D03*
%TD*%
D10*
%TO.C,J201*%
X79350000Y-55175000D03*
D11*
X81890000Y-55175000D03*
%TD*%
D10*
%TO.C,J601*%
X168625000Y-68200000D03*
D11*
X168625000Y-70740000D03*
X168625000Y-73280000D03*
X168625000Y-75820000D03*
%TD*%
D12*
%TO.C,C501*%
X160500000Y-94147349D03*
D13*
X160500000Y-97647349D03*
%TD*%
D10*
%TO.C,J603*%
X160890000Y-57650000D03*
D11*
X160890000Y-60190000D03*
X158350000Y-57650000D03*
X158350000Y-60190000D03*
X155810000Y-57650000D03*
X155810000Y-60190000D03*
X153270000Y-57650000D03*
X153270000Y-60190000D03*
%TD*%
D10*
%TO.C,J502*%
X135440000Y-116560000D03*
D11*
X137980000Y-116560000D03*
X140520000Y-116560000D03*
X143060000Y-116560000D03*
X145600000Y-116560000D03*
X148140000Y-116560000D03*
X150680000Y-116560000D03*
X153220000Y-116560000D03*
%TD*%
D10*
%TO.C,J503*%
X168800000Y-116550000D03*
D11*
X168800000Y-114010000D03*
X168800000Y-111470000D03*
X168800000Y-108930000D03*
X168800000Y-106390000D03*
X168800000Y-103850000D03*
%TD*%
D10*
%TO.C,J602*%
X168675000Y-85925000D03*
D11*
X168675000Y-83385000D03*
X168675000Y-80845000D03*
%TD*%
M02*
