%TF.GenerationSoftware,KiCad,Pcbnew,(6.0.8)*%
%TF.CreationDate,2022-12-06T21:08:53-08:00*%
%TF.ProjectId,motor_controller,6d6f746f-725f-4636-9f6e-74726f6c6c65,B1 (HULA) v0.2*%
%TF.SameCoordinates,Original*%
%TF.FileFunction,Other,Comment*%
%FSLAX46Y46*%
G04 Gerber Fmt 4.6, Leading zero omitted, Abs format (unit mm)*
G04 Created by KiCad (PCBNEW (6.0.8)) date 2022-12-06 21:08:53*
%MOMM*%
%LPD*%
G01*
G04 APERTURE LIST*
%ADD10C,0.150000*%
%ADD11C,0.300000*%
%ADD12C,0.125000*%
%ADD13C,0.031250*%
%ADD14C,0.100000*%
G04 APERTURE END LIST*
D10*
X84000000Y-53400000D02*
X131000000Y-53400000D01*
X131000000Y-53400000D02*
X131000000Y-88750000D01*
X131000000Y-88750000D02*
X84000000Y-88750000D01*
X84000000Y-88750000D02*
X84000000Y-53400000D01*
X133600000Y-86900000D02*
X155000000Y-86900000D01*
X155000000Y-86900000D02*
X155000000Y-118400000D01*
X155000000Y-118400000D02*
X133600000Y-118400000D01*
X133600000Y-118400000D02*
X133600000Y-86900000D01*
X84029000Y-88799975D02*
X131000000Y-88799975D01*
X131000000Y-88799975D02*
X131000000Y-120400000D01*
X131000000Y-120400000D02*
X84029000Y-120400000D01*
X84029000Y-120400000D02*
X84029000Y-88799975D01*
X133155000Y-62000000D02*
X154800000Y-62000000D01*
X154800000Y-62000000D02*
X154800000Y-84650000D01*
X154800000Y-84650000D02*
X133155000Y-84650000D01*
X133155000Y-84650000D02*
X133155000Y-62000000D01*
D11*
X230409285Y-144426071D02*
X229909285Y-143711785D01*
X229552142Y-144426071D02*
X229552142Y-142926071D01*
X230123571Y-142926071D01*
X230266428Y-142997500D01*
X230337857Y-143068928D01*
X230409285Y-143211785D01*
X230409285Y-143426071D01*
X230337857Y-143568928D01*
X230266428Y-143640357D01*
X230123571Y-143711785D01*
X229552142Y-143711785D01*
X231266428Y-144426071D02*
X231123571Y-144354642D01*
X231052142Y-144283214D01*
X230980714Y-144140357D01*
X230980714Y-143711785D01*
X231052142Y-143568928D01*
X231123571Y-143497500D01*
X231266428Y-143426071D01*
X231480714Y-143426071D01*
X231623571Y-143497500D01*
X231695000Y-143568928D01*
X231766428Y-143711785D01*
X231766428Y-144140357D01*
X231695000Y-144283214D01*
X231623571Y-144354642D01*
X231480714Y-144426071D01*
X231266428Y-144426071D01*
X233052142Y-143426071D02*
X233052142Y-144426071D01*
X232409285Y-143426071D02*
X232409285Y-144211785D01*
X232480714Y-144354642D01*
X232623571Y-144426071D01*
X232837857Y-144426071D01*
X232980714Y-144354642D01*
X233052142Y-144283214D01*
X233552142Y-143426071D02*
X234123571Y-143426071D01*
X233766428Y-142926071D02*
X233766428Y-144211785D01*
X233837857Y-144354642D01*
X233980714Y-144426071D01*
X234123571Y-144426071D01*
X234623571Y-144426071D02*
X234623571Y-143426071D01*
X234623571Y-142926071D02*
X234552142Y-142997500D01*
X234623571Y-143068928D01*
X234695000Y-142997500D01*
X234623571Y-142926071D01*
X234623571Y-143068928D01*
X235337857Y-143426071D02*
X235337857Y-144426071D01*
X235337857Y-143568928D02*
X235409285Y-143497500D01*
X235552142Y-143426071D01*
X235766428Y-143426071D01*
X235909285Y-143497500D01*
X235980714Y-143640357D01*
X235980714Y-144426071D01*
X237337857Y-143426071D02*
X237337857Y-144640357D01*
X237266428Y-144783214D01*
X237195000Y-144854642D01*
X237052142Y-144926071D01*
X236837857Y-144926071D01*
X236695000Y-144854642D01*
X237337857Y-144354642D02*
X237195000Y-144426071D01*
X236909285Y-144426071D01*
X236766428Y-144354642D01*
X236695000Y-144283214D01*
X236623571Y-144140357D01*
X236623571Y-143711785D01*
X236695000Y-143568928D01*
X236766428Y-143497500D01*
X236909285Y-143426071D01*
X237195000Y-143426071D01*
X237337857Y-143497500D01*
X239195000Y-144426071D02*
X239195000Y-142926071D01*
X240052142Y-144426071D01*
X240052142Y-142926071D01*
X240980714Y-144426071D02*
X240837857Y-144354642D01*
X240766428Y-144283214D01*
X240695000Y-144140357D01*
X240695000Y-143711785D01*
X240766428Y-143568928D01*
X240837857Y-143497500D01*
X240980714Y-143426071D01*
X241195000Y-143426071D01*
X241337857Y-143497500D01*
X241409285Y-143568928D01*
X241480714Y-143711785D01*
X241480714Y-144140357D01*
X241409285Y-144283214D01*
X241337857Y-144354642D01*
X241195000Y-144426071D01*
X240980714Y-144426071D01*
X241909285Y-143426071D02*
X242480714Y-143426071D01*
X242123571Y-142926071D02*
X242123571Y-144211785D01*
X242195000Y-144354642D01*
X242337857Y-144426071D01*
X242480714Y-144426071D01*
X243552142Y-144354642D02*
X243409285Y-144426071D01*
X243123571Y-144426071D01*
X242980714Y-144354642D01*
X242909285Y-144211785D01*
X242909285Y-143640357D01*
X242980714Y-143497500D01*
X243123571Y-143426071D01*
X243409285Y-143426071D01*
X243552142Y-143497500D01*
X243623571Y-143640357D01*
X243623571Y-143783214D01*
X242909285Y-143926071D01*
X244195000Y-144354642D02*
X244337857Y-144426071D01*
X244623571Y-144426071D01*
X244766428Y-144354642D01*
X244837857Y-144211785D01*
X244837857Y-144140357D01*
X244766428Y-143997500D01*
X244623571Y-143926071D01*
X244409285Y-143926071D01*
X244266428Y-143854642D01*
X244195000Y-143711785D01*
X244195000Y-143640357D01*
X244266428Y-143497500D01*
X244409285Y-143426071D01*
X244623571Y-143426071D01*
X244766428Y-143497500D01*
X229552142Y-146269642D02*
X230695000Y-146269642D01*
X232480714Y-146769642D02*
X232695000Y-146841071D01*
X233052142Y-146841071D01*
X233195000Y-146769642D01*
X233266428Y-146698214D01*
X233337857Y-146555357D01*
X233337857Y-146412500D01*
X233266428Y-146269642D01*
X233195000Y-146198214D01*
X233052142Y-146126785D01*
X232766428Y-146055357D01*
X232623571Y-145983928D01*
X232552142Y-145912500D01*
X232480714Y-145769642D01*
X232480714Y-145626785D01*
X232552142Y-145483928D01*
X232623571Y-145412500D01*
X232766428Y-145341071D01*
X233123571Y-145341071D01*
X233337857Y-145412500D01*
X233980714Y-146841071D02*
X233980714Y-145841071D01*
X233980714Y-145341071D02*
X233909285Y-145412500D01*
X233980714Y-145483928D01*
X234052142Y-145412500D01*
X233980714Y-145341071D01*
X233980714Y-145483928D01*
X234695000Y-145841071D02*
X234695000Y-146841071D01*
X234695000Y-145983928D02*
X234766428Y-145912500D01*
X234909285Y-145841071D01*
X235123571Y-145841071D01*
X235266428Y-145912500D01*
X235337857Y-146055357D01*
X235337857Y-146841071D01*
X236695000Y-145841071D02*
X236695000Y-147055357D01*
X236623571Y-147198214D01*
X236552142Y-147269642D01*
X236409285Y-147341071D01*
X236195000Y-147341071D01*
X236052142Y-147269642D01*
X236695000Y-146769642D02*
X236552142Y-146841071D01*
X236266428Y-146841071D01*
X236123571Y-146769642D01*
X236052142Y-146698214D01*
X235980714Y-146555357D01*
X235980714Y-146126785D01*
X236052142Y-145983928D01*
X236123571Y-145912500D01*
X236266428Y-145841071D01*
X236552142Y-145841071D01*
X236695000Y-145912500D01*
X237623571Y-146841071D02*
X237480714Y-146769642D01*
X237409285Y-146626785D01*
X237409285Y-145341071D01*
X238766428Y-146769642D02*
X238623571Y-146841071D01*
X238337857Y-146841071D01*
X238195000Y-146769642D01*
X238123571Y-146626785D01*
X238123571Y-146055357D01*
X238195000Y-145912500D01*
X238337857Y-145841071D01*
X238623571Y-145841071D01*
X238766428Y-145912500D01*
X238837857Y-146055357D01*
X238837857Y-146198214D01*
X238123571Y-146341071D01*
X240409285Y-145341071D02*
X241266428Y-145341071D01*
X240837857Y-146841071D02*
X240837857Y-145341071D01*
X241766428Y-146841071D02*
X241766428Y-145841071D01*
X241766428Y-146126785D02*
X241837857Y-145983928D01*
X241909285Y-145912500D01*
X242052142Y-145841071D01*
X242195000Y-145841071D01*
X243337857Y-146841071D02*
X243337857Y-146055357D01*
X243266428Y-145912500D01*
X243123571Y-145841071D01*
X242837857Y-145841071D01*
X242695000Y-145912500D01*
X243337857Y-146769642D02*
X243195000Y-146841071D01*
X242837857Y-146841071D01*
X242695000Y-146769642D01*
X242623571Y-146626785D01*
X242623571Y-146483928D01*
X242695000Y-146341071D01*
X242837857Y-146269642D01*
X243195000Y-146269642D01*
X243337857Y-146198214D01*
X244695000Y-146769642D02*
X244552142Y-146841071D01*
X244266428Y-146841071D01*
X244123571Y-146769642D01*
X244052142Y-146698214D01*
X243980714Y-146555357D01*
X243980714Y-146126785D01*
X244052142Y-145983928D01*
X244123571Y-145912500D01*
X244266428Y-145841071D01*
X244552142Y-145841071D01*
X244695000Y-145912500D01*
X245909285Y-146769642D02*
X245766428Y-146841071D01*
X245480714Y-146841071D01*
X245337857Y-146769642D01*
X245266428Y-146626785D01*
X245266428Y-146055357D01*
X245337857Y-145912500D01*
X245480714Y-145841071D01*
X245766428Y-145841071D01*
X245909285Y-145912500D01*
X245980714Y-146055357D01*
X245980714Y-146198214D01*
X245266428Y-146341071D01*
X247623571Y-145341071D02*
X247980714Y-146841071D01*
X248266428Y-145769642D01*
X248552142Y-146841071D01*
X248909285Y-145341071D01*
X249480714Y-146841071D02*
X249480714Y-145841071D01*
X249480714Y-145341071D02*
X249409285Y-145412500D01*
X249480714Y-145483928D01*
X249552142Y-145412500D01*
X249480714Y-145341071D01*
X249480714Y-145483928D01*
X250837857Y-146841071D02*
X250837857Y-145341071D01*
X250837857Y-146769642D02*
X250695000Y-146841071D01*
X250409285Y-146841071D01*
X250266428Y-146769642D01*
X250195000Y-146698214D01*
X250123571Y-146555357D01*
X250123571Y-146126785D01*
X250195000Y-145983928D01*
X250266428Y-145912500D01*
X250409285Y-145841071D01*
X250695000Y-145841071D01*
X250837857Y-145912500D01*
X251337857Y-145841071D02*
X251909285Y-145841071D01*
X251552142Y-145341071D02*
X251552142Y-146626785D01*
X251623571Y-146769642D01*
X251766428Y-146841071D01*
X251909285Y-146841071D01*
X252409285Y-146841071D02*
X252409285Y-145341071D01*
X253052142Y-146841071D02*
X253052142Y-146055357D01*
X252980714Y-145912500D01*
X252837857Y-145841071D01*
X252623571Y-145841071D01*
X252480714Y-145912500D01*
X252409285Y-145983928D01*
X253695000Y-146769642D02*
X253837857Y-146841071D01*
X254123571Y-146841071D01*
X254266428Y-146769642D01*
X254337857Y-146626785D01*
X254337857Y-146555357D01*
X254266428Y-146412500D01*
X254123571Y-146341071D01*
X253909285Y-146341071D01*
X253766428Y-146269642D01*
X253695000Y-146126785D01*
X253695000Y-146055357D01*
X253766428Y-145912500D01*
X253909285Y-145841071D01*
X254123571Y-145841071D01*
X254266428Y-145912500D01*
X235195000Y-148684642D02*
X236337857Y-148684642D01*
X238909285Y-149256071D02*
X238195000Y-149256071D01*
X238195000Y-147756071D01*
X239623571Y-149256071D02*
X239480714Y-149184642D01*
X239409285Y-149113214D01*
X239337857Y-148970357D01*
X239337857Y-148541785D01*
X239409285Y-148398928D01*
X239480714Y-148327500D01*
X239623571Y-148256071D01*
X239837857Y-148256071D01*
X239980714Y-148327500D01*
X240052142Y-148398928D01*
X240123571Y-148541785D01*
X240123571Y-148970357D01*
X240052142Y-149113214D01*
X239980714Y-149184642D01*
X239837857Y-149256071D01*
X239623571Y-149256071D01*
X241409285Y-148256071D02*
X241409285Y-149470357D01*
X241337857Y-149613214D01*
X241266428Y-149684642D01*
X241123571Y-149756071D01*
X240909285Y-149756071D01*
X240766428Y-149684642D01*
X241409285Y-149184642D02*
X241266428Y-149256071D01*
X240980714Y-149256071D01*
X240837857Y-149184642D01*
X240766428Y-149113214D01*
X240695000Y-148970357D01*
X240695000Y-148541785D01*
X240766428Y-148398928D01*
X240837857Y-148327500D01*
X240980714Y-148256071D01*
X241266428Y-148256071D01*
X241409285Y-148327500D01*
X242123571Y-149256071D02*
X242123571Y-148256071D01*
X242123571Y-147756071D02*
X242052142Y-147827500D01*
X242123571Y-147898928D01*
X242195000Y-147827500D01*
X242123571Y-147756071D01*
X242123571Y-147898928D01*
X243480714Y-149184642D02*
X243337857Y-149256071D01*
X243052142Y-149256071D01*
X242909285Y-149184642D01*
X242837857Y-149113214D01*
X242766428Y-148970357D01*
X242766428Y-148541785D01*
X242837857Y-148398928D01*
X242909285Y-148327500D01*
X243052142Y-148256071D01*
X243337857Y-148256071D01*
X243480714Y-148327500D01*
X244123571Y-149113214D02*
X244195000Y-149184642D01*
X244123571Y-149256071D01*
X244052142Y-149184642D01*
X244123571Y-149113214D01*
X244123571Y-149256071D01*
X244123571Y-148327500D02*
X244195000Y-148398928D01*
X244123571Y-148470357D01*
X244052142Y-148398928D01*
X244123571Y-148327500D01*
X244123571Y-148470357D01*
X246266428Y-147756071D02*
X246409285Y-147756071D01*
X246552142Y-147827500D01*
X246623571Y-147898928D01*
X246695000Y-148041785D01*
X246766428Y-148327500D01*
X246766428Y-148684642D01*
X246695000Y-148970357D01*
X246623571Y-149113214D01*
X246552142Y-149184642D01*
X246409285Y-149256071D01*
X246266428Y-149256071D01*
X246123571Y-149184642D01*
X246052142Y-149113214D01*
X245980714Y-148970357D01*
X245909285Y-148684642D01*
X245909285Y-148327500D01*
X245980714Y-148041785D01*
X246052142Y-147898928D01*
X246123571Y-147827500D01*
X246266428Y-147756071D01*
X247409285Y-149113214D02*
X247480714Y-149184642D01*
X247409285Y-149256071D01*
X247337857Y-149184642D01*
X247409285Y-149113214D01*
X247409285Y-149256071D01*
X247980714Y-147756071D02*
X248909285Y-147756071D01*
X248409285Y-148327500D01*
X248623571Y-148327500D01*
X248766428Y-148398928D01*
X248837857Y-148470357D01*
X248909285Y-148613214D01*
X248909285Y-148970357D01*
X248837857Y-149113214D01*
X248766428Y-149184642D01*
X248623571Y-149256071D01*
X248195000Y-149256071D01*
X248052142Y-149184642D01*
X247980714Y-149113214D01*
X249552142Y-149256071D02*
X249552142Y-148256071D01*
X249552142Y-148398928D02*
X249623571Y-148327500D01*
X249766428Y-148256071D01*
X249980714Y-148256071D01*
X250123571Y-148327500D01*
X250195000Y-148470357D01*
X250195000Y-149256071D01*
X250195000Y-148470357D02*
X250266428Y-148327500D01*
X250409285Y-148256071D01*
X250623571Y-148256071D01*
X250766428Y-148327500D01*
X250837857Y-148470357D01*
X250837857Y-149256071D01*
X251552142Y-149256071D02*
X251552142Y-148256071D01*
X251552142Y-148398928D02*
X251623571Y-148327500D01*
X251766428Y-148256071D01*
X251980714Y-148256071D01*
X252123571Y-148327500D01*
X252195000Y-148470357D01*
X252195000Y-149256071D01*
X252195000Y-148470357D02*
X252266428Y-148327500D01*
X252409285Y-148256071D01*
X252623571Y-148256071D01*
X252766428Y-148327500D01*
X252837857Y-148470357D01*
X252837857Y-149256071D01*
X235195000Y-151099642D02*
X236337857Y-151099642D01*
X238195000Y-151671071D02*
X238195000Y-150171071D01*
X238766428Y-150171071D01*
X238909285Y-150242500D01*
X238980714Y-150313928D01*
X239052142Y-150456785D01*
X239052142Y-150671071D01*
X238980714Y-150813928D01*
X238909285Y-150885357D01*
X238766428Y-150956785D01*
X238195000Y-150956785D01*
X239909285Y-151671071D02*
X239766428Y-151599642D01*
X239695000Y-151528214D01*
X239623571Y-151385357D01*
X239623571Y-150956785D01*
X239695000Y-150813928D01*
X239766428Y-150742500D01*
X239909285Y-150671071D01*
X240123571Y-150671071D01*
X240266428Y-150742500D01*
X240337857Y-150813928D01*
X240409285Y-150956785D01*
X240409285Y-151385357D01*
X240337857Y-151528214D01*
X240266428Y-151599642D01*
X240123571Y-151671071D01*
X239909285Y-151671071D01*
X240909285Y-150671071D02*
X241195000Y-151671071D01*
X241480714Y-150956785D01*
X241766428Y-151671071D01*
X242052142Y-150671071D01*
X243195000Y-151599642D02*
X243052142Y-151671071D01*
X242766428Y-151671071D01*
X242623571Y-151599642D01*
X242552142Y-151456785D01*
X242552142Y-150885357D01*
X242623571Y-150742500D01*
X242766428Y-150671071D01*
X243052142Y-150671071D01*
X243195000Y-150742500D01*
X243266428Y-150885357D01*
X243266428Y-151028214D01*
X242552142Y-151171071D01*
X243909285Y-151671071D02*
X243909285Y-150671071D01*
X243909285Y-150956785D02*
X243980714Y-150813928D01*
X244052142Y-150742500D01*
X244195000Y-150671071D01*
X244337857Y-150671071D01*
X244837857Y-151528214D02*
X244909285Y-151599642D01*
X244837857Y-151671071D01*
X244766428Y-151599642D01*
X244837857Y-151528214D01*
X244837857Y-151671071D01*
X244837857Y-150742500D02*
X244909285Y-150813928D01*
X244837857Y-150885357D01*
X244766428Y-150813928D01*
X244837857Y-150742500D01*
X244837857Y-150885357D01*
X246980714Y-150171071D02*
X247123571Y-150171071D01*
X247266428Y-150242500D01*
X247337857Y-150313928D01*
X247409285Y-150456785D01*
X247480714Y-150742500D01*
X247480714Y-151099642D01*
X247409285Y-151385357D01*
X247337857Y-151528214D01*
X247266428Y-151599642D01*
X247123571Y-151671071D01*
X246980714Y-151671071D01*
X246837857Y-151599642D01*
X246766428Y-151528214D01*
X246695000Y-151385357D01*
X246623571Y-151099642D01*
X246623571Y-150742500D01*
X246695000Y-150456785D01*
X246766428Y-150313928D01*
X246837857Y-150242500D01*
X246980714Y-150171071D01*
X248123571Y-151528214D02*
X248195000Y-151599642D01*
X248123571Y-151671071D01*
X248052142Y-151599642D01*
X248123571Y-151528214D01*
X248123571Y-151671071D01*
X249552142Y-150171071D02*
X248837857Y-150171071D01*
X248766428Y-150885357D01*
X248837857Y-150813928D01*
X248980714Y-150742500D01*
X249337857Y-150742500D01*
X249480714Y-150813928D01*
X249552142Y-150885357D01*
X249623571Y-151028214D01*
X249623571Y-151385357D01*
X249552142Y-151528214D01*
X249480714Y-151599642D01*
X249337857Y-151671071D01*
X248980714Y-151671071D01*
X248837857Y-151599642D01*
X248766428Y-151528214D01*
X250266428Y-151671071D02*
X250266428Y-150671071D01*
X250266428Y-150813928D02*
X250337857Y-150742500D01*
X250480714Y-150671071D01*
X250695000Y-150671071D01*
X250837857Y-150742500D01*
X250909285Y-150885357D01*
X250909285Y-151671071D01*
X250909285Y-150885357D02*
X250980714Y-150742500D01*
X251123571Y-150671071D01*
X251337857Y-150671071D01*
X251480714Y-150742500D01*
X251552142Y-150885357D01*
X251552142Y-151671071D01*
X252266428Y-151671071D02*
X252266428Y-150671071D01*
X252266428Y-150813928D02*
X252337857Y-150742500D01*
X252480714Y-150671071D01*
X252695000Y-150671071D01*
X252837857Y-150742500D01*
X252909285Y-150885357D01*
X252909285Y-151671071D01*
X252909285Y-150885357D02*
X252980714Y-150742500D01*
X253123571Y-150671071D01*
X253337857Y-150671071D01*
X253480714Y-150742500D01*
X253552142Y-150885357D01*
X253552142Y-151671071D01*
X235195000Y-153514642D02*
X236337857Y-153514642D01*
X238909285Y-152586071D02*
X238195000Y-152586071D01*
X238123571Y-153300357D01*
X238195000Y-153228928D01*
X238337857Y-153157500D01*
X238695000Y-153157500D01*
X238837857Y-153228928D01*
X238909285Y-153300357D01*
X238980714Y-153443214D01*
X238980714Y-153800357D01*
X238909285Y-153943214D01*
X238837857Y-154014642D01*
X238695000Y-154086071D01*
X238337857Y-154086071D01*
X238195000Y-154014642D01*
X238123571Y-153943214D01*
X239909285Y-152586071D02*
X240052142Y-152586071D01*
X240195000Y-152657500D01*
X240266428Y-152728928D01*
X240337857Y-152871785D01*
X240409285Y-153157500D01*
X240409285Y-153514642D01*
X240337857Y-153800357D01*
X240266428Y-153943214D01*
X240195000Y-154014642D01*
X240052142Y-154086071D01*
X239909285Y-154086071D01*
X239766428Y-154014642D01*
X239695000Y-153943214D01*
X239623571Y-153800357D01*
X239552142Y-153514642D01*
X239552142Y-153157500D01*
X239623571Y-152871785D01*
X239695000Y-152728928D01*
X239766428Y-152657500D01*
X239909285Y-152586071D01*
X242480714Y-152586071D02*
X242766428Y-152586071D01*
X242909285Y-152657500D01*
X243052142Y-152800357D01*
X243123571Y-153086071D01*
X243123571Y-153586071D01*
X243052142Y-153871785D01*
X242909285Y-154014642D01*
X242766428Y-154086071D01*
X242480714Y-154086071D01*
X242337857Y-154014642D01*
X242195000Y-153871785D01*
X242123571Y-153586071D01*
X242123571Y-153086071D01*
X242195000Y-152800357D01*
X242337857Y-152657500D01*
X242480714Y-152586071D01*
X243766428Y-154086071D02*
X243766428Y-152586071D01*
X244409285Y-154086071D02*
X244409285Y-153300357D01*
X244337857Y-153157500D01*
X244195000Y-153086071D01*
X243980714Y-153086071D01*
X243837857Y-153157500D01*
X243766428Y-153228928D01*
X245123571Y-154086071D02*
X245123571Y-153086071D01*
X245123571Y-153228928D02*
X245195000Y-153157500D01*
X245337857Y-153086071D01*
X245552142Y-153086071D01*
X245695000Y-153157500D01*
X245766428Y-153300357D01*
X245766428Y-154086071D01*
X245766428Y-153300357D02*
X245837857Y-153157500D01*
X245980714Y-153086071D01*
X246195000Y-153086071D01*
X246337857Y-153157500D01*
X246409285Y-153300357D01*
X246409285Y-154086071D01*
X247123571Y-153943214D02*
X247195000Y-154014642D01*
X247123571Y-154086071D01*
X247052142Y-154014642D01*
X247123571Y-153943214D01*
X247123571Y-154086071D01*
X247123571Y-153157500D02*
X247195000Y-153228928D01*
X247123571Y-153300357D01*
X247052142Y-153228928D01*
X247123571Y-153157500D01*
X247123571Y-153300357D01*
X249266428Y-152586071D02*
X249409285Y-152586071D01*
X249552142Y-152657500D01*
X249623571Y-152728928D01*
X249695000Y-152871785D01*
X249766428Y-153157500D01*
X249766428Y-153514642D01*
X249695000Y-153800357D01*
X249623571Y-153943214D01*
X249552142Y-154014642D01*
X249409285Y-154086071D01*
X249266428Y-154086071D01*
X249123571Y-154014642D01*
X249052142Y-153943214D01*
X248980714Y-153800357D01*
X248909285Y-153514642D01*
X248909285Y-153157500D01*
X248980714Y-152871785D01*
X249052142Y-152728928D01*
X249123571Y-152657500D01*
X249266428Y-152586071D01*
X250409285Y-153943214D02*
X250480714Y-154014642D01*
X250409285Y-154086071D01*
X250337857Y-154014642D01*
X250409285Y-153943214D01*
X250409285Y-154086071D01*
X251052142Y-152728928D02*
X251123571Y-152657500D01*
X251266428Y-152586071D01*
X251623571Y-152586071D01*
X251766428Y-152657500D01*
X251837857Y-152728928D01*
X251909285Y-152871785D01*
X251909285Y-153014642D01*
X251837857Y-153228928D01*
X250980714Y-154086071D01*
X251909285Y-154086071D01*
X252623571Y-154086071D02*
X252909285Y-154086071D01*
X253052142Y-154014642D01*
X253123571Y-153943214D01*
X253266428Y-153728928D01*
X253337857Y-153443214D01*
X253337857Y-152871785D01*
X253266428Y-152728928D01*
X253195000Y-152657500D01*
X253052142Y-152586071D01*
X252766428Y-152586071D01*
X252623571Y-152657500D01*
X252552142Y-152728928D01*
X252480714Y-152871785D01*
X252480714Y-153228928D01*
X252552142Y-153371785D01*
X252623571Y-153443214D01*
X252766428Y-153514642D01*
X253052142Y-153514642D01*
X253195000Y-153443214D01*
X253266428Y-153371785D01*
X253337857Y-153228928D01*
X253837857Y-152586071D02*
X254766428Y-152586071D01*
X254266428Y-153157500D01*
X254480714Y-153157500D01*
X254623571Y-153228928D01*
X254695000Y-153300357D01*
X254766428Y-153443214D01*
X254766428Y-153800357D01*
X254695000Y-153943214D01*
X254623571Y-154014642D01*
X254480714Y-154086071D01*
X254052142Y-154086071D01*
X253909285Y-154014642D01*
X253837857Y-153943214D01*
X255266428Y-152586071D02*
X256195000Y-152586071D01*
X255695000Y-153157500D01*
X255909285Y-153157500D01*
X256052142Y-153228928D01*
X256123571Y-153300357D01*
X256195000Y-153443214D01*
X256195000Y-153800357D01*
X256123571Y-153943214D01*
X256052142Y-154014642D01*
X255909285Y-154086071D01*
X255480714Y-154086071D01*
X255337857Y-154014642D01*
X255266428Y-153943214D01*
X256695000Y-152586071D02*
X257695000Y-152586071D01*
X257052142Y-154086071D01*
X258266428Y-154086071D02*
X258266428Y-153086071D01*
X258266428Y-153228928D02*
X258337857Y-153157500D01*
X258480714Y-153086071D01*
X258695000Y-153086071D01*
X258837857Y-153157500D01*
X258909285Y-153300357D01*
X258909285Y-154086071D01*
X258909285Y-153300357D02*
X258980714Y-153157500D01*
X259123571Y-153086071D01*
X259337857Y-153086071D01*
X259480714Y-153157500D01*
X259552142Y-153300357D01*
X259552142Y-154086071D01*
X260266428Y-154086071D02*
X260266428Y-153086071D01*
X260266428Y-153228928D02*
X260337857Y-153157500D01*
X260480714Y-153086071D01*
X260695000Y-153086071D01*
X260837857Y-153157500D01*
X260909285Y-153300357D01*
X260909285Y-154086071D01*
X260909285Y-153300357D02*
X260980714Y-153157500D01*
X261123571Y-153086071D01*
X261337857Y-153086071D01*
X261480714Y-153157500D01*
X261552142Y-153300357D01*
X261552142Y-154086071D01*
X263837857Y-154657500D02*
X263766428Y-154586071D01*
X263623571Y-154371785D01*
X263552142Y-154228928D01*
X263480714Y-154014642D01*
X263409285Y-153657500D01*
X263409285Y-153371785D01*
X263480714Y-153014642D01*
X263552142Y-152800357D01*
X263623571Y-152657500D01*
X263766428Y-152443214D01*
X263837857Y-152371785D01*
X265266428Y-153943214D02*
X265195000Y-154014642D01*
X264980714Y-154086071D01*
X264837857Y-154086071D01*
X264623571Y-154014642D01*
X264480714Y-153871785D01*
X264409285Y-153728928D01*
X264337857Y-153443214D01*
X264337857Y-153228928D01*
X264409285Y-152943214D01*
X264480714Y-152800357D01*
X264623571Y-152657500D01*
X264837857Y-152586071D01*
X264980714Y-152586071D01*
X265195000Y-152657500D01*
X265266428Y-152728928D01*
X266123571Y-154086071D02*
X265980714Y-154014642D01*
X265909285Y-153871785D01*
X265909285Y-152586071D01*
X266909285Y-154086071D02*
X266766428Y-154014642D01*
X266695000Y-153943214D01*
X266623571Y-153800357D01*
X266623571Y-153371785D01*
X266695000Y-153228928D01*
X266766428Y-153157500D01*
X266909285Y-153086071D01*
X267123571Y-153086071D01*
X267266428Y-153157500D01*
X267337857Y-153228928D01*
X267409285Y-153371785D01*
X267409285Y-153800357D01*
X267337857Y-153943214D01*
X267266428Y-154014642D01*
X267123571Y-154086071D01*
X266909285Y-154086071D01*
X268695000Y-154014642D02*
X268552142Y-154086071D01*
X268266428Y-154086071D01*
X268123571Y-154014642D01*
X268052142Y-153943214D01*
X267980714Y-153800357D01*
X267980714Y-153371785D01*
X268052142Y-153228928D01*
X268123571Y-153157500D01*
X268266428Y-153086071D01*
X268552142Y-153086071D01*
X268695000Y-153157500D01*
X269337857Y-154086071D02*
X269337857Y-152586071D01*
X269480714Y-153514642D02*
X269909285Y-154086071D01*
X269909285Y-153086071D02*
X269337857Y-153657500D01*
X270766428Y-153943214D02*
X270837857Y-154014642D01*
X270766428Y-154086071D01*
X270695000Y-154014642D01*
X270766428Y-153943214D01*
X270766428Y-154086071D01*
X270480714Y-152657500D02*
X270623571Y-152586071D01*
X270980714Y-152586071D01*
X271123571Y-152657500D01*
X271195000Y-152800357D01*
X271195000Y-152943214D01*
X271123571Y-153086071D01*
X271052142Y-153157500D01*
X270909285Y-153228928D01*
X270837857Y-153300357D01*
X270766428Y-153443214D01*
X270766428Y-153514642D01*
X271695000Y-154657500D02*
X271766428Y-154586071D01*
X271909285Y-154371785D01*
X271980714Y-154228928D01*
X272052142Y-154014642D01*
X272123571Y-153657500D01*
X272123571Y-153371785D01*
X272052142Y-153014642D01*
X271980714Y-152800357D01*
X271909285Y-152657500D01*
X271766428Y-152443214D01*
X271695000Y-152371785D01*
X229552142Y-155929642D02*
X230695000Y-155929642D01*
X232552142Y-156501071D02*
X232552142Y-155001071D01*
X232909285Y-155001071D01*
X233123571Y-155072500D01*
X233266428Y-155215357D01*
X233337857Y-155358214D01*
X233409285Y-155643928D01*
X233409285Y-155858214D01*
X233337857Y-156143928D01*
X233266428Y-156286785D01*
X233123571Y-156429642D01*
X232909285Y-156501071D01*
X232552142Y-156501071D01*
X234052142Y-156501071D02*
X234052142Y-155501071D01*
X234052142Y-155001071D02*
X233980714Y-155072500D01*
X234052142Y-155143928D01*
X234123571Y-155072500D01*
X234052142Y-155001071D01*
X234052142Y-155143928D01*
X234552142Y-155501071D02*
X235123571Y-155501071D01*
X234766428Y-156501071D02*
X234766428Y-155215357D01*
X234837857Y-155072500D01*
X234980714Y-155001071D01*
X235123571Y-155001071D01*
X235409285Y-155501071D02*
X235980714Y-155501071D01*
X235623571Y-156501071D02*
X235623571Y-155215357D01*
X235695000Y-155072500D01*
X235837857Y-155001071D01*
X235980714Y-155001071D01*
X237052142Y-156429642D02*
X236909285Y-156501071D01*
X236623571Y-156501071D01*
X236480714Y-156429642D01*
X236409285Y-156286785D01*
X236409285Y-155715357D01*
X236480714Y-155572500D01*
X236623571Y-155501071D01*
X236909285Y-155501071D01*
X237052142Y-155572500D01*
X237123571Y-155715357D01*
X237123571Y-155858214D01*
X236409285Y-156001071D01*
X237766428Y-156501071D02*
X237766428Y-155501071D01*
X237766428Y-155786785D02*
X237837857Y-155643928D01*
X237909285Y-155572500D01*
X238052142Y-155501071D01*
X238195000Y-155501071D01*
X239266428Y-156429642D02*
X239123571Y-156501071D01*
X238837857Y-156501071D01*
X238695000Y-156429642D01*
X238623571Y-156286785D01*
X238623571Y-155715357D01*
X238695000Y-155572500D01*
X238837857Y-155501071D01*
X239123571Y-155501071D01*
X239266428Y-155572500D01*
X239337857Y-155715357D01*
X239337857Y-155858214D01*
X238623571Y-156001071D01*
X239980714Y-155501071D02*
X239980714Y-156501071D01*
X239980714Y-155643928D02*
X240052142Y-155572500D01*
X240195000Y-155501071D01*
X240409285Y-155501071D01*
X240552142Y-155572500D01*
X240623571Y-155715357D01*
X240623571Y-156501071D01*
X241123571Y-155501071D02*
X241695000Y-155501071D01*
X241337857Y-155001071D02*
X241337857Y-156286785D01*
X241409285Y-156429642D01*
X241552142Y-156501071D01*
X241695000Y-156501071D01*
X242195000Y-156501071D02*
X242195000Y-155501071D01*
X242195000Y-155001071D02*
X242123571Y-155072500D01*
X242195000Y-155143928D01*
X242266428Y-155072500D01*
X242195000Y-155001071D01*
X242195000Y-155143928D01*
X243552142Y-156501071D02*
X243552142Y-155715357D01*
X243480714Y-155572500D01*
X243337857Y-155501071D01*
X243052142Y-155501071D01*
X242909285Y-155572500D01*
X243552142Y-156429642D02*
X243409285Y-156501071D01*
X243052142Y-156501071D01*
X242909285Y-156429642D01*
X242837857Y-156286785D01*
X242837857Y-156143928D01*
X242909285Y-156001071D01*
X243052142Y-155929642D01*
X243409285Y-155929642D01*
X243552142Y-155858214D01*
X244480714Y-156501071D02*
X244337857Y-156429642D01*
X244266428Y-156286785D01*
X244266428Y-155001071D01*
X245980714Y-155001071D02*
X246837857Y-155001071D01*
X246409285Y-156501071D02*
X246409285Y-155001071D01*
X247337857Y-156501071D02*
X247337857Y-155501071D01*
X247337857Y-155786785D02*
X247409285Y-155643928D01*
X247480714Y-155572500D01*
X247623571Y-155501071D01*
X247766428Y-155501071D01*
X248909285Y-156501071D02*
X248909285Y-155715357D01*
X248837857Y-155572500D01*
X248695000Y-155501071D01*
X248409285Y-155501071D01*
X248266428Y-155572500D01*
X248909285Y-156429642D02*
X248766428Y-156501071D01*
X248409285Y-156501071D01*
X248266428Y-156429642D01*
X248195000Y-156286785D01*
X248195000Y-156143928D01*
X248266428Y-156001071D01*
X248409285Y-155929642D01*
X248766428Y-155929642D01*
X248909285Y-155858214D01*
X250266428Y-156429642D02*
X250123571Y-156501071D01*
X249837857Y-156501071D01*
X249695000Y-156429642D01*
X249623571Y-156358214D01*
X249552142Y-156215357D01*
X249552142Y-155786785D01*
X249623571Y-155643928D01*
X249695000Y-155572500D01*
X249837857Y-155501071D01*
X250123571Y-155501071D01*
X250266428Y-155572500D01*
X251480714Y-156429642D02*
X251337857Y-156501071D01*
X251052142Y-156501071D01*
X250909285Y-156429642D01*
X250837857Y-156286785D01*
X250837857Y-155715357D01*
X250909285Y-155572500D01*
X251052142Y-155501071D01*
X251337857Y-155501071D01*
X251480714Y-155572500D01*
X251552142Y-155715357D01*
X251552142Y-155858214D01*
X250837857Y-156001071D01*
X253195000Y-155001071D02*
X253552142Y-156501071D01*
X253837857Y-155429642D01*
X254123571Y-156501071D01*
X254480714Y-155001071D01*
X255052142Y-156501071D02*
X255052142Y-155501071D01*
X255052142Y-155001071D02*
X254980714Y-155072500D01*
X255052142Y-155143928D01*
X255123571Y-155072500D01*
X255052142Y-155001071D01*
X255052142Y-155143928D01*
X256409285Y-156501071D02*
X256409285Y-155001071D01*
X256409285Y-156429642D02*
X256266428Y-156501071D01*
X255980714Y-156501071D01*
X255837857Y-156429642D01*
X255766428Y-156358214D01*
X255695000Y-156215357D01*
X255695000Y-155786785D01*
X255766428Y-155643928D01*
X255837857Y-155572500D01*
X255980714Y-155501071D01*
X256266428Y-155501071D01*
X256409285Y-155572500D01*
X256909285Y-155501071D02*
X257480714Y-155501071D01*
X257123571Y-155001071D02*
X257123571Y-156286785D01*
X257195000Y-156429642D01*
X257337857Y-156501071D01*
X257480714Y-156501071D01*
X257980714Y-156501071D02*
X257980714Y-155001071D01*
X258623571Y-156501071D02*
X258623571Y-155715357D01*
X258552142Y-155572500D01*
X258409285Y-155501071D01*
X258195000Y-155501071D01*
X258052142Y-155572500D01*
X257980714Y-155643928D01*
X259266428Y-156429642D02*
X259409285Y-156501071D01*
X259695000Y-156501071D01*
X259837857Y-156429642D01*
X259909285Y-156286785D01*
X259909285Y-156215357D01*
X259837857Y-156072500D01*
X259695000Y-156001071D01*
X259480714Y-156001071D01*
X259337857Y-155929642D01*
X259266428Y-155786785D01*
X259266428Y-155715357D01*
X259337857Y-155572500D01*
X259480714Y-155501071D01*
X259695000Y-155501071D01*
X259837857Y-155572500D01*
X235195000Y-158344642D02*
X236337857Y-158344642D01*
X238980714Y-158916071D02*
X238123571Y-158916071D01*
X238552142Y-158916071D02*
X238552142Y-157416071D01*
X238409285Y-157630357D01*
X238266428Y-157773214D01*
X238123571Y-157844642D01*
X239552142Y-157558928D02*
X239623571Y-157487500D01*
X239766428Y-157416071D01*
X240123571Y-157416071D01*
X240266428Y-157487500D01*
X240337857Y-157558928D01*
X240409285Y-157701785D01*
X240409285Y-157844642D01*
X240337857Y-158058928D01*
X239480714Y-158916071D01*
X240409285Y-158916071D01*
X241337857Y-157416071D02*
X241480714Y-157416071D01*
X241623571Y-157487500D01*
X241695000Y-157558928D01*
X241766428Y-157701785D01*
X241837857Y-157987500D01*
X241837857Y-158344642D01*
X241766428Y-158630357D01*
X241695000Y-158773214D01*
X241623571Y-158844642D01*
X241480714Y-158916071D01*
X241337857Y-158916071D01*
X241195000Y-158844642D01*
X241123571Y-158773214D01*
X241052142Y-158630357D01*
X240980714Y-158344642D01*
X240980714Y-157987500D01*
X241052142Y-157701785D01*
X241123571Y-157558928D01*
X241195000Y-157487500D01*
X241337857Y-157416071D01*
X243909285Y-157416071D02*
X244195000Y-157416071D01*
X244337857Y-157487500D01*
X244480714Y-157630357D01*
X244552142Y-157916071D01*
X244552142Y-158416071D01*
X244480714Y-158701785D01*
X244337857Y-158844642D01*
X244195000Y-158916071D01*
X243909285Y-158916071D01*
X243766428Y-158844642D01*
X243623571Y-158701785D01*
X243552142Y-158416071D01*
X243552142Y-157916071D01*
X243623571Y-157630357D01*
X243766428Y-157487500D01*
X243909285Y-157416071D01*
X245195000Y-158916071D02*
X245195000Y-157416071D01*
X245837857Y-158916071D02*
X245837857Y-158130357D01*
X245766428Y-157987500D01*
X245623571Y-157916071D01*
X245409285Y-157916071D01*
X245266428Y-157987500D01*
X245195000Y-158058928D01*
X246552142Y-158916071D02*
X246552142Y-157916071D01*
X246552142Y-158058928D02*
X246623571Y-157987500D01*
X246766428Y-157916071D01*
X246980714Y-157916071D01*
X247123571Y-157987500D01*
X247195000Y-158130357D01*
X247195000Y-158916071D01*
X247195000Y-158130357D02*
X247266428Y-157987500D01*
X247409285Y-157916071D01*
X247623571Y-157916071D01*
X247766428Y-157987500D01*
X247837857Y-158130357D01*
X247837857Y-158916071D01*
X248552142Y-158773214D02*
X248623571Y-158844642D01*
X248552142Y-158916071D01*
X248480714Y-158844642D01*
X248552142Y-158773214D01*
X248552142Y-158916071D01*
X248552142Y-157987500D02*
X248623571Y-158058928D01*
X248552142Y-158130357D01*
X248480714Y-158058928D01*
X248552142Y-157987500D01*
X248552142Y-158130357D01*
X250695000Y-157416071D02*
X250837857Y-157416071D01*
X250980714Y-157487500D01*
X251052142Y-157558928D01*
X251123571Y-157701785D01*
X251195000Y-157987500D01*
X251195000Y-158344642D01*
X251123571Y-158630357D01*
X251052142Y-158773214D01*
X250980714Y-158844642D01*
X250837857Y-158916071D01*
X250695000Y-158916071D01*
X250552142Y-158844642D01*
X250480714Y-158773214D01*
X250409285Y-158630357D01*
X250337857Y-158344642D01*
X250337857Y-157987500D01*
X250409285Y-157701785D01*
X250480714Y-157558928D01*
X250552142Y-157487500D01*
X250695000Y-157416071D01*
X251837857Y-158773214D02*
X251909285Y-158844642D01*
X251837857Y-158916071D01*
X251766428Y-158844642D01*
X251837857Y-158773214D01*
X251837857Y-158916071D01*
X253337857Y-158916071D02*
X252480714Y-158916071D01*
X252909285Y-158916071D02*
X252909285Y-157416071D01*
X252766428Y-157630357D01*
X252623571Y-157773214D01*
X252480714Y-157844642D01*
X253909285Y-157558928D02*
X253980714Y-157487500D01*
X254123571Y-157416071D01*
X254480714Y-157416071D01*
X254623571Y-157487500D01*
X254695000Y-157558928D01*
X254766428Y-157701785D01*
X254766428Y-157844642D01*
X254695000Y-158058928D01*
X253837857Y-158916071D01*
X254766428Y-158916071D01*
X256052142Y-157416071D02*
X255766428Y-157416071D01*
X255623571Y-157487500D01*
X255552142Y-157558928D01*
X255409285Y-157773214D01*
X255337857Y-158058928D01*
X255337857Y-158630357D01*
X255409285Y-158773214D01*
X255480714Y-158844642D01*
X255623571Y-158916071D01*
X255909285Y-158916071D01*
X256052142Y-158844642D01*
X256123571Y-158773214D01*
X256195000Y-158630357D01*
X256195000Y-158273214D01*
X256123571Y-158130357D01*
X256052142Y-158058928D01*
X255909285Y-157987500D01*
X255623571Y-157987500D01*
X255480714Y-158058928D01*
X255409285Y-158130357D01*
X255337857Y-158273214D01*
X256766428Y-157558928D02*
X256837857Y-157487500D01*
X256980714Y-157416071D01*
X257337857Y-157416071D01*
X257480714Y-157487500D01*
X257552142Y-157558928D01*
X257623571Y-157701785D01*
X257623571Y-157844642D01*
X257552142Y-158058928D01*
X256695000Y-158916071D01*
X257623571Y-158916071D01*
X258123571Y-157416071D02*
X259052142Y-157416071D01*
X258552142Y-157987500D01*
X258766428Y-157987500D01*
X258909285Y-158058928D01*
X258980714Y-158130357D01*
X259052142Y-158273214D01*
X259052142Y-158630357D01*
X258980714Y-158773214D01*
X258909285Y-158844642D01*
X258766428Y-158916071D01*
X258337857Y-158916071D01*
X258195000Y-158844642D01*
X258123571Y-158773214D01*
X259909285Y-158058928D02*
X259766428Y-157987500D01*
X259695000Y-157916071D01*
X259623571Y-157773214D01*
X259623571Y-157701785D01*
X259695000Y-157558928D01*
X259766428Y-157487500D01*
X259909285Y-157416071D01*
X260195000Y-157416071D01*
X260337857Y-157487500D01*
X260409285Y-157558928D01*
X260480714Y-157701785D01*
X260480714Y-157773214D01*
X260409285Y-157916071D01*
X260337857Y-157987500D01*
X260195000Y-158058928D01*
X259909285Y-158058928D01*
X259766428Y-158130357D01*
X259695000Y-158201785D01*
X259623571Y-158344642D01*
X259623571Y-158630357D01*
X259695000Y-158773214D01*
X259766428Y-158844642D01*
X259909285Y-158916071D01*
X260195000Y-158916071D01*
X260337857Y-158844642D01*
X260409285Y-158773214D01*
X260480714Y-158630357D01*
X260480714Y-158344642D01*
X260409285Y-158201785D01*
X260337857Y-158130357D01*
X260195000Y-158058928D01*
X261123571Y-158916071D02*
X261123571Y-157916071D01*
X261123571Y-158058928D02*
X261195000Y-157987500D01*
X261337857Y-157916071D01*
X261552142Y-157916071D01*
X261695000Y-157987500D01*
X261766428Y-158130357D01*
X261766428Y-158916071D01*
X261766428Y-158130357D02*
X261837857Y-157987500D01*
X261980714Y-157916071D01*
X262195000Y-157916071D01*
X262337857Y-157987500D01*
X262409285Y-158130357D01*
X262409285Y-158916071D01*
X263123571Y-158916071D02*
X263123571Y-157916071D01*
X263123571Y-158058928D02*
X263195000Y-157987500D01*
X263337857Y-157916071D01*
X263552142Y-157916071D01*
X263695000Y-157987500D01*
X263766428Y-158130357D01*
X263766428Y-158916071D01*
X263766428Y-158130357D02*
X263837857Y-157987500D01*
X263980714Y-157916071D01*
X264195000Y-157916071D01*
X264337857Y-157987500D01*
X264409285Y-158130357D01*
X264409285Y-158916071D01*
X266695000Y-159487500D02*
X266623571Y-159416071D01*
X266480714Y-159201785D01*
X266409285Y-159058928D01*
X266337857Y-158844642D01*
X266266428Y-158487500D01*
X266266428Y-158201785D01*
X266337857Y-157844642D01*
X266409285Y-157630357D01*
X266480714Y-157487500D01*
X266623571Y-157273214D01*
X266695000Y-157201785D01*
X268123571Y-158773214D02*
X268052142Y-158844642D01*
X267837857Y-158916071D01*
X267695000Y-158916071D01*
X267480714Y-158844642D01*
X267337857Y-158701785D01*
X267266428Y-158558928D01*
X267195000Y-158273214D01*
X267195000Y-158058928D01*
X267266428Y-157773214D01*
X267337857Y-157630357D01*
X267480714Y-157487500D01*
X267695000Y-157416071D01*
X267837857Y-157416071D01*
X268052142Y-157487500D01*
X268123571Y-157558928D01*
X268695000Y-158487500D02*
X269409285Y-158487500D01*
X268552142Y-158916071D02*
X269052142Y-157416071D01*
X269552142Y-158916071D01*
X270052142Y-158916071D02*
X270052142Y-157416071D01*
X270909285Y-158916071D01*
X270909285Y-157416071D01*
X272766428Y-158916071D02*
X272766428Y-157416071D01*
X272766428Y-157987500D02*
X272909285Y-157916071D01*
X273195000Y-157916071D01*
X273337857Y-157987500D01*
X273409285Y-158058928D01*
X273480714Y-158201785D01*
X273480714Y-158630357D01*
X273409285Y-158773214D01*
X273337857Y-158844642D01*
X273195000Y-158916071D01*
X272909285Y-158916071D01*
X272766428Y-158844642D01*
X274766428Y-157916071D02*
X274766428Y-158916071D01*
X274123571Y-157916071D02*
X274123571Y-158701785D01*
X274195000Y-158844642D01*
X274337857Y-158916071D01*
X274552142Y-158916071D01*
X274695000Y-158844642D01*
X274766428Y-158773214D01*
X275409285Y-158844642D02*
X275552142Y-158916071D01*
X275837857Y-158916071D01*
X275980714Y-158844642D01*
X276052142Y-158701785D01*
X276052142Y-158630357D01*
X275980714Y-158487500D01*
X275837857Y-158416071D01*
X275623571Y-158416071D01*
X275480714Y-158344642D01*
X275409285Y-158201785D01*
X275409285Y-158130357D01*
X275480714Y-157987500D01*
X275623571Y-157916071D01*
X275837857Y-157916071D01*
X275980714Y-157987500D01*
X276552142Y-159487500D02*
X276623571Y-159416071D01*
X276766428Y-159201785D01*
X276837857Y-159058928D01*
X276909285Y-158844642D01*
X276980714Y-158487500D01*
X276980714Y-158201785D01*
X276909285Y-157844642D01*
X276837857Y-157630357D01*
X276766428Y-157487500D01*
X276623571Y-157273214D01*
X276552142Y-157201785D01*
X235195000Y-160759642D02*
X236337857Y-160759642D01*
X238266428Y-161331071D02*
X238552142Y-161331071D01*
X238695000Y-161259642D01*
X238766428Y-161188214D01*
X238909285Y-160973928D01*
X238980714Y-160688214D01*
X238980714Y-160116785D01*
X238909285Y-159973928D01*
X238837857Y-159902500D01*
X238695000Y-159831071D01*
X238409285Y-159831071D01*
X238266428Y-159902500D01*
X238195000Y-159973928D01*
X238123571Y-160116785D01*
X238123571Y-160473928D01*
X238195000Y-160616785D01*
X238266428Y-160688214D01*
X238409285Y-160759642D01*
X238695000Y-160759642D01*
X238837857Y-160688214D01*
X238909285Y-160616785D01*
X238980714Y-160473928D01*
X239909285Y-159831071D02*
X240052142Y-159831071D01*
X240195000Y-159902500D01*
X240266428Y-159973928D01*
X240337857Y-160116785D01*
X240409285Y-160402500D01*
X240409285Y-160759642D01*
X240337857Y-161045357D01*
X240266428Y-161188214D01*
X240195000Y-161259642D01*
X240052142Y-161331071D01*
X239909285Y-161331071D01*
X239766428Y-161259642D01*
X239695000Y-161188214D01*
X239623571Y-161045357D01*
X239552142Y-160759642D01*
X239552142Y-160402500D01*
X239623571Y-160116785D01*
X239695000Y-159973928D01*
X239766428Y-159902500D01*
X239909285Y-159831071D01*
X242480714Y-159831071D02*
X242766428Y-159831071D01*
X242909285Y-159902500D01*
X243052142Y-160045357D01*
X243123571Y-160331071D01*
X243123571Y-160831071D01*
X243052142Y-161116785D01*
X242909285Y-161259642D01*
X242766428Y-161331071D01*
X242480714Y-161331071D01*
X242337857Y-161259642D01*
X242195000Y-161116785D01*
X242123571Y-160831071D01*
X242123571Y-160331071D01*
X242195000Y-160045357D01*
X242337857Y-159902500D01*
X242480714Y-159831071D01*
X243766428Y-161331071D02*
X243766428Y-159831071D01*
X244409285Y-161331071D02*
X244409285Y-160545357D01*
X244337857Y-160402500D01*
X244195000Y-160331071D01*
X243980714Y-160331071D01*
X243837857Y-160402500D01*
X243766428Y-160473928D01*
X245123571Y-161331071D02*
X245123571Y-160331071D01*
X245123571Y-160473928D02*
X245195000Y-160402500D01*
X245337857Y-160331071D01*
X245552142Y-160331071D01*
X245695000Y-160402500D01*
X245766428Y-160545357D01*
X245766428Y-161331071D01*
X245766428Y-160545357D02*
X245837857Y-160402500D01*
X245980714Y-160331071D01*
X246195000Y-160331071D01*
X246337857Y-160402500D01*
X246409285Y-160545357D01*
X246409285Y-161331071D01*
X247123571Y-161188214D02*
X247195000Y-161259642D01*
X247123571Y-161331071D01*
X247052142Y-161259642D01*
X247123571Y-161188214D01*
X247123571Y-161331071D01*
X247123571Y-160402500D02*
X247195000Y-160473928D01*
X247123571Y-160545357D01*
X247052142Y-160473928D01*
X247123571Y-160402500D01*
X247123571Y-160545357D01*
X249266428Y-159831071D02*
X249409285Y-159831071D01*
X249552142Y-159902500D01*
X249623571Y-159973928D01*
X249695000Y-160116785D01*
X249766428Y-160402500D01*
X249766428Y-160759642D01*
X249695000Y-161045357D01*
X249623571Y-161188214D01*
X249552142Y-161259642D01*
X249409285Y-161331071D01*
X249266428Y-161331071D01*
X249123571Y-161259642D01*
X249052142Y-161188214D01*
X248980714Y-161045357D01*
X248909285Y-160759642D01*
X248909285Y-160402500D01*
X248980714Y-160116785D01*
X249052142Y-159973928D01*
X249123571Y-159902500D01*
X249266428Y-159831071D01*
X250409285Y-161188214D02*
X250480714Y-161259642D01*
X250409285Y-161331071D01*
X250337857Y-161259642D01*
X250409285Y-161188214D01*
X250409285Y-161331071D01*
X251052142Y-159973928D02*
X251123571Y-159902500D01*
X251266428Y-159831071D01*
X251623571Y-159831071D01*
X251766428Y-159902500D01*
X251837857Y-159973928D01*
X251909285Y-160116785D01*
X251909285Y-160259642D01*
X251837857Y-160473928D01*
X250980714Y-161331071D01*
X251909285Y-161331071D01*
X253195000Y-159831071D02*
X252909285Y-159831071D01*
X252766428Y-159902500D01*
X252695000Y-159973928D01*
X252552142Y-160188214D01*
X252480714Y-160473928D01*
X252480714Y-161045357D01*
X252552142Y-161188214D01*
X252623571Y-161259642D01*
X252766428Y-161331071D01*
X253052142Y-161331071D01*
X253195000Y-161259642D01*
X253266428Y-161188214D01*
X253337857Y-161045357D01*
X253337857Y-160688214D01*
X253266428Y-160545357D01*
X253195000Y-160473928D01*
X253052142Y-160402500D01*
X252766428Y-160402500D01*
X252623571Y-160473928D01*
X252552142Y-160545357D01*
X252480714Y-160688214D01*
X254766428Y-161331071D02*
X253909285Y-161331071D01*
X254337857Y-161331071D02*
X254337857Y-159831071D01*
X254195000Y-160045357D01*
X254052142Y-160188214D01*
X253909285Y-160259642D01*
X256195000Y-161331071D02*
X255337857Y-161331071D01*
X255766428Y-161331071D02*
X255766428Y-159831071D01*
X255623571Y-160045357D01*
X255480714Y-160188214D01*
X255337857Y-160259642D01*
X257623571Y-161331071D02*
X256766428Y-161331071D01*
X257195000Y-161331071D02*
X257195000Y-159831071D01*
X257052142Y-160045357D01*
X256909285Y-160188214D01*
X256766428Y-160259642D01*
X258195000Y-159973928D02*
X258266428Y-159902500D01*
X258409285Y-159831071D01*
X258766428Y-159831071D01*
X258909285Y-159902500D01*
X258980714Y-159973928D01*
X259052142Y-160116785D01*
X259052142Y-160259642D01*
X258980714Y-160473928D01*
X258123571Y-161331071D01*
X259052142Y-161331071D01*
X259695000Y-161331071D02*
X259695000Y-160331071D01*
X259695000Y-160473928D02*
X259766428Y-160402500D01*
X259909285Y-160331071D01*
X260123571Y-160331071D01*
X260266428Y-160402500D01*
X260337857Y-160545357D01*
X260337857Y-161331071D01*
X260337857Y-160545357D02*
X260409285Y-160402500D01*
X260552142Y-160331071D01*
X260766428Y-160331071D01*
X260909285Y-160402500D01*
X260980714Y-160545357D01*
X260980714Y-161331071D01*
X261695000Y-161331071D02*
X261695000Y-160331071D01*
X261695000Y-160473928D02*
X261766428Y-160402500D01*
X261909285Y-160331071D01*
X262123571Y-160331071D01*
X262266428Y-160402500D01*
X262337857Y-160545357D01*
X262337857Y-161331071D01*
X262337857Y-160545357D02*
X262409285Y-160402500D01*
X262552142Y-160331071D01*
X262766428Y-160331071D01*
X262909285Y-160402500D01*
X262980714Y-160545357D01*
X262980714Y-161331071D01*
X265266428Y-161902500D02*
X265195000Y-161831071D01*
X265052142Y-161616785D01*
X264980714Y-161473928D01*
X264909285Y-161259642D01*
X264837857Y-160902500D01*
X264837857Y-160616785D01*
X264909285Y-160259642D01*
X264980714Y-160045357D01*
X265052142Y-159902500D01*
X265195000Y-159688214D01*
X265266428Y-159616785D01*
X265837857Y-159831071D02*
X265837857Y-161045357D01*
X265909285Y-161188214D01*
X265980714Y-161259642D01*
X266123571Y-161331071D01*
X266409285Y-161331071D01*
X266552142Y-161259642D01*
X266623571Y-161188214D01*
X266695000Y-161045357D01*
X266695000Y-159831071D01*
X267337857Y-161259642D02*
X267552142Y-161331071D01*
X267909285Y-161331071D01*
X268052142Y-161259642D01*
X268123571Y-161188214D01*
X268195000Y-161045357D01*
X268195000Y-160902500D01*
X268123571Y-160759642D01*
X268052142Y-160688214D01*
X267909285Y-160616785D01*
X267623571Y-160545357D01*
X267480714Y-160473928D01*
X267409285Y-160402500D01*
X267337857Y-160259642D01*
X267337857Y-160116785D01*
X267409285Y-159973928D01*
X267480714Y-159902500D01*
X267623571Y-159831071D01*
X267980714Y-159831071D01*
X268195000Y-159902500D01*
X269337857Y-160545357D02*
X269552142Y-160616785D01*
X269623571Y-160688214D01*
X269695000Y-160831071D01*
X269695000Y-161045357D01*
X269623571Y-161188214D01*
X269552142Y-161259642D01*
X269409285Y-161331071D01*
X268837857Y-161331071D01*
X268837857Y-159831071D01*
X269337857Y-159831071D01*
X269480714Y-159902500D01*
X269552142Y-159973928D01*
X269623571Y-160116785D01*
X269623571Y-160259642D01*
X269552142Y-160402500D01*
X269480714Y-160473928D01*
X269337857Y-160545357D01*
X268837857Y-160545357D01*
X270195000Y-161902500D02*
X270266428Y-161831071D01*
X270409285Y-161616785D01*
X270480714Y-161473928D01*
X270552142Y-161259642D01*
X270623571Y-160902500D01*
X270623571Y-160616785D01*
X270552142Y-160259642D01*
X270480714Y-160045357D01*
X270409285Y-159902500D01*
X270266428Y-159688214D01*
X270195000Y-159616785D01*
D10*
X178335595Y-176192380D02*
X178335595Y-175192380D01*
X178907023Y-176192380D01*
X178907023Y-175192380D01*
X179526071Y-176192380D02*
X179430833Y-176144761D01*
X179383214Y-176097142D01*
X179335595Y-176001904D01*
X179335595Y-175716190D01*
X179383214Y-175620952D01*
X179430833Y-175573333D01*
X179526071Y-175525714D01*
X179668928Y-175525714D01*
X179764166Y-175573333D01*
X179811785Y-175620952D01*
X179859404Y-175716190D01*
X179859404Y-176001904D01*
X179811785Y-176097142D01*
X179764166Y-176144761D01*
X179668928Y-176192380D01*
X179526071Y-176192380D01*
X180145119Y-175525714D02*
X180526071Y-175525714D01*
X180287976Y-175192380D02*
X180287976Y-176049523D01*
X180335595Y-176144761D01*
X180430833Y-176192380D01*
X180526071Y-176192380D01*
X181240357Y-176144761D02*
X181145119Y-176192380D01*
X180954642Y-176192380D01*
X180859404Y-176144761D01*
X180811785Y-176049523D01*
X180811785Y-175668571D01*
X180859404Y-175573333D01*
X180954642Y-175525714D01*
X181145119Y-175525714D01*
X181240357Y-175573333D01*
X181287976Y-175668571D01*
X181287976Y-175763809D01*
X180811785Y-175859047D01*
X181668928Y-176144761D02*
X181764166Y-176192380D01*
X181954642Y-176192380D01*
X182049880Y-176144761D01*
X182097500Y-176049523D01*
X182097500Y-176001904D01*
X182049880Y-175906666D01*
X181954642Y-175859047D01*
X181811785Y-175859047D01*
X181716547Y-175811428D01*
X181668928Y-175716190D01*
X181668928Y-175668571D01*
X181716547Y-175573333D01*
X181811785Y-175525714D01*
X181954642Y-175525714D01*
X182049880Y-175573333D01*
X182526071Y-176097142D02*
X182573690Y-176144761D01*
X182526071Y-176192380D01*
X182478452Y-176144761D01*
X182526071Y-176097142D01*
X182526071Y-176192380D01*
X182526071Y-175573333D02*
X182573690Y-175620952D01*
X182526071Y-175668571D01*
X182478452Y-175620952D01*
X182526071Y-175573333D01*
X182526071Y-175668571D01*
X178335595Y-177421428D02*
X179097500Y-177421428D01*
X180192738Y-177135714D02*
X180573690Y-177135714D01*
X180335595Y-177802380D02*
X180335595Y-176945238D01*
X180383214Y-176850000D01*
X180478452Y-176802380D01*
X180573690Y-176802380D01*
X181049880Y-177802380D02*
X180954642Y-177754761D01*
X180907023Y-177707142D01*
X180859404Y-177611904D01*
X180859404Y-177326190D01*
X180907023Y-177230952D01*
X180954642Y-177183333D01*
X181049880Y-177135714D01*
X181192738Y-177135714D01*
X181287976Y-177183333D01*
X181335595Y-177230952D01*
X181383214Y-177326190D01*
X181383214Y-177611904D01*
X181335595Y-177707142D01*
X181287976Y-177754761D01*
X181192738Y-177802380D01*
X181049880Y-177802380D01*
X181811785Y-177802380D02*
X181811785Y-177135714D01*
X181811785Y-177326190D02*
X181859404Y-177230952D01*
X181907023Y-177183333D01*
X182002261Y-177135714D01*
X182097500Y-177135714D01*
X183192738Y-177802380D02*
X183192738Y-177135714D01*
X183192738Y-177326190D02*
X183240357Y-177230952D01*
X183287976Y-177183333D01*
X183383214Y-177135714D01*
X183478452Y-177135714D01*
X183954642Y-177802380D02*
X183859404Y-177754761D01*
X183811785Y-177707142D01*
X183764166Y-177611904D01*
X183764166Y-177326190D01*
X183811785Y-177230952D01*
X183859404Y-177183333D01*
X183954642Y-177135714D01*
X184097500Y-177135714D01*
X184192738Y-177183333D01*
X184240357Y-177230952D01*
X184287976Y-177326190D01*
X184287976Y-177611904D01*
X184240357Y-177707142D01*
X184192738Y-177754761D01*
X184097500Y-177802380D01*
X183954642Y-177802380D01*
X185145119Y-177135714D02*
X185145119Y-177802380D01*
X184716547Y-177135714D02*
X184716547Y-177659523D01*
X184764166Y-177754761D01*
X184859404Y-177802380D01*
X185002261Y-177802380D01*
X185097500Y-177754761D01*
X185145119Y-177707142D01*
X185478452Y-177135714D02*
X185859404Y-177135714D01*
X185621309Y-176802380D02*
X185621309Y-177659523D01*
X185668928Y-177754761D01*
X185764166Y-177802380D01*
X185859404Y-177802380D01*
X186192738Y-177802380D02*
X186192738Y-177135714D01*
X186192738Y-176802380D02*
X186145119Y-176850000D01*
X186192738Y-176897619D01*
X186240357Y-176850000D01*
X186192738Y-176802380D01*
X186192738Y-176897619D01*
X186668928Y-177135714D02*
X186668928Y-177802380D01*
X186668928Y-177230952D02*
X186716547Y-177183333D01*
X186811785Y-177135714D01*
X186954642Y-177135714D01*
X187049880Y-177183333D01*
X187097500Y-177278571D01*
X187097500Y-177802380D01*
X188002261Y-177135714D02*
X188002261Y-177945238D01*
X187954642Y-178040476D01*
X187907023Y-178088095D01*
X187811785Y-178135714D01*
X187668928Y-178135714D01*
X187573690Y-178088095D01*
X188002261Y-177754761D02*
X187907023Y-177802380D01*
X187716547Y-177802380D01*
X187621309Y-177754761D01*
X187573690Y-177707142D01*
X187526071Y-177611904D01*
X187526071Y-177326190D01*
X187573690Y-177230952D01*
X187621309Y-177183333D01*
X187716547Y-177135714D01*
X187907023Y-177135714D01*
X188002261Y-177183333D01*
X188526071Y-177754761D02*
X188526071Y-177802380D01*
X188478452Y-177897619D01*
X188430833Y-177945238D01*
X189716547Y-177802380D02*
X189716547Y-177135714D01*
X189716547Y-177230952D02*
X189764166Y-177183333D01*
X189859404Y-177135714D01*
X190002261Y-177135714D01*
X190097500Y-177183333D01*
X190145119Y-177278571D01*
X190145119Y-177802380D01*
X190145119Y-177278571D02*
X190192738Y-177183333D01*
X190287976Y-177135714D01*
X190430833Y-177135714D01*
X190526071Y-177183333D01*
X190573690Y-177278571D01*
X190573690Y-177802380D01*
X191478452Y-177802380D02*
X191478452Y-177278571D01*
X191430833Y-177183333D01*
X191335595Y-177135714D01*
X191145119Y-177135714D01*
X191049880Y-177183333D01*
X191478452Y-177754761D02*
X191383214Y-177802380D01*
X191145119Y-177802380D01*
X191049880Y-177754761D01*
X191002261Y-177659523D01*
X191002261Y-177564285D01*
X191049880Y-177469047D01*
X191145119Y-177421428D01*
X191383214Y-177421428D01*
X191478452Y-177373809D01*
X191954642Y-177802380D02*
X191954642Y-176802380D01*
X192049880Y-177421428D02*
X192335595Y-177802380D01*
X192335595Y-177135714D02*
X191954642Y-177516666D01*
X193145119Y-177754761D02*
X193049880Y-177802380D01*
X192859404Y-177802380D01*
X192764166Y-177754761D01*
X192716547Y-177659523D01*
X192716547Y-177278571D01*
X192764166Y-177183333D01*
X192859404Y-177135714D01*
X193049880Y-177135714D01*
X193145119Y-177183333D01*
X193192738Y-177278571D01*
X193192738Y-177373809D01*
X192716547Y-177469047D01*
X194335595Y-177754761D02*
X194430833Y-177802380D01*
X194621309Y-177802380D01*
X194716547Y-177754761D01*
X194764166Y-177659523D01*
X194764166Y-177611904D01*
X194716547Y-177516666D01*
X194621309Y-177469047D01*
X194478452Y-177469047D01*
X194383214Y-177421428D01*
X194335595Y-177326190D01*
X194335595Y-177278571D01*
X194383214Y-177183333D01*
X194478452Y-177135714D01*
X194621309Y-177135714D01*
X194716547Y-177183333D01*
X195621309Y-177135714D02*
X195621309Y-177802380D01*
X195192738Y-177135714D02*
X195192738Y-177659523D01*
X195240357Y-177754761D01*
X195335595Y-177802380D01*
X195478452Y-177802380D01*
X195573690Y-177754761D01*
X195621309Y-177707142D01*
X196097500Y-177802380D02*
X196097500Y-177135714D01*
X196097500Y-177326190D02*
X196145119Y-177230952D01*
X196192738Y-177183333D01*
X196287976Y-177135714D01*
X196383214Y-177135714D01*
X197097500Y-177754761D02*
X197002261Y-177802380D01*
X196811785Y-177802380D01*
X196716547Y-177754761D01*
X196668928Y-177659523D01*
X196668928Y-177278571D01*
X196716547Y-177183333D01*
X196811785Y-177135714D01*
X197002261Y-177135714D01*
X197097500Y-177183333D01*
X197145119Y-177278571D01*
X197145119Y-177373809D01*
X196668928Y-177469047D01*
X198192738Y-177135714D02*
X198573690Y-177135714D01*
X198335595Y-176802380D02*
X198335595Y-177659523D01*
X198383214Y-177754761D01*
X198478452Y-177802380D01*
X198573690Y-177802380D01*
X198907023Y-177802380D02*
X198907023Y-176802380D01*
X199335595Y-177802380D02*
X199335595Y-177278571D01*
X199287976Y-177183333D01*
X199192738Y-177135714D01*
X199049880Y-177135714D01*
X198954642Y-177183333D01*
X198907023Y-177230952D01*
X200240357Y-177802380D02*
X200240357Y-177278571D01*
X200192738Y-177183333D01*
X200097500Y-177135714D01*
X199907023Y-177135714D01*
X199811785Y-177183333D01*
X200240357Y-177754761D02*
X200145119Y-177802380D01*
X199907023Y-177802380D01*
X199811785Y-177754761D01*
X199764166Y-177659523D01*
X199764166Y-177564285D01*
X199811785Y-177469047D01*
X199907023Y-177421428D01*
X200145119Y-177421428D01*
X200240357Y-177373809D01*
X200573690Y-177135714D02*
X200954642Y-177135714D01*
X200716547Y-176802380D02*
X200716547Y-177659523D01*
X200764166Y-177754761D01*
X200859404Y-177802380D01*
X200954642Y-177802380D01*
X202049880Y-177802380D02*
X202049880Y-177135714D01*
X202049880Y-177230952D02*
X202097500Y-177183333D01*
X202192738Y-177135714D01*
X202335595Y-177135714D01*
X202430833Y-177183333D01*
X202478452Y-177278571D01*
X202478452Y-177802380D01*
X202478452Y-177278571D02*
X202526071Y-177183333D01*
X202621309Y-177135714D01*
X202764166Y-177135714D01*
X202859404Y-177183333D01*
X202907023Y-177278571D01*
X202907023Y-177802380D01*
X203811785Y-177802380D02*
X203811785Y-177278571D01*
X203764166Y-177183333D01*
X203668928Y-177135714D01*
X203478452Y-177135714D01*
X203383214Y-177183333D01*
X203811785Y-177754761D02*
X203716547Y-177802380D01*
X203478452Y-177802380D01*
X203383214Y-177754761D01*
X203335595Y-177659523D01*
X203335595Y-177564285D01*
X203383214Y-177469047D01*
X203478452Y-177421428D01*
X203716547Y-177421428D01*
X203811785Y-177373809D01*
X204287976Y-177802380D02*
X204287976Y-177135714D01*
X204287976Y-177326190D02*
X204335595Y-177230952D01*
X204383214Y-177183333D01*
X204478452Y-177135714D01*
X204573690Y-177135714D01*
X204907023Y-177802380D02*
X204907023Y-176802380D01*
X205002261Y-177421428D02*
X205287976Y-177802380D01*
X205287976Y-177135714D02*
X204907023Y-177516666D01*
X206097500Y-177754761D02*
X206002261Y-177802380D01*
X205811785Y-177802380D01*
X205716547Y-177754761D01*
X205668928Y-177659523D01*
X205668928Y-177278571D01*
X205716547Y-177183333D01*
X205811785Y-177135714D01*
X206002261Y-177135714D01*
X206097500Y-177183333D01*
X206145119Y-177278571D01*
X206145119Y-177373809D01*
X205668928Y-177469047D01*
X206573690Y-177802380D02*
X206573690Y-177135714D01*
X206573690Y-177326190D02*
X206621309Y-177230952D01*
X206668928Y-177183333D01*
X206764166Y-177135714D01*
X206859404Y-177135714D01*
X207145119Y-177754761D02*
X207240357Y-177802380D01*
X207430833Y-177802380D01*
X207526071Y-177754761D01*
X207573690Y-177659523D01*
X207573690Y-177611904D01*
X207526071Y-177516666D01*
X207430833Y-177469047D01*
X207287976Y-177469047D01*
X207192738Y-177421428D01*
X207145119Y-177326190D01*
X207145119Y-177278571D01*
X207192738Y-177183333D01*
X207287976Y-177135714D01*
X207430833Y-177135714D01*
X207526071Y-177183333D01*
X209192738Y-177802380D02*
X209192738Y-177278571D01*
X209145119Y-177183333D01*
X209049880Y-177135714D01*
X208859404Y-177135714D01*
X208764166Y-177183333D01*
X209192738Y-177754761D02*
X209097500Y-177802380D01*
X208859404Y-177802380D01*
X208764166Y-177754761D01*
X208716547Y-177659523D01*
X208716547Y-177564285D01*
X208764166Y-177469047D01*
X208859404Y-177421428D01*
X209097500Y-177421428D01*
X209192738Y-177373809D01*
X209668928Y-177802380D02*
X209668928Y-177135714D01*
X209668928Y-177326190D02*
X209716547Y-177230952D01*
X209764166Y-177183333D01*
X209859404Y-177135714D01*
X209954642Y-177135714D01*
X210668928Y-177754761D02*
X210573690Y-177802380D01*
X210383214Y-177802380D01*
X210287976Y-177754761D01*
X210240357Y-177659523D01*
X210240357Y-177278571D01*
X210287976Y-177183333D01*
X210383214Y-177135714D01*
X210573690Y-177135714D01*
X210668928Y-177183333D01*
X210716547Y-177278571D01*
X210716547Y-177373809D01*
X210240357Y-177469047D01*
X211859404Y-177754761D02*
X211954642Y-177802380D01*
X212145119Y-177802380D01*
X212240357Y-177754761D01*
X212287976Y-177659523D01*
X212287976Y-177611904D01*
X212240357Y-177516666D01*
X212145119Y-177469047D01*
X212002261Y-177469047D01*
X211907023Y-177421428D01*
X211859404Y-177326190D01*
X211859404Y-177278571D01*
X211907023Y-177183333D01*
X212002261Y-177135714D01*
X212145119Y-177135714D01*
X212240357Y-177183333D01*
X213097500Y-177754761D02*
X213002261Y-177802380D01*
X212811785Y-177802380D01*
X212716547Y-177754761D01*
X212668928Y-177659523D01*
X212668928Y-177278571D01*
X212716547Y-177183333D01*
X212811785Y-177135714D01*
X213002261Y-177135714D01*
X213097500Y-177183333D01*
X213145119Y-177278571D01*
X213145119Y-177373809D01*
X212668928Y-177469047D01*
X213430833Y-177135714D02*
X213811785Y-177135714D01*
X213573690Y-176802380D02*
X213573690Y-177659523D01*
X213621309Y-177754761D01*
X213716547Y-177802380D01*
X213811785Y-177802380D01*
X214764166Y-177135714D02*
X215145119Y-177135714D01*
X214907023Y-176802380D02*
X214907023Y-177659523D01*
X214954642Y-177754761D01*
X215049880Y-177802380D01*
X215145119Y-177802380D01*
X215621309Y-177802380D02*
X215526071Y-177754761D01*
X215478452Y-177707142D01*
X215430833Y-177611904D01*
X215430833Y-177326190D01*
X215478452Y-177230952D01*
X215526071Y-177183333D01*
X215621309Y-177135714D01*
X215764166Y-177135714D01*
X215859404Y-177183333D01*
X215907023Y-177230952D01*
X215954642Y-177326190D01*
X215954642Y-177611904D01*
X215907023Y-177707142D01*
X215859404Y-177754761D01*
X215764166Y-177802380D01*
X215621309Y-177802380D01*
X217573690Y-177754761D02*
X217478452Y-177802380D01*
X217287976Y-177802380D01*
X217192738Y-177754761D01*
X217145119Y-177707142D01*
X217097500Y-177611904D01*
X217097500Y-177326190D01*
X217145119Y-177230952D01*
X217192738Y-177183333D01*
X217287976Y-177135714D01*
X217478452Y-177135714D01*
X217573690Y-177183333D01*
X218145119Y-177802380D02*
X218049880Y-177754761D01*
X218002261Y-177707142D01*
X217954642Y-177611904D01*
X217954642Y-177326190D01*
X218002261Y-177230952D01*
X218049880Y-177183333D01*
X218145119Y-177135714D01*
X218287976Y-177135714D01*
X218383214Y-177183333D01*
X218430833Y-177230952D01*
X218478452Y-177326190D01*
X218478452Y-177611904D01*
X218430833Y-177707142D01*
X218383214Y-177754761D01*
X218287976Y-177802380D01*
X218145119Y-177802380D01*
X218907023Y-177802380D02*
X218907023Y-177135714D01*
X218907023Y-177326190D02*
X218954642Y-177230952D01*
X219002261Y-177183333D01*
X219097500Y-177135714D01*
X219192738Y-177135714D01*
X219526071Y-177802380D02*
X219526071Y-177135714D01*
X219526071Y-177326190D02*
X219573690Y-177230952D01*
X219621309Y-177183333D01*
X219716547Y-177135714D01*
X219811785Y-177135714D01*
X220526071Y-177754761D02*
X220430833Y-177802380D01*
X220240357Y-177802380D01*
X220145119Y-177754761D01*
X220097500Y-177659523D01*
X220097500Y-177278571D01*
X220145119Y-177183333D01*
X220240357Y-177135714D01*
X220430833Y-177135714D01*
X220526071Y-177183333D01*
X220573690Y-177278571D01*
X220573690Y-177373809D01*
X220097500Y-177469047D01*
X221430833Y-177754761D02*
X221335595Y-177802380D01*
X221145119Y-177802380D01*
X221049880Y-177754761D01*
X221002261Y-177707142D01*
X220954642Y-177611904D01*
X220954642Y-177326190D01*
X221002261Y-177230952D01*
X221049880Y-177183333D01*
X221145119Y-177135714D01*
X221335595Y-177135714D01*
X221430833Y-177183333D01*
X221716547Y-177135714D02*
X222097500Y-177135714D01*
X221859404Y-176802380D02*
X221859404Y-177659523D01*
X221907023Y-177754761D01*
X222002261Y-177802380D01*
X222097500Y-177802380D01*
X222573690Y-177802380D02*
X222478452Y-177754761D01*
X222430833Y-177659523D01*
X222430833Y-176802380D01*
X222859404Y-177135714D02*
X223097500Y-177802380D01*
X223335595Y-177135714D02*
X223097500Y-177802380D01*
X223002261Y-178040476D01*
X222954642Y-178088095D01*
X222859404Y-178135714D01*
X224621309Y-177802380D02*
X224526071Y-177754761D01*
X224478452Y-177707142D01*
X224430833Y-177611904D01*
X224430833Y-177326190D01*
X224478452Y-177230952D01*
X224526071Y-177183333D01*
X224621309Y-177135714D01*
X224764166Y-177135714D01*
X224859404Y-177183333D01*
X224907023Y-177230952D01*
X224954642Y-177326190D01*
X224954642Y-177611904D01*
X224907023Y-177707142D01*
X224859404Y-177754761D01*
X224764166Y-177802380D01*
X224621309Y-177802380D01*
X225383214Y-177802380D02*
X225383214Y-177135714D01*
X225383214Y-177326190D02*
X225430833Y-177230952D01*
X225478452Y-177183333D01*
X225573690Y-177135714D01*
X225668928Y-177135714D01*
X226002261Y-177802380D02*
X226002261Y-177135714D01*
X226002261Y-176802380D02*
X225954642Y-176850000D01*
X226002261Y-176897619D01*
X226049880Y-176850000D01*
X226002261Y-176802380D01*
X226002261Y-176897619D01*
X226859404Y-177754761D02*
X226764166Y-177802380D01*
X226573690Y-177802380D01*
X226478452Y-177754761D01*
X226430833Y-177659523D01*
X226430833Y-177278571D01*
X226478452Y-177183333D01*
X226573690Y-177135714D01*
X226764166Y-177135714D01*
X226859404Y-177183333D01*
X226907023Y-177278571D01*
X226907023Y-177373809D01*
X226430833Y-177469047D01*
X227335595Y-177135714D02*
X227335595Y-177802380D01*
X227335595Y-177230952D02*
X227383214Y-177183333D01*
X227478452Y-177135714D01*
X227621309Y-177135714D01*
X227716547Y-177183333D01*
X227764166Y-177278571D01*
X227764166Y-177802380D01*
X228097500Y-177135714D02*
X228478452Y-177135714D01*
X228240357Y-176802380D02*
X228240357Y-177659523D01*
X228287976Y-177754761D01*
X228383214Y-177802380D01*
X228478452Y-177802380D01*
X229573690Y-177802380D02*
X229573690Y-176802380D01*
X230621309Y-177707142D02*
X230573690Y-177754761D01*
X230430833Y-177802380D01*
X230335595Y-177802380D01*
X230192738Y-177754761D01*
X230097500Y-177659523D01*
X230049880Y-177564285D01*
X230002261Y-177373809D01*
X230002261Y-177230952D01*
X230049880Y-177040476D01*
X230097500Y-176945238D01*
X230192738Y-176850000D01*
X230335595Y-176802380D01*
X230430833Y-176802380D01*
X230573690Y-176850000D01*
X230621309Y-176897619D01*
X231002261Y-177754761D02*
X231097500Y-177802380D01*
X231287976Y-177802380D01*
X231383214Y-177754761D01*
X231430833Y-177659523D01*
X231430833Y-177611904D01*
X231383214Y-177516666D01*
X231287976Y-177469047D01*
X231145119Y-177469047D01*
X231049880Y-177421428D01*
X231002261Y-177326190D01*
X231002261Y-177278571D01*
X231049880Y-177183333D01*
X231145119Y-177135714D01*
X231287976Y-177135714D01*
X231383214Y-177183333D01*
X180145119Y-179793333D02*
X180097500Y-179745714D01*
X180002261Y-179602857D01*
X179954642Y-179507619D01*
X179907023Y-179364761D01*
X179859404Y-179126666D01*
X179859404Y-178936190D01*
X179907023Y-178698095D01*
X179954642Y-178555238D01*
X180002261Y-178460000D01*
X180097500Y-178317142D01*
X180145119Y-178269523D01*
X180383214Y-178745714D02*
X180764166Y-178745714D01*
X180526071Y-178412380D02*
X180526071Y-179269523D01*
X180573690Y-179364761D01*
X180668928Y-179412380D01*
X180764166Y-179412380D01*
X181097500Y-179412380D02*
X181097500Y-178412380D01*
X181526071Y-179412380D02*
X181526071Y-178888571D01*
X181478452Y-178793333D01*
X181383214Y-178745714D01*
X181240357Y-178745714D01*
X181145119Y-178793333D01*
X181097500Y-178840952D01*
X182383214Y-179364761D02*
X182287976Y-179412380D01*
X182097500Y-179412380D01*
X182002261Y-179364761D01*
X181954642Y-179269523D01*
X181954642Y-178888571D01*
X182002261Y-178793333D01*
X182097500Y-178745714D01*
X182287976Y-178745714D01*
X182383214Y-178793333D01*
X182430833Y-178888571D01*
X182430833Y-178983809D01*
X181954642Y-179079047D01*
X184049880Y-179364761D02*
X183954642Y-179412380D01*
X183764166Y-179412380D01*
X183668928Y-179364761D01*
X183621309Y-179317142D01*
X183573690Y-179221904D01*
X183573690Y-178936190D01*
X183621309Y-178840952D01*
X183668928Y-178793333D01*
X183764166Y-178745714D01*
X183954642Y-178745714D01*
X184049880Y-178793333D01*
X184478452Y-179412380D02*
X184478452Y-178745714D01*
X184478452Y-178412380D02*
X184430833Y-178460000D01*
X184478452Y-178507619D01*
X184526071Y-178460000D01*
X184478452Y-178412380D01*
X184478452Y-178507619D01*
X184954642Y-179412380D02*
X184954642Y-178745714D01*
X184954642Y-178936190D02*
X185002261Y-178840952D01*
X185049880Y-178793333D01*
X185145119Y-178745714D01*
X185240357Y-178745714D01*
X186002261Y-179364761D02*
X185907023Y-179412380D01*
X185716547Y-179412380D01*
X185621309Y-179364761D01*
X185573690Y-179317142D01*
X185526071Y-179221904D01*
X185526071Y-178936190D01*
X185573690Y-178840952D01*
X185621309Y-178793333D01*
X185716547Y-178745714D01*
X185907023Y-178745714D01*
X186002261Y-178793333D01*
X186573690Y-179412380D02*
X186478452Y-179364761D01*
X186430833Y-179269523D01*
X186430833Y-178412380D01*
X187335595Y-179364761D02*
X187240357Y-179412380D01*
X187049880Y-179412380D01*
X186954642Y-179364761D01*
X186907023Y-179269523D01*
X186907023Y-178888571D01*
X186954642Y-178793333D01*
X187049880Y-178745714D01*
X187240357Y-178745714D01*
X187335595Y-178793333D01*
X187383214Y-178888571D01*
X187383214Y-178983809D01*
X186907023Y-179079047D01*
X187764166Y-179364761D02*
X187859404Y-179412380D01*
X188049880Y-179412380D01*
X188145119Y-179364761D01*
X188192738Y-179269523D01*
X188192738Y-179221904D01*
X188145119Y-179126666D01*
X188049880Y-179079047D01*
X187907023Y-179079047D01*
X187811785Y-179031428D01*
X187764166Y-178936190D01*
X187764166Y-178888571D01*
X187811785Y-178793333D01*
X187907023Y-178745714D01*
X188049880Y-178745714D01*
X188145119Y-178793333D01*
X189383214Y-178745714D02*
X189383214Y-179412380D01*
X189383214Y-178840952D02*
X189430833Y-178793333D01*
X189526071Y-178745714D01*
X189668928Y-178745714D01*
X189764166Y-178793333D01*
X189811785Y-178888571D01*
X189811785Y-179412380D01*
X190668928Y-179364761D02*
X190573690Y-179412380D01*
X190383214Y-179412380D01*
X190287976Y-179364761D01*
X190240357Y-179269523D01*
X190240357Y-178888571D01*
X190287976Y-178793333D01*
X190383214Y-178745714D01*
X190573690Y-178745714D01*
X190668928Y-178793333D01*
X190716547Y-178888571D01*
X190716547Y-178983809D01*
X190240357Y-179079047D01*
X191573690Y-179412380D02*
X191573690Y-178888571D01*
X191526071Y-178793333D01*
X191430833Y-178745714D01*
X191240357Y-178745714D01*
X191145119Y-178793333D01*
X191573690Y-179364761D02*
X191478452Y-179412380D01*
X191240357Y-179412380D01*
X191145119Y-179364761D01*
X191097500Y-179269523D01*
X191097500Y-179174285D01*
X191145119Y-179079047D01*
X191240357Y-179031428D01*
X191478452Y-179031428D01*
X191573690Y-178983809D01*
X192049880Y-179412380D02*
X192049880Y-178745714D01*
X192049880Y-178936190D02*
X192097500Y-178840952D01*
X192145119Y-178793333D01*
X192240357Y-178745714D01*
X192335595Y-178745714D01*
X193430833Y-178745714D02*
X193430833Y-179745714D01*
X193430833Y-178793333D02*
X193526071Y-178745714D01*
X193716547Y-178745714D01*
X193811785Y-178793333D01*
X193859404Y-178840952D01*
X193907023Y-178936190D01*
X193907023Y-179221904D01*
X193859404Y-179317142D01*
X193811785Y-179364761D01*
X193716547Y-179412380D01*
X193526071Y-179412380D01*
X193430833Y-179364761D01*
X194335595Y-179412380D02*
X194335595Y-178745714D01*
X194335595Y-178412380D02*
X194287976Y-178460000D01*
X194335595Y-178507619D01*
X194383214Y-178460000D01*
X194335595Y-178412380D01*
X194335595Y-178507619D01*
X194811785Y-178745714D02*
X194811785Y-179412380D01*
X194811785Y-178840952D02*
X194859404Y-178793333D01*
X194954642Y-178745714D01*
X195097500Y-178745714D01*
X195192738Y-178793333D01*
X195240357Y-178888571D01*
X195240357Y-179412380D01*
X197002261Y-179412380D02*
X196430833Y-179412380D01*
X196716547Y-179412380D02*
X196716547Y-178412380D01*
X196621309Y-178555238D01*
X196526071Y-178650476D01*
X196430833Y-178698095D01*
X197335595Y-179793333D02*
X197383214Y-179745714D01*
X197478452Y-179602857D01*
X197526071Y-179507619D01*
X197573690Y-179364761D01*
X197621309Y-179126666D01*
X197621309Y-178936190D01*
X197573690Y-178698095D01*
X197526071Y-178555238D01*
X197478452Y-178460000D01*
X197383214Y-178317142D01*
X197335595Y-178269523D01*
X178435595Y-168537380D02*
X178435595Y-167537380D01*
X179007023Y-168537380D01*
X179007023Y-167537380D01*
X179626071Y-168537380D02*
X179530833Y-168489761D01*
X179483214Y-168442142D01*
X179435595Y-168346904D01*
X179435595Y-168061190D01*
X179483214Y-167965952D01*
X179530833Y-167918333D01*
X179626071Y-167870714D01*
X179768928Y-167870714D01*
X179864166Y-167918333D01*
X179911785Y-167965952D01*
X179959404Y-168061190D01*
X179959404Y-168346904D01*
X179911785Y-168442142D01*
X179864166Y-168489761D01*
X179768928Y-168537380D01*
X179626071Y-168537380D01*
X180245119Y-167870714D02*
X180626071Y-167870714D01*
X180387976Y-167537380D02*
X180387976Y-168394523D01*
X180435595Y-168489761D01*
X180530833Y-168537380D01*
X180626071Y-168537380D01*
X181340357Y-168489761D02*
X181245119Y-168537380D01*
X181054642Y-168537380D01*
X180959404Y-168489761D01*
X180911785Y-168394523D01*
X180911785Y-168013571D01*
X180959404Y-167918333D01*
X181054642Y-167870714D01*
X181245119Y-167870714D01*
X181340357Y-167918333D01*
X181387976Y-168013571D01*
X181387976Y-168108809D01*
X180911785Y-168204047D01*
X181768928Y-168489761D02*
X181864166Y-168537380D01*
X182054642Y-168537380D01*
X182149880Y-168489761D01*
X182197500Y-168394523D01*
X182197500Y-168346904D01*
X182149880Y-168251666D01*
X182054642Y-168204047D01*
X181911785Y-168204047D01*
X181816547Y-168156428D01*
X181768928Y-168061190D01*
X181768928Y-168013571D01*
X181816547Y-167918333D01*
X181911785Y-167870714D01*
X182054642Y-167870714D01*
X182149880Y-167918333D01*
X182626071Y-168442142D02*
X182673690Y-168489761D01*
X182626071Y-168537380D01*
X182578452Y-168489761D01*
X182626071Y-168442142D01*
X182626071Y-168537380D01*
X182626071Y-167918333D02*
X182673690Y-167965952D01*
X182626071Y-168013571D01*
X182578452Y-167965952D01*
X182626071Y-167918333D01*
X182626071Y-168013571D01*
X178435595Y-169766428D02*
X179197500Y-169766428D01*
X180435595Y-170147380D02*
X180435595Y-169480714D01*
X180435595Y-169671190D02*
X180483214Y-169575952D01*
X180530833Y-169528333D01*
X180626071Y-169480714D01*
X180721309Y-169480714D01*
X181197500Y-170147380D02*
X181102261Y-170099761D01*
X181054642Y-170052142D01*
X181007023Y-169956904D01*
X181007023Y-169671190D01*
X181054642Y-169575952D01*
X181102261Y-169528333D01*
X181197500Y-169480714D01*
X181340357Y-169480714D01*
X181435595Y-169528333D01*
X181483214Y-169575952D01*
X181530833Y-169671190D01*
X181530833Y-169956904D01*
X181483214Y-170052142D01*
X181435595Y-170099761D01*
X181340357Y-170147380D01*
X181197500Y-170147380D01*
X182387976Y-169480714D02*
X182387976Y-170147380D01*
X181959404Y-169480714D02*
X181959404Y-170004523D01*
X182007023Y-170099761D01*
X182102261Y-170147380D01*
X182245119Y-170147380D01*
X182340357Y-170099761D01*
X182387976Y-170052142D01*
X182721309Y-169480714D02*
X183102261Y-169480714D01*
X182864166Y-169147380D02*
X182864166Y-170004523D01*
X182911785Y-170099761D01*
X183007023Y-170147380D01*
X183102261Y-170147380D01*
X183435595Y-170147380D02*
X183435595Y-169480714D01*
X183435595Y-169147380D02*
X183387976Y-169195000D01*
X183435595Y-169242619D01*
X183483214Y-169195000D01*
X183435595Y-169147380D01*
X183435595Y-169242619D01*
X183911785Y-169480714D02*
X183911785Y-170147380D01*
X183911785Y-169575952D02*
X183959404Y-169528333D01*
X184054642Y-169480714D01*
X184197500Y-169480714D01*
X184292738Y-169528333D01*
X184340357Y-169623571D01*
X184340357Y-170147380D01*
X185245119Y-169480714D02*
X185245119Y-170290238D01*
X185197500Y-170385476D01*
X185149880Y-170433095D01*
X185054642Y-170480714D01*
X184911785Y-170480714D01*
X184816547Y-170433095D01*
X185245119Y-170099761D02*
X185149880Y-170147380D01*
X184959404Y-170147380D01*
X184864166Y-170099761D01*
X184816547Y-170052142D01*
X184768928Y-169956904D01*
X184768928Y-169671190D01*
X184816547Y-169575952D01*
X184864166Y-169528333D01*
X184959404Y-169480714D01*
X185149880Y-169480714D01*
X185245119Y-169528333D01*
X186340357Y-169480714D02*
X186721309Y-169480714D01*
X186483214Y-170147380D02*
X186483214Y-169290238D01*
X186530833Y-169195000D01*
X186626071Y-169147380D01*
X186721309Y-169147380D01*
X187197500Y-170147380D02*
X187102261Y-170099761D01*
X187054642Y-170052142D01*
X187007023Y-169956904D01*
X187007023Y-169671190D01*
X187054642Y-169575952D01*
X187102261Y-169528333D01*
X187197500Y-169480714D01*
X187340357Y-169480714D01*
X187435595Y-169528333D01*
X187483214Y-169575952D01*
X187530833Y-169671190D01*
X187530833Y-169956904D01*
X187483214Y-170052142D01*
X187435595Y-170099761D01*
X187340357Y-170147380D01*
X187197500Y-170147380D01*
X187959404Y-170147380D02*
X187959404Y-169480714D01*
X187959404Y-169671190D02*
X188007023Y-169575952D01*
X188054642Y-169528333D01*
X188149880Y-169480714D01*
X188245119Y-169480714D01*
X189340357Y-170147380D02*
X189340357Y-169480714D01*
X189340357Y-169575952D02*
X189387976Y-169528333D01*
X189483214Y-169480714D01*
X189626071Y-169480714D01*
X189721309Y-169528333D01*
X189768928Y-169623571D01*
X189768928Y-170147380D01*
X189768928Y-169623571D02*
X189816547Y-169528333D01*
X189911785Y-169480714D01*
X190054642Y-169480714D01*
X190149880Y-169528333D01*
X190197500Y-169623571D01*
X190197500Y-170147380D01*
X190816547Y-170147380D02*
X190721309Y-170099761D01*
X190673690Y-170052142D01*
X190626071Y-169956904D01*
X190626071Y-169671190D01*
X190673690Y-169575952D01*
X190721309Y-169528333D01*
X190816547Y-169480714D01*
X190959404Y-169480714D01*
X191054642Y-169528333D01*
X191102261Y-169575952D01*
X191149880Y-169671190D01*
X191149880Y-169956904D01*
X191102261Y-170052142D01*
X191054642Y-170099761D01*
X190959404Y-170147380D01*
X190816547Y-170147380D01*
X191435595Y-169480714D02*
X191816547Y-169480714D01*
X191578452Y-169147380D02*
X191578452Y-170004523D01*
X191626071Y-170099761D01*
X191721309Y-170147380D01*
X191816547Y-170147380D01*
X192292738Y-170147380D02*
X192197500Y-170099761D01*
X192149880Y-170052142D01*
X192102261Y-169956904D01*
X192102261Y-169671190D01*
X192149880Y-169575952D01*
X192197500Y-169528333D01*
X192292738Y-169480714D01*
X192435595Y-169480714D01*
X192530833Y-169528333D01*
X192578452Y-169575952D01*
X192626071Y-169671190D01*
X192626071Y-169956904D01*
X192578452Y-170052142D01*
X192530833Y-170099761D01*
X192435595Y-170147380D01*
X192292738Y-170147380D01*
X193054642Y-170147380D02*
X193054642Y-169480714D01*
X193054642Y-169671190D02*
X193102261Y-169575952D01*
X193149880Y-169528333D01*
X193245119Y-169480714D01*
X193340357Y-169480714D01*
X194864166Y-170099761D02*
X194768928Y-170147380D01*
X194578452Y-170147380D01*
X194483214Y-170099761D01*
X194435595Y-170052142D01*
X194387976Y-169956904D01*
X194387976Y-169671190D01*
X194435595Y-169575952D01*
X194483214Y-169528333D01*
X194578452Y-169480714D01*
X194768928Y-169480714D01*
X194864166Y-169528333D01*
X195435595Y-170147380D02*
X195340357Y-170099761D01*
X195292738Y-170052142D01*
X195245119Y-169956904D01*
X195245119Y-169671190D01*
X195292738Y-169575952D01*
X195340357Y-169528333D01*
X195435595Y-169480714D01*
X195578452Y-169480714D01*
X195673690Y-169528333D01*
X195721309Y-169575952D01*
X195768928Y-169671190D01*
X195768928Y-169956904D01*
X195721309Y-170052142D01*
X195673690Y-170099761D01*
X195578452Y-170147380D01*
X195435595Y-170147380D01*
X196197500Y-169480714D02*
X196197500Y-170147380D01*
X196197500Y-169575952D02*
X196245119Y-169528333D01*
X196340357Y-169480714D01*
X196483214Y-169480714D01*
X196578452Y-169528333D01*
X196626071Y-169623571D01*
X196626071Y-170147380D01*
X196959404Y-169480714D02*
X197340357Y-169480714D01*
X197102261Y-169147380D02*
X197102261Y-170004523D01*
X197149880Y-170099761D01*
X197245119Y-170147380D01*
X197340357Y-170147380D01*
X197673690Y-170147380D02*
X197673690Y-169480714D01*
X197673690Y-169671190D02*
X197721309Y-169575952D01*
X197768928Y-169528333D01*
X197864166Y-169480714D01*
X197959404Y-169480714D01*
X198435595Y-170147380D02*
X198340357Y-170099761D01*
X198292738Y-170052142D01*
X198245119Y-169956904D01*
X198245119Y-169671190D01*
X198292738Y-169575952D01*
X198340357Y-169528333D01*
X198435595Y-169480714D01*
X198578452Y-169480714D01*
X198673690Y-169528333D01*
X198721309Y-169575952D01*
X198768928Y-169671190D01*
X198768928Y-169956904D01*
X198721309Y-170052142D01*
X198673690Y-170099761D01*
X198578452Y-170147380D01*
X198435595Y-170147380D01*
X199340357Y-170147380D02*
X199245119Y-170099761D01*
X199197500Y-170004523D01*
X199197500Y-169147380D01*
X199673690Y-170099761D02*
X199768928Y-170147380D01*
X199959404Y-170147380D01*
X200054642Y-170099761D01*
X200102261Y-170004523D01*
X200102261Y-169956904D01*
X200054642Y-169861666D01*
X199959404Y-169814047D01*
X199816547Y-169814047D01*
X199721309Y-169766428D01*
X199673690Y-169671190D01*
X199673690Y-169623571D01*
X199721309Y-169528333D01*
X199816547Y-169480714D01*
X199959404Y-169480714D01*
X200054642Y-169528333D01*
X201292738Y-170147380D02*
X201292738Y-169480714D01*
X201292738Y-169147380D02*
X201245119Y-169195000D01*
X201292738Y-169242619D01*
X201340357Y-169195000D01*
X201292738Y-169147380D01*
X201292738Y-169242619D01*
X201721309Y-170099761D02*
X201816547Y-170147380D01*
X202007023Y-170147380D01*
X202102261Y-170099761D01*
X202149880Y-170004523D01*
X202149880Y-169956904D01*
X202102261Y-169861666D01*
X202007023Y-169814047D01*
X201864166Y-169814047D01*
X201768928Y-169766428D01*
X201721309Y-169671190D01*
X201721309Y-169623571D01*
X201768928Y-169528333D01*
X201864166Y-169480714D01*
X202007023Y-169480714D01*
X202102261Y-169528333D01*
X203673690Y-169623571D02*
X203816547Y-169671190D01*
X203864166Y-169718809D01*
X203911785Y-169814047D01*
X203911785Y-169956904D01*
X203864166Y-170052142D01*
X203816547Y-170099761D01*
X203721309Y-170147380D01*
X203340357Y-170147380D01*
X203340357Y-169147380D01*
X203673690Y-169147380D01*
X203768928Y-169195000D01*
X203816547Y-169242619D01*
X203864166Y-169337857D01*
X203864166Y-169433095D01*
X203816547Y-169528333D01*
X203768928Y-169575952D01*
X203673690Y-169623571D01*
X203340357Y-169623571D01*
X204292738Y-169861666D02*
X204768928Y-169861666D01*
X204197500Y-170147380D02*
X204530833Y-169147380D01*
X204864166Y-170147380D01*
X205768928Y-170052142D02*
X205721309Y-170099761D01*
X205578452Y-170147380D01*
X205483214Y-170147380D01*
X205340357Y-170099761D01*
X205245119Y-170004523D01*
X205197500Y-169909285D01*
X205149880Y-169718809D01*
X205149880Y-169575952D01*
X205197500Y-169385476D01*
X205245119Y-169290238D01*
X205340357Y-169195000D01*
X205483214Y-169147380D01*
X205578452Y-169147380D01*
X205721309Y-169195000D01*
X205768928Y-169242619D01*
X206197500Y-170147380D02*
X206197500Y-169147380D01*
X206768928Y-170147380D02*
X206340357Y-169575952D01*
X206768928Y-169147380D02*
X206197500Y-169718809D01*
X207102261Y-169147380D02*
X207340357Y-170147380D01*
X207530833Y-169433095D01*
X207721309Y-170147380D01*
X207959404Y-169147380D01*
X208292738Y-169861666D02*
X208768928Y-169861666D01*
X208197500Y-170147380D02*
X208530833Y-169147380D01*
X208864166Y-170147380D01*
X209768928Y-170147380D02*
X209435595Y-169671190D01*
X209197500Y-170147380D02*
X209197500Y-169147380D01*
X209578452Y-169147380D01*
X209673690Y-169195000D01*
X209721309Y-169242619D01*
X209768928Y-169337857D01*
X209768928Y-169480714D01*
X209721309Y-169575952D01*
X209673690Y-169623571D01*
X209578452Y-169671190D01*
X209197500Y-169671190D01*
X210197500Y-170147380D02*
X210197500Y-169147380D01*
X210435595Y-169147380D01*
X210578452Y-169195000D01*
X210673690Y-169290238D01*
X210721309Y-169385476D01*
X210768928Y-169575952D01*
X210768928Y-169718809D01*
X210721309Y-169909285D01*
X210673690Y-170004523D01*
X210578452Y-170099761D01*
X210435595Y-170147380D01*
X210197500Y-170147380D01*
X211149880Y-170099761D02*
X211292738Y-170147380D01*
X211530833Y-170147380D01*
X211626071Y-170099761D01*
X211673690Y-170052142D01*
X211721309Y-169956904D01*
X211721309Y-169861666D01*
X211673690Y-169766428D01*
X211626071Y-169718809D01*
X211530833Y-169671190D01*
X211340357Y-169623571D01*
X211245119Y-169575952D01*
X211197500Y-169528333D01*
X211149880Y-169433095D01*
X211149880Y-169337857D01*
X211197500Y-169242619D01*
X211245119Y-169195000D01*
X211340357Y-169147380D01*
X211578452Y-169147380D01*
X211721309Y-169195000D01*
X212197500Y-170099761D02*
X212197500Y-170147380D01*
X212149880Y-170242619D01*
X212102261Y-170290238D01*
X213387976Y-170147380D02*
X213387976Y-169480714D01*
X213387976Y-169147380D02*
X213340357Y-169195000D01*
X213387976Y-169242619D01*
X213435595Y-169195000D01*
X213387976Y-169147380D01*
X213387976Y-169242619D01*
X213721309Y-169480714D02*
X214102261Y-169480714D01*
X213864166Y-169147380D02*
X213864166Y-170004523D01*
X213911785Y-170099761D01*
X214007023Y-170147380D01*
X214102261Y-170147380D01*
X214387976Y-170099761D02*
X214483214Y-170147380D01*
X214673690Y-170147380D01*
X214768928Y-170099761D01*
X214816547Y-170004523D01*
X214816547Y-169956904D01*
X214768928Y-169861666D01*
X214673690Y-169814047D01*
X214530833Y-169814047D01*
X214435595Y-169766428D01*
X214387976Y-169671190D01*
X214387976Y-169623571D01*
X214435595Y-169528333D01*
X214530833Y-169480714D01*
X214673690Y-169480714D01*
X214768928Y-169528333D01*
X216435595Y-170099761D02*
X216340357Y-170147380D01*
X216149880Y-170147380D01*
X216054642Y-170099761D01*
X216007023Y-170052142D01*
X215959404Y-169956904D01*
X215959404Y-169671190D01*
X216007023Y-169575952D01*
X216054642Y-169528333D01*
X216149880Y-169480714D01*
X216340357Y-169480714D01*
X216435595Y-169528333D01*
X217007023Y-170147380D02*
X216911785Y-170099761D01*
X216864166Y-170052142D01*
X216816547Y-169956904D01*
X216816547Y-169671190D01*
X216864166Y-169575952D01*
X216911785Y-169528333D01*
X217007023Y-169480714D01*
X217149880Y-169480714D01*
X217245119Y-169528333D01*
X217292738Y-169575952D01*
X217340357Y-169671190D01*
X217340357Y-169956904D01*
X217292738Y-170052142D01*
X217245119Y-170099761D01*
X217149880Y-170147380D01*
X217007023Y-170147380D01*
X217768928Y-170147380D02*
X217768928Y-169480714D01*
X217768928Y-169575952D02*
X217816547Y-169528333D01*
X217911785Y-169480714D01*
X218054642Y-169480714D01*
X218149880Y-169528333D01*
X218197500Y-169623571D01*
X218197500Y-170147380D01*
X218197500Y-169623571D02*
X218245119Y-169528333D01*
X218340357Y-169480714D01*
X218483214Y-169480714D01*
X218578452Y-169528333D01*
X218626071Y-169623571D01*
X218626071Y-170147380D01*
X219102261Y-169480714D02*
X219102261Y-170480714D01*
X219102261Y-169528333D02*
X219197500Y-169480714D01*
X219387976Y-169480714D01*
X219483214Y-169528333D01*
X219530833Y-169575952D01*
X219578452Y-169671190D01*
X219578452Y-169956904D01*
X219530833Y-170052142D01*
X219483214Y-170099761D01*
X219387976Y-170147380D01*
X219197500Y-170147380D01*
X219102261Y-170099761D01*
X220149880Y-170147380D02*
X220054642Y-170099761D01*
X220007023Y-170004523D01*
X220007023Y-169147380D01*
X220911785Y-170099761D02*
X220816547Y-170147380D01*
X220626071Y-170147380D01*
X220530833Y-170099761D01*
X220483214Y-170004523D01*
X220483214Y-169623571D01*
X220530833Y-169528333D01*
X220626071Y-169480714D01*
X220816547Y-169480714D01*
X220911785Y-169528333D01*
X220959404Y-169623571D01*
X220959404Y-169718809D01*
X220483214Y-169814047D01*
X221245119Y-169480714D02*
X221626071Y-169480714D01*
X221387976Y-169147380D02*
X221387976Y-170004523D01*
X221435595Y-170099761D01*
X221530833Y-170147380D01*
X221626071Y-170147380D01*
X222340357Y-170099761D02*
X222245119Y-170147380D01*
X222054642Y-170147380D01*
X221959404Y-170099761D01*
X221911785Y-170004523D01*
X221911785Y-169623571D01*
X221959404Y-169528333D01*
X222054642Y-169480714D01*
X222245119Y-169480714D01*
X222340357Y-169528333D01*
X222387976Y-169623571D01*
X222387976Y-169718809D01*
X221911785Y-169814047D01*
X222959404Y-170147380D02*
X222864166Y-170099761D01*
X222816547Y-170004523D01*
X222816547Y-169147380D01*
X223245119Y-169480714D02*
X223483214Y-170147380D01*
X223721309Y-169480714D02*
X223483214Y-170147380D01*
X223387976Y-170385476D01*
X223340357Y-170433095D01*
X223245119Y-170480714D01*
X224768928Y-169480714D02*
X224959404Y-170147380D01*
X225149880Y-169671190D01*
X225340357Y-170147380D01*
X225530833Y-169480714D01*
X225911785Y-170147380D02*
X225911785Y-169480714D01*
X225911785Y-169671190D02*
X225959404Y-169575952D01*
X226007023Y-169528333D01*
X226102261Y-169480714D01*
X226197500Y-169480714D01*
X226673690Y-170147380D02*
X226578452Y-170099761D01*
X226530833Y-170052142D01*
X226483214Y-169956904D01*
X226483214Y-169671190D01*
X226530833Y-169575952D01*
X226578452Y-169528333D01*
X226673690Y-169480714D01*
X226816547Y-169480714D01*
X226911785Y-169528333D01*
X226959404Y-169575952D01*
X227007023Y-169671190D01*
X227007023Y-169956904D01*
X226959404Y-170052142D01*
X226911785Y-170099761D01*
X226816547Y-170147380D01*
X226673690Y-170147380D01*
X227435595Y-169480714D02*
X227435595Y-170147380D01*
X227435595Y-169575952D02*
X227483214Y-169528333D01*
X227578452Y-169480714D01*
X227721309Y-169480714D01*
X227816547Y-169528333D01*
X227864166Y-169623571D01*
X227864166Y-170147380D01*
X228768928Y-169480714D02*
X228768928Y-170290238D01*
X228721309Y-170385476D01*
X228673690Y-170433095D01*
X228578452Y-170480714D01*
X228435595Y-170480714D01*
X228340357Y-170433095D01*
X228768928Y-170099761D02*
X228673690Y-170147380D01*
X228483214Y-170147380D01*
X228387976Y-170099761D01*
X228340357Y-170052142D01*
X228292738Y-169956904D01*
X228292738Y-169671190D01*
X228340357Y-169575952D01*
X228387976Y-169528333D01*
X228483214Y-169480714D01*
X228673690Y-169480714D01*
X228768928Y-169528333D01*
X229245119Y-170052142D02*
X229292738Y-170099761D01*
X229245119Y-170147380D01*
X229197500Y-170099761D01*
X229245119Y-170052142D01*
X229245119Y-170147380D01*
X179959404Y-171757380D02*
X179959404Y-170757380D01*
X180340357Y-170757380D01*
X180435595Y-170805000D01*
X180483214Y-170852619D01*
X180530833Y-170947857D01*
X180530833Y-171090714D01*
X180483214Y-171185952D01*
X180435595Y-171233571D01*
X180340357Y-171281190D01*
X179959404Y-171281190D01*
X181102261Y-171757380D02*
X181007023Y-171709761D01*
X180959404Y-171614523D01*
X180959404Y-170757380D01*
X181864166Y-171709761D02*
X181768928Y-171757380D01*
X181578452Y-171757380D01*
X181483214Y-171709761D01*
X181435595Y-171614523D01*
X181435595Y-171233571D01*
X181483214Y-171138333D01*
X181578452Y-171090714D01*
X181768928Y-171090714D01*
X181864166Y-171138333D01*
X181911785Y-171233571D01*
X181911785Y-171328809D01*
X181435595Y-171424047D01*
X182768928Y-171757380D02*
X182768928Y-171233571D01*
X182721309Y-171138333D01*
X182626071Y-171090714D01*
X182435595Y-171090714D01*
X182340357Y-171138333D01*
X182768928Y-171709761D02*
X182673690Y-171757380D01*
X182435595Y-171757380D01*
X182340357Y-171709761D01*
X182292738Y-171614523D01*
X182292738Y-171519285D01*
X182340357Y-171424047D01*
X182435595Y-171376428D01*
X182673690Y-171376428D01*
X182768928Y-171328809D01*
X183197500Y-171709761D02*
X183292738Y-171757380D01*
X183483214Y-171757380D01*
X183578452Y-171709761D01*
X183626071Y-171614523D01*
X183626071Y-171566904D01*
X183578452Y-171471666D01*
X183483214Y-171424047D01*
X183340357Y-171424047D01*
X183245119Y-171376428D01*
X183197500Y-171281190D01*
X183197500Y-171233571D01*
X183245119Y-171138333D01*
X183340357Y-171090714D01*
X183483214Y-171090714D01*
X183578452Y-171138333D01*
X184435595Y-171709761D02*
X184340357Y-171757380D01*
X184149880Y-171757380D01*
X184054642Y-171709761D01*
X184007023Y-171614523D01*
X184007023Y-171233571D01*
X184054642Y-171138333D01*
X184149880Y-171090714D01*
X184340357Y-171090714D01*
X184435595Y-171138333D01*
X184483214Y-171233571D01*
X184483214Y-171328809D01*
X184007023Y-171424047D01*
X185673690Y-171757380D02*
X185673690Y-171090714D01*
X185673690Y-171281190D02*
X185721309Y-171185952D01*
X185768928Y-171138333D01*
X185864166Y-171090714D01*
X185959404Y-171090714D01*
X186673690Y-171709761D02*
X186578452Y-171757380D01*
X186387976Y-171757380D01*
X186292738Y-171709761D01*
X186245119Y-171614523D01*
X186245119Y-171233571D01*
X186292738Y-171138333D01*
X186387976Y-171090714D01*
X186578452Y-171090714D01*
X186673690Y-171138333D01*
X186721309Y-171233571D01*
X186721309Y-171328809D01*
X186245119Y-171424047D01*
X187149880Y-171376428D02*
X187911785Y-171376428D01*
X188816547Y-171757380D02*
X188816547Y-170757380D01*
X188816547Y-171709761D02*
X188721309Y-171757380D01*
X188530833Y-171757380D01*
X188435595Y-171709761D01*
X188387976Y-171662142D01*
X188340357Y-171566904D01*
X188340357Y-171281190D01*
X188387976Y-171185952D01*
X188435595Y-171138333D01*
X188530833Y-171090714D01*
X188721309Y-171090714D01*
X188816547Y-171138333D01*
X189435595Y-171757380D02*
X189340357Y-171709761D01*
X189292738Y-171662142D01*
X189245119Y-171566904D01*
X189245119Y-171281190D01*
X189292738Y-171185952D01*
X189340357Y-171138333D01*
X189435595Y-171090714D01*
X189578452Y-171090714D01*
X189673690Y-171138333D01*
X189721309Y-171185952D01*
X189768928Y-171281190D01*
X189768928Y-171566904D01*
X189721309Y-171662142D01*
X189673690Y-171709761D01*
X189578452Y-171757380D01*
X189435595Y-171757380D01*
X190197500Y-171662142D02*
X190245119Y-171709761D01*
X190197500Y-171757380D01*
X190149880Y-171709761D01*
X190197500Y-171662142D01*
X190197500Y-171757380D01*
X190673690Y-171662142D02*
X190721309Y-171709761D01*
X190673690Y-171757380D01*
X190626071Y-171709761D01*
X190673690Y-171662142D01*
X190673690Y-171757380D01*
X191149880Y-171662142D02*
X191197500Y-171709761D01*
X191149880Y-171757380D01*
X191102261Y-171709761D01*
X191149880Y-171662142D01*
X191149880Y-171757380D01*
X179007023Y-173367380D02*
X178673690Y-172891190D01*
X178435595Y-173367380D02*
X178435595Y-172367380D01*
X178816547Y-172367380D01*
X178911785Y-172415000D01*
X178959404Y-172462619D01*
X179007023Y-172557857D01*
X179007023Y-172700714D01*
X178959404Y-172795952D01*
X178911785Y-172843571D01*
X178816547Y-172891190D01*
X178435595Y-172891190D01*
X179816547Y-173319761D02*
X179721309Y-173367380D01*
X179530833Y-173367380D01*
X179435595Y-173319761D01*
X179387976Y-173224523D01*
X179387976Y-172843571D01*
X179435595Y-172748333D01*
X179530833Y-172700714D01*
X179721309Y-172700714D01*
X179816547Y-172748333D01*
X179864166Y-172843571D01*
X179864166Y-172938809D01*
X179387976Y-173034047D01*
X180149880Y-172700714D02*
X180530833Y-172700714D01*
X180292738Y-173367380D02*
X180292738Y-172510238D01*
X180340357Y-172415000D01*
X180435595Y-172367380D01*
X180530833Y-172367380D01*
X180864166Y-173272142D02*
X180911785Y-173319761D01*
X180864166Y-173367380D01*
X180816547Y-173319761D01*
X180864166Y-173272142D01*
X180864166Y-173367380D01*
X182102261Y-173367380D02*
X182102261Y-172367380D01*
X182530833Y-173367380D02*
X182530833Y-172843571D01*
X182483214Y-172748333D01*
X182387976Y-172700714D01*
X182245119Y-172700714D01*
X182149880Y-172748333D01*
X182102261Y-172795952D01*
X182864166Y-172700714D02*
X183245119Y-172700714D01*
X183007023Y-172367380D02*
X183007023Y-173224523D01*
X183054642Y-173319761D01*
X183149880Y-173367380D01*
X183245119Y-173367380D01*
X183435595Y-172700714D02*
X183816547Y-172700714D01*
X183578452Y-172367380D02*
X183578452Y-173224523D01*
X183626071Y-173319761D01*
X183721309Y-173367380D01*
X183816547Y-173367380D01*
X184149880Y-172700714D02*
X184149880Y-173700714D01*
X184149880Y-172748333D02*
X184245119Y-172700714D01*
X184435595Y-172700714D01*
X184530833Y-172748333D01*
X184578452Y-172795952D01*
X184626071Y-172891190D01*
X184626071Y-173176904D01*
X184578452Y-173272142D01*
X184530833Y-173319761D01*
X184435595Y-173367380D01*
X184245119Y-173367380D01*
X184149880Y-173319761D01*
X185007023Y-173319761D02*
X185102261Y-173367380D01*
X185292738Y-173367380D01*
X185387976Y-173319761D01*
X185435595Y-173224523D01*
X185435595Y-173176904D01*
X185387976Y-173081666D01*
X185292738Y-173034047D01*
X185149880Y-173034047D01*
X185054642Y-172986428D01*
X185007023Y-172891190D01*
X185007023Y-172843571D01*
X185054642Y-172748333D01*
X185149880Y-172700714D01*
X185292738Y-172700714D01*
X185387976Y-172748333D01*
X185864166Y-173272142D02*
X185911785Y-173319761D01*
X185864166Y-173367380D01*
X185816547Y-173319761D01*
X185864166Y-173272142D01*
X185864166Y-173367380D01*
X185864166Y-172748333D02*
X185911785Y-172795952D01*
X185864166Y-172843571D01*
X185816547Y-172795952D01*
X185864166Y-172748333D01*
X185864166Y-172843571D01*
X187054642Y-172319761D02*
X186197500Y-173605476D01*
X188102261Y-172319761D02*
X187245119Y-173605476D01*
X188340357Y-172700714D02*
X188530833Y-173367380D01*
X188721309Y-172891190D01*
X188911785Y-173367380D01*
X189102261Y-172700714D01*
X189387976Y-172700714D02*
X189578452Y-173367380D01*
X189768928Y-172891190D01*
X189959404Y-173367380D01*
X190149880Y-172700714D01*
X190435595Y-172700714D02*
X190626071Y-173367380D01*
X190816547Y-172891190D01*
X191007023Y-173367380D01*
X191197500Y-172700714D01*
X191578452Y-173272142D02*
X191626071Y-173319761D01*
X191578452Y-173367380D01*
X191530833Y-173319761D01*
X191578452Y-173272142D01*
X191578452Y-173367380D01*
X192054642Y-172700714D02*
X192054642Y-173700714D01*
X192054642Y-172748333D02*
X192149880Y-172700714D01*
X192340357Y-172700714D01*
X192435595Y-172748333D01*
X192483214Y-172795952D01*
X192530833Y-172891190D01*
X192530833Y-173176904D01*
X192483214Y-173272142D01*
X192435595Y-173319761D01*
X192340357Y-173367380D01*
X192149880Y-173367380D01*
X192054642Y-173319761D01*
X193102261Y-173367380D02*
X193007023Y-173319761D01*
X192959404Y-173272142D01*
X192911785Y-173176904D01*
X192911785Y-172891190D01*
X192959404Y-172795952D01*
X193007023Y-172748333D01*
X193102261Y-172700714D01*
X193245119Y-172700714D01*
X193340357Y-172748333D01*
X193387976Y-172795952D01*
X193435595Y-172891190D01*
X193435595Y-173176904D01*
X193387976Y-173272142D01*
X193340357Y-173319761D01*
X193245119Y-173367380D01*
X193102261Y-173367380D01*
X194007023Y-173367380D02*
X193911785Y-173319761D01*
X193864166Y-173224523D01*
X193864166Y-172367380D01*
X194530833Y-173367380D02*
X194435595Y-173319761D01*
X194387976Y-173272142D01*
X194340357Y-173176904D01*
X194340357Y-172891190D01*
X194387976Y-172795952D01*
X194435595Y-172748333D01*
X194530833Y-172700714D01*
X194673690Y-172700714D01*
X194768928Y-172748333D01*
X194816547Y-172795952D01*
X194864166Y-172891190D01*
X194864166Y-173176904D01*
X194816547Y-173272142D01*
X194768928Y-173319761D01*
X194673690Y-173367380D01*
X194530833Y-173367380D01*
X195435595Y-173367380D02*
X195340357Y-173319761D01*
X195292738Y-173224523D01*
X195292738Y-172367380D01*
X196245119Y-172700714D02*
X196245119Y-173367380D01*
X195816547Y-172700714D02*
X195816547Y-173224523D01*
X195864166Y-173319761D01*
X195959404Y-173367380D01*
X196102261Y-173367380D01*
X196197500Y-173319761D01*
X196245119Y-173272142D01*
X196721309Y-173272142D02*
X196768928Y-173319761D01*
X196721309Y-173367380D01*
X196673690Y-173319761D01*
X196721309Y-173272142D01*
X196721309Y-173367380D01*
X197626071Y-173319761D02*
X197530833Y-173367380D01*
X197340357Y-173367380D01*
X197245119Y-173319761D01*
X197197500Y-173272142D01*
X197149880Y-173176904D01*
X197149880Y-172891190D01*
X197197500Y-172795952D01*
X197245119Y-172748333D01*
X197340357Y-172700714D01*
X197530833Y-172700714D01*
X197626071Y-172748333D01*
X198197500Y-173367380D02*
X198102261Y-173319761D01*
X198054642Y-173272142D01*
X198007023Y-173176904D01*
X198007023Y-172891190D01*
X198054642Y-172795952D01*
X198102261Y-172748333D01*
X198197500Y-172700714D01*
X198340357Y-172700714D01*
X198435595Y-172748333D01*
X198483214Y-172795952D01*
X198530833Y-172891190D01*
X198530833Y-173176904D01*
X198483214Y-173272142D01*
X198435595Y-173319761D01*
X198340357Y-173367380D01*
X198197500Y-173367380D01*
X198959404Y-173367380D02*
X198959404Y-172700714D01*
X198959404Y-172795952D02*
X199007023Y-172748333D01*
X199102261Y-172700714D01*
X199245119Y-172700714D01*
X199340357Y-172748333D01*
X199387976Y-172843571D01*
X199387976Y-173367380D01*
X199387976Y-172843571D02*
X199435595Y-172748333D01*
X199530833Y-172700714D01*
X199673690Y-172700714D01*
X199768928Y-172748333D01*
X199816547Y-172843571D01*
X199816547Y-173367380D01*
X201007023Y-172319761D02*
X200149880Y-173605476D01*
X201340357Y-172700714D02*
X201340357Y-173700714D01*
X201340357Y-172748333D02*
X201435595Y-172700714D01*
X201626071Y-172700714D01*
X201721309Y-172748333D01*
X201768928Y-172795952D01*
X201816547Y-172891190D01*
X201816547Y-173176904D01*
X201768928Y-173272142D01*
X201721309Y-173319761D01*
X201626071Y-173367380D01*
X201435595Y-173367380D01*
X201340357Y-173319761D01*
X202245119Y-173367380D02*
X202245119Y-172700714D01*
X202245119Y-172891190D02*
X202292738Y-172795952D01*
X202340357Y-172748333D01*
X202435595Y-172700714D01*
X202530833Y-172700714D01*
X203007023Y-173367380D02*
X202911785Y-173319761D01*
X202864166Y-173272142D01*
X202816547Y-173176904D01*
X202816547Y-172891190D01*
X202864166Y-172795952D01*
X202911785Y-172748333D01*
X203007023Y-172700714D01*
X203149880Y-172700714D01*
X203245119Y-172748333D01*
X203292738Y-172795952D01*
X203340357Y-172891190D01*
X203340357Y-173176904D01*
X203292738Y-173272142D01*
X203245119Y-173319761D01*
X203149880Y-173367380D01*
X203007023Y-173367380D01*
X204197500Y-173367380D02*
X204197500Y-172367380D01*
X204197500Y-173319761D02*
X204102261Y-173367380D01*
X203911785Y-173367380D01*
X203816547Y-173319761D01*
X203768928Y-173272142D01*
X203721309Y-173176904D01*
X203721309Y-172891190D01*
X203768928Y-172795952D01*
X203816547Y-172748333D01*
X203911785Y-172700714D01*
X204102261Y-172700714D01*
X204197500Y-172748333D01*
X205102261Y-172700714D02*
X205102261Y-173367380D01*
X204673690Y-172700714D02*
X204673690Y-173224523D01*
X204721309Y-173319761D01*
X204816547Y-173367380D01*
X204959404Y-173367380D01*
X205054642Y-173319761D01*
X205102261Y-173272142D01*
X206007023Y-173319761D02*
X205911785Y-173367380D01*
X205721309Y-173367380D01*
X205626071Y-173319761D01*
X205578452Y-173272142D01*
X205530833Y-173176904D01*
X205530833Y-172891190D01*
X205578452Y-172795952D01*
X205626071Y-172748333D01*
X205721309Y-172700714D01*
X205911785Y-172700714D01*
X206007023Y-172748333D01*
X206292738Y-172700714D02*
X206673690Y-172700714D01*
X206435595Y-172367380D02*
X206435595Y-173224523D01*
X206483214Y-173319761D01*
X206578452Y-173367380D01*
X206673690Y-173367380D01*
X207721309Y-172319761D02*
X206864166Y-173605476D01*
X208007023Y-172462619D02*
X208054642Y-172415000D01*
X208149880Y-172367380D01*
X208387976Y-172367380D01*
X208483214Y-172415000D01*
X208530833Y-172462619D01*
X208578452Y-172557857D01*
X208578452Y-172653095D01*
X208530833Y-172795952D01*
X207959404Y-173367380D01*
X208578452Y-173367380D01*
X209054642Y-173367380D02*
X209245119Y-173367380D01*
X209340357Y-173319761D01*
X209387976Y-173272142D01*
X209483214Y-173129285D01*
X209530833Y-172938809D01*
X209530833Y-172557857D01*
X209483214Y-172462619D01*
X209435595Y-172415000D01*
X209340357Y-172367380D01*
X209149880Y-172367380D01*
X209054642Y-172415000D01*
X209007023Y-172462619D01*
X208959404Y-172557857D01*
X208959404Y-172795952D01*
X209007023Y-172891190D01*
X209054642Y-172938809D01*
X209149880Y-172986428D01*
X209340357Y-172986428D01*
X209435595Y-172938809D01*
X209483214Y-172891190D01*
X209530833Y-172795952D01*
X210007023Y-173367380D02*
X210197500Y-173367380D01*
X210292738Y-173319761D01*
X210340357Y-173272142D01*
X210435595Y-173129285D01*
X210483214Y-172938809D01*
X210483214Y-172557857D01*
X210435595Y-172462619D01*
X210387976Y-172415000D01*
X210292738Y-172367380D01*
X210102261Y-172367380D01*
X210007023Y-172415000D01*
X209959404Y-172462619D01*
X209911785Y-172557857D01*
X209911785Y-172795952D01*
X209959404Y-172891190D01*
X210007023Y-172938809D01*
X210102261Y-172986428D01*
X210292738Y-172986428D01*
X210387976Y-172938809D01*
X210435595Y-172891190D01*
X210483214Y-172795952D01*
X211435595Y-173367380D02*
X210864166Y-173367380D01*
X211149880Y-173367380D02*
X211149880Y-172367380D01*
X211054642Y-172510238D01*
X210959404Y-172605476D01*
X210864166Y-172653095D01*
D12*
X69190476Y-88823690D02*
X69190476Y-88323690D01*
X69357142Y-88680833D01*
X69523809Y-88323690D01*
X69523809Y-88823690D01*
X69976190Y-88823690D02*
X69976190Y-88561785D01*
X69952380Y-88514166D01*
X69904761Y-88490357D01*
X69809523Y-88490357D01*
X69761904Y-88514166D01*
X69976190Y-88799880D02*
X69928571Y-88823690D01*
X69809523Y-88823690D01*
X69761904Y-88799880D01*
X69738095Y-88752261D01*
X69738095Y-88704642D01*
X69761904Y-88657023D01*
X69809523Y-88633214D01*
X69928571Y-88633214D01*
X69976190Y-88609404D01*
X70166666Y-88490357D02*
X70285714Y-88823690D01*
X70404761Y-88490357D02*
X70285714Y-88823690D01*
X70238095Y-88942738D01*
X70214285Y-88966547D01*
X70166666Y-88990357D01*
X70928571Y-88490357D02*
X71023809Y-88823690D01*
X71119047Y-88585595D01*
X71214285Y-88823690D01*
X71309523Y-88490357D01*
X71714285Y-88823690D02*
X71714285Y-88561785D01*
X71690476Y-88514166D01*
X71642857Y-88490357D01*
X71547619Y-88490357D01*
X71500000Y-88514166D01*
X71714285Y-88799880D02*
X71666666Y-88823690D01*
X71547619Y-88823690D01*
X71500000Y-88799880D01*
X71476190Y-88752261D01*
X71476190Y-88704642D01*
X71500000Y-88657023D01*
X71547619Y-88633214D01*
X71666666Y-88633214D01*
X71714285Y-88609404D01*
X71952380Y-88490357D02*
X71952380Y-88823690D01*
X71952380Y-88537976D02*
X71976190Y-88514166D01*
X72023809Y-88490357D01*
X72095238Y-88490357D01*
X72142857Y-88514166D01*
X72166666Y-88561785D01*
X72166666Y-88823690D01*
X72333333Y-88490357D02*
X72523809Y-88490357D01*
X72404761Y-88323690D02*
X72404761Y-88752261D01*
X72428571Y-88799880D01*
X72476190Y-88823690D01*
X72523809Y-88823690D01*
X73000000Y-88490357D02*
X73190476Y-88490357D01*
X73071428Y-88323690D02*
X73071428Y-88752261D01*
X73095238Y-88799880D01*
X73142857Y-88823690D01*
X73190476Y-88823690D01*
X73428571Y-88823690D02*
X73380952Y-88799880D01*
X73357142Y-88776071D01*
X73333333Y-88728452D01*
X73333333Y-88585595D01*
X73357142Y-88537976D01*
X73380952Y-88514166D01*
X73428571Y-88490357D01*
X73500000Y-88490357D01*
X73547619Y-88514166D01*
X73571428Y-88537976D01*
X73595238Y-88585595D01*
X73595238Y-88728452D01*
X73571428Y-88776071D01*
X73547619Y-88799880D01*
X73500000Y-88823690D01*
X73428571Y-88823690D01*
X74190476Y-88823690D02*
X74190476Y-88490357D01*
X74190476Y-88323690D02*
X74166666Y-88347500D01*
X74190476Y-88371309D01*
X74214285Y-88347500D01*
X74190476Y-88323690D01*
X74190476Y-88371309D01*
X74428571Y-88490357D02*
X74428571Y-88823690D01*
X74428571Y-88537976D02*
X74452380Y-88514166D01*
X74500000Y-88490357D01*
X74571428Y-88490357D01*
X74619047Y-88514166D01*
X74642857Y-88561785D01*
X74642857Y-88823690D01*
X75095238Y-88799880D02*
X75047619Y-88823690D01*
X74952380Y-88823690D01*
X74904761Y-88799880D01*
X74880952Y-88776071D01*
X74857142Y-88728452D01*
X74857142Y-88585595D01*
X74880952Y-88537976D01*
X74904761Y-88514166D01*
X74952380Y-88490357D01*
X75047619Y-88490357D01*
X75095238Y-88514166D01*
X75309523Y-88823690D02*
X75309523Y-88490357D01*
X75309523Y-88585595D02*
X75333333Y-88537976D01*
X75357142Y-88514166D01*
X75404761Y-88490357D01*
X75452380Y-88490357D01*
X75809523Y-88799880D02*
X75761904Y-88823690D01*
X75666666Y-88823690D01*
X75619047Y-88799880D01*
X75595238Y-88752261D01*
X75595238Y-88561785D01*
X75619047Y-88514166D01*
X75666666Y-88490357D01*
X75761904Y-88490357D01*
X75809523Y-88514166D01*
X75833333Y-88561785D01*
X75833333Y-88609404D01*
X75595238Y-88657023D01*
X76261904Y-88823690D02*
X76261904Y-88561785D01*
X76238095Y-88514166D01*
X76190476Y-88490357D01*
X76095238Y-88490357D01*
X76047619Y-88514166D01*
X76261904Y-88799880D02*
X76214285Y-88823690D01*
X76095238Y-88823690D01*
X76047619Y-88799880D01*
X76023809Y-88752261D01*
X76023809Y-88704642D01*
X76047619Y-88657023D01*
X76095238Y-88633214D01*
X76214285Y-88633214D01*
X76261904Y-88609404D01*
X76476190Y-88799880D02*
X76523809Y-88823690D01*
X76619047Y-88823690D01*
X76666666Y-88799880D01*
X76690476Y-88752261D01*
X76690476Y-88728452D01*
X76666666Y-88680833D01*
X76619047Y-88657023D01*
X76547619Y-88657023D01*
X76500000Y-88633214D01*
X76476190Y-88585595D01*
X76476190Y-88561785D01*
X76500000Y-88514166D01*
X76547619Y-88490357D01*
X76619047Y-88490357D01*
X76666666Y-88514166D01*
X77095238Y-88799880D02*
X77047619Y-88823690D01*
X76952380Y-88823690D01*
X76904761Y-88799880D01*
X76880952Y-88752261D01*
X76880952Y-88561785D01*
X76904761Y-88514166D01*
X76952380Y-88490357D01*
X77047619Y-88490357D01*
X77095238Y-88514166D01*
X77119047Y-88561785D01*
X77119047Y-88609404D01*
X76880952Y-88657023D01*
X77642857Y-88490357D02*
X77833333Y-88490357D01*
X77714285Y-88323690D02*
X77714285Y-88752261D01*
X77738095Y-88799880D01*
X77785714Y-88823690D01*
X77833333Y-88823690D01*
X78000000Y-88823690D02*
X78000000Y-88323690D01*
X78214285Y-88823690D02*
X78214285Y-88561785D01*
X78190476Y-88514166D01*
X78142857Y-88490357D01*
X78071428Y-88490357D01*
X78023809Y-88514166D01*
X78000000Y-88537976D01*
X78642857Y-88799880D02*
X78595238Y-88823690D01*
X78500000Y-88823690D01*
X78452380Y-88799880D01*
X78428571Y-88752261D01*
X78428571Y-88561785D01*
X78452380Y-88514166D01*
X78500000Y-88490357D01*
X78595238Y-88490357D01*
X78642857Y-88514166D01*
X78666666Y-88561785D01*
X78666666Y-88609404D01*
X78428571Y-88657023D01*
X79238095Y-88799880D02*
X79285714Y-88823690D01*
X79380952Y-88823690D01*
X79428571Y-88799880D01*
X79452380Y-88752261D01*
X79452380Y-88728452D01*
X79428571Y-88680833D01*
X79380952Y-88657023D01*
X79309523Y-88657023D01*
X79261904Y-88633214D01*
X79238095Y-88585595D01*
X79238095Y-88561785D01*
X79261904Y-88514166D01*
X79309523Y-88490357D01*
X79380952Y-88490357D01*
X79428571Y-88514166D01*
X79666666Y-88490357D02*
X79666666Y-88990357D01*
X79666666Y-88514166D02*
X79714285Y-88490357D01*
X79809523Y-88490357D01*
X79857142Y-88514166D01*
X79880952Y-88537976D01*
X79904761Y-88585595D01*
X79904761Y-88728452D01*
X79880952Y-88776071D01*
X79857142Y-88799880D01*
X79809523Y-88823690D01*
X79714285Y-88823690D01*
X79666666Y-88799880D01*
X80333333Y-88823690D02*
X80333333Y-88561785D01*
X80309523Y-88514166D01*
X80261904Y-88490357D01*
X80166666Y-88490357D01*
X80119047Y-88514166D01*
X80333333Y-88799880D02*
X80285714Y-88823690D01*
X80166666Y-88823690D01*
X80119047Y-88799880D01*
X80095238Y-88752261D01*
X80095238Y-88704642D01*
X80119047Y-88657023D01*
X80166666Y-88633214D01*
X80285714Y-88633214D01*
X80333333Y-88609404D01*
X80785714Y-88799880D02*
X80738095Y-88823690D01*
X80642857Y-88823690D01*
X80595238Y-88799880D01*
X80571428Y-88776071D01*
X80547619Y-88728452D01*
X80547619Y-88585595D01*
X80571428Y-88537976D01*
X80595238Y-88514166D01*
X80642857Y-88490357D01*
X80738095Y-88490357D01*
X80785714Y-88514166D01*
X81190476Y-88799880D02*
X81142857Y-88823690D01*
X81047619Y-88823690D01*
X81000000Y-88799880D01*
X80976190Y-88752261D01*
X80976190Y-88561785D01*
X81000000Y-88514166D01*
X81047619Y-88490357D01*
X81142857Y-88490357D01*
X81190476Y-88514166D01*
X81214285Y-88561785D01*
X81214285Y-88609404D01*
X80976190Y-88657023D01*
X81809523Y-88490357D02*
X82190476Y-88633214D01*
X81809523Y-88776071D01*
X82428571Y-88490357D02*
X82809523Y-88633214D01*
X82428571Y-88776071D01*
X70595238Y-89628690D02*
X70595238Y-89128690D01*
X70595238Y-89319166D02*
X70642857Y-89295357D01*
X70738095Y-89295357D01*
X70785714Y-89319166D01*
X70809523Y-89342976D01*
X70833333Y-89390595D01*
X70833333Y-89533452D01*
X70809523Y-89581071D01*
X70785714Y-89604880D01*
X70738095Y-89628690D01*
X70642857Y-89628690D01*
X70595238Y-89604880D01*
X71238095Y-89604880D02*
X71190476Y-89628690D01*
X71095238Y-89628690D01*
X71047619Y-89604880D01*
X71023809Y-89557261D01*
X71023809Y-89366785D01*
X71047619Y-89319166D01*
X71095238Y-89295357D01*
X71190476Y-89295357D01*
X71238095Y-89319166D01*
X71261904Y-89366785D01*
X71261904Y-89414404D01*
X71023809Y-89462023D01*
X71404761Y-89295357D02*
X71595238Y-89295357D01*
X71476190Y-89128690D02*
X71476190Y-89557261D01*
X71500000Y-89604880D01*
X71547619Y-89628690D01*
X71595238Y-89628690D01*
X71714285Y-89295357D02*
X71809523Y-89628690D01*
X71904761Y-89390595D01*
X72000000Y-89628690D01*
X72095238Y-89295357D01*
X72476190Y-89604880D02*
X72428571Y-89628690D01*
X72333333Y-89628690D01*
X72285714Y-89604880D01*
X72261904Y-89557261D01*
X72261904Y-89366785D01*
X72285714Y-89319166D01*
X72333333Y-89295357D01*
X72428571Y-89295357D01*
X72476190Y-89319166D01*
X72500000Y-89366785D01*
X72500000Y-89414404D01*
X72261904Y-89462023D01*
X72904761Y-89604880D02*
X72857142Y-89628690D01*
X72761904Y-89628690D01*
X72714285Y-89604880D01*
X72690476Y-89557261D01*
X72690476Y-89366785D01*
X72714285Y-89319166D01*
X72761904Y-89295357D01*
X72857142Y-89295357D01*
X72904761Y-89319166D01*
X72928571Y-89366785D01*
X72928571Y-89414404D01*
X72690476Y-89462023D01*
X73142857Y-89295357D02*
X73142857Y-89628690D01*
X73142857Y-89342976D02*
X73166666Y-89319166D01*
X73214285Y-89295357D01*
X73285714Y-89295357D01*
X73333333Y-89319166D01*
X73357142Y-89366785D01*
X73357142Y-89628690D01*
X73952380Y-89604880D02*
X74000000Y-89628690D01*
X74095238Y-89628690D01*
X74142857Y-89604880D01*
X74166666Y-89557261D01*
X74166666Y-89533452D01*
X74142857Y-89485833D01*
X74095238Y-89462023D01*
X74023809Y-89462023D01*
X73976190Y-89438214D01*
X73952380Y-89390595D01*
X73952380Y-89366785D01*
X73976190Y-89319166D01*
X74023809Y-89295357D01*
X74095238Y-89295357D01*
X74142857Y-89319166D01*
X74333333Y-89295357D02*
X74428571Y-89628690D01*
X74523809Y-89390595D01*
X74619047Y-89628690D01*
X74714285Y-89295357D01*
X74904761Y-89628690D02*
X74904761Y-89295357D01*
X74904761Y-89128690D02*
X74880952Y-89152500D01*
X74904761Y-89176309D01*
X74928571Y-89152500D01*
X74904761Y-89128690D01*
X74904761Y-89176309D01*
X75071428Y-89295357D02*
X75261904Y-89295357D01*
X75142857Y-89128690D02*
X75142857Y-89557261D01*
X75166666Y-89604880D01*
X75214285Y-89628690D01*
X75261904Y-89628690D01*
X75642857Y-89604880D02*
X75595238Y-89628690D01*
X75500000Y-89628690D01*
X75452380Y-89604880D01*
X75428571Y-89581071D01*
X75404761Y-89533452D01*
X75404761Y-89390595D01*
X75428571Y-89342976D01*
X75452380Y-89319166D01*
X75500000Y-89295357D01*
X75595238Y-89295357D01*
X75642857Y-89319166D01*
X75857142Y-89628690D02*
X75857142Y-89128690D01*
X76071428Y-89628690D02*
X76071428Y-89366785D01*
X76047619Y-89319166D01*
X76000000Y-89295357D01*
X75928571Y-89295357D01*
X75880952Y-89319166D01*
X75857142Y-89342976D01*
X76309523Y-89628690D02*
X76309523Y-89295357D01*
X76309523Y-89128690D02*
X76285714Y-89152500D01*
X76309523Y-89176309D01*
X76333333Y-89152500D01*
X76309523Y-89128690D01*
X76309523Y-89176309D01*
X76547619Y-89295357D02*
X76547619Y-89628690D01*
X76547619Y-89342976D02*
X76571428Y-89319166D01*
X76619047Y-89295357D01*
X76690476Y-89295357D01*
X76738095Y-89319166D01*
X76761904Y-89366785D01*
X76761904Y-89628690D01*
X77214285Y-89295357D02*
X77214285Y-89700119D01*
X77190476Y-89747738D01*
X77166666Y-89771547D01*
X77119047Y-89795357D01*
X77047619Y-89795357D01*
X77000000Y-89771547D01*
X77214285Y-89604880D02*
X77166666Y-89628690D01*
X77071428Y-89628690D01*
X77023809Y-89604880D01*
X77000000Y-89581071D01*
X76976190Y-89533452D01*
X76976190Y-89390595D01*
X77000000Y-89342976D01*
X77023809Y-89319166D01*
X77071428Y-89295357D01*
X77166666Y-89295357D01*
X77214285Y-89319166D01*
X77833333Y-89628690D02*
X77833333Y-89295357D01*
X77833333Y-89390595D02*
X77857142Y-89342976D01*
X77880952Y-89319166D01*
X77928571Y-89295357D01*
X77976190Y-89295357D01*
X78333333Y-89604880D02*
X78285714Y-89628690D01*
X78190476Y-89628690D01*
X78142857Y-89604880D01*
X78119047Y-89557261D01*
X78119047Y-89366785D01*
X78142857Y-89319166D01*
X78190476Y-89295357D01*
X78285714Y-89295357D01*
X78333333Y-89319166D01*
X78357142Y-89366785D01*
X78357142Y-89414404D01*
X78119047Y-89462023D01*
X78785714Y-89295357D02*
X78785714Y-89700119D01*
X78761904Y-89747738D01*
X78738095Y-89771547D01*
X78690476Y-89795357D01*
X78619047Y-89795357D01*
X78571428Y-89771547D01*
X78785714Y-89604880D02*
X78738095Y-89628690D01*
X78642857Y-89628690D01*
X78595238Y-89604880D01*
X78571428Y-89581071D01*
X78547619Y-89533452D01*
X78547619Y-89390595D01*
X78571428Y-89342976D01*
X78595238Y-89319166D01*
X78642857Y-89295357D01*
X78738095Y-89295357D01*
X78785714Y-89319166D01*
X79238095Y-89295357D02*
X79238095Y-89628690D01*
X79023809Y-89295357D02*
X79023809Y-89557261D01*
X79047619Y-89604880D01*
X79095238Y-89628690D01*
X79166666Y-89628690D01*
X79214285Y-89604880D01*
X79238095Y-89581071D01*
X79547619Y-89628690D02*
X79500000Y-89604880D01*
X79476190Y-89557261D01*
X79476190Y-89128690D01*
X79952380Y-89628690D02*
X79952380Y-89366785D01*
X79928571Y-89319166D01*
X79880952Y-89295357D01*
X79785714Y-89295357D01*
X79738095Y-89319166D01*
X79952380Y-89604880D02*
X79904761Y-89628690D01*
X79785714Y-89628690D01*
X79738095Y-89604880D01*
X79714285Y-89557261D01*
X79714285Y-89509642D01*
X79738095Y-89462023D01*
X79785714Y-89438214D01*
X79904761Y-89438214D01*
X79952380Y-89414404D01*
X80119047Y-89295357D02*
X80309523Y-89295357D01*
X80190476Y-89128690D02*
X80190476Y-89557261D01*
X80214285Y-89604880D01*
X80261904Y-89628690D01*
X80309523Y-89628690D01*
X80547619Y-89628690D02*
X80500000Y-89604880D01*
X80476190Y-89581071D01*
X80452380Y-89533452D01*
X80452380Y-89390595D01*
X80476190Y-89342976D01*
X80500000Y-89319166D01*
X80547619Y-89295357D01*
X80619047Y-89295357D01*
X80666666Y-89319166D01*
X80690476Y-89342976D01*
X80714285Y-89390595D01*
X80714285Y-89533452D01*
X80690476Y-89581071D01*
X80666666Y-89604880D01*
X80619047Y-89628690D01*
X80547619Y-89628690D01*
X80928571Y-89628690D02*
X80928571Y-89295357D01*
X80928571Y-89390595D02*
X80952380Y-89342976D01*
X80976190Y-89319166D01*
X81023809Y-89295357D01*
X81071428Y-89295357D01*
X81214285Y-89604880D02*
X81261904Y-89628690D01*
X81357142Y-89628690D01*
X81404761Y-89604880D01*
X81428571Y-89557261D01*
X81428571Y-89533452D01*
X81404761Y-89485833D01*
X81357142Y-89462023D01*
X81285714Y-89462023D01*
X81238095Y-89438214D01*
X81214285Y-89390595D01*
X81214285Y-89366785D01*
X81238095Y-89319166D01*
X81285714Y-89295357D01*
X81357142Y-89295357D01*
X81404761Y-89319166D01*
D13*
X135622328Y-70191071D02*
X135640185Y-70197023D01*
X135646138Y-70202976D01*
X135652090Y-70214880D01*
X135652090Y-70232738D01*
X135646138Y-70244642D01*
X135640185Y-70250595D01*
X135628280Y-70256547D01*
X135580661Y-70256547D01*
X135580661Y-70131547D01*
X135622328Y-70131547D01*
X135634233Y-70137500D01*
X135640185Y-70143452D01*
X135646138Y-70155357D01*
X135646138Y-70167261D01*
X135640185Y-70179166D01*
X135634233Y-70185119D01*
X135622328Y-70191071D01*
X135580661Y-70191071D01*
X135753280Y-70250595D02*
X135741376Y-70256547D01*
X135717566Y-70256547D01*
X135705661Y-70250595D01*
X135699709Y-70238690D01*
X135699709Y-70191071D01*
X135705661Y-70179166D01*
X135717566Y-70173214D01*
X135741376Y-70173214D01*
X135753280Y-70179166D01*
X135759233Y-70191071D01*
X135759233Y-70202976D01*
X135699709Y-70214880D01*
X135961614Y-70250595D02*
X135949709Y-70256547D01*
X135925900Y-70256547D01*
X135913995Y-70250595D01*
X135908042Y-70244642D01*
X135902090Y-70232738D01*
X135902090Y-70197023D01*
X135908042Y-70185119D01*
X135913995Y-70179166D01*
X135925900Y-70173214D01*
X135949709Y-70173214D01*
X135961614Y-70179166D01*
X136068757Y-70256547D02*
X136068757Y-70191071D01*
X136062804Y-70179166D01*
X136050900Y-70173214D01*
X136027090Y-70173214D01*
X136015185Y-70179166D01*
X136068757Y-70250595D02*
X136056852Y-70256547D01*
X136027090Y-70256547D01*
X136015185Y-70250595D01*
X136009233Y-70238690D01*
X136009233Y-70226785D01*
X136015185Y-70214880D01*
X136027090Y-70208928D01*
X136056852Y-70208928D01*
X136068757Y-70202976D01*
X136128280Y-70256547D02*
X136128280Y-70173214D01*
X136128280Y-70197023D02*
X136134233Y-70185119D01*
X136140185Y-70179166D01*
X136152090Y-70173214D01*
X136163995Y-70173214D01*
X136253280Y-70250595D02*
X136241376Y-70256547D01*
X136217566Y-70256547D01*
X136205661Y-70250595D01*
X136199709Y-70238690D01*
X136199709Y-70191071D01*
X136205661Y-70179166D01*
X136217566Y-70173214D01*
X136241376Y-70173214D01*
X136253280Y-70179166D01*
X136259233Y-70191071D01*
X136259233Y-70202976D01*
X136199709Y-70214880D01*
X136294947Y-70173214D02*
X136342566Y-70173214D01*
X136312804Y-70256547D02*
X136312804Y-70149404D01*
X136318757Y-70137500D01*
X136330661Y-70131547D01*
X136342566Y-70131547D01*
X136437804Y-70173214D02*
X136437804Y-70256547D01*
X136384233Y-70173214D02*
X136384233Y-70238690D01*
X136390185Y-70250595D01*
X136402090Y-70256547D01*
X136419947Y-70256547D01*
X136431852Y-70250595D01*
X136437804Y-70244642D01*
X136515185Y-70256547D02*
X136503280Y-70250595D01*
X136497328Y-70238690D01*
X136497328Y-70131547D01*
X136711614Y-70256547D02*
X136711614Y-70191071D01*
X136705661Y-70179166D01*
X136693757Y-70173214D01*
X136669947Y-70173214D01*
X136658042Y-70179166D01*
X136711614Y-70250595D02*
X136699709Y-70256547D01*
X136669947Y-70256547D01*
X136658042Y-70250595D01*
X136652090Y-70238690D01*
X136652090Y-70226785D01*
X136658042Y-70214880D01*
X136669947Y-70208928D01*
X136699709Y-70208928D01*
X136711614Y-70202976D01*
X136771138Y-70256547D02*
X136771138Y-70131547D01*
X136771138Y-70179166D02*
X136783042Y-70173214D01*
X136806852Y-70173214D01*
X136818757Y-70179166D01*
X136824709Y-70185119D01*
X136830661Y-70197023D01*
X136830661Y-70232738D01*
X136824709Y-70244642D01*
X136818757Y-70250595D01*
X136806852Y-70256547D01*
X136783042Y-70256547D01*
X136771138Y-70250595D01*
X136902090Y-70256547D02*
X136890185Y-70250595D01*
X136884233Y-70244642D01*
X136878280Y-70232738D01*
X136878280Y-70197023D01*
X136884233Y-70185119D01*
X136890185Y-70179166D01*
X136902090Y-70173214D01*
X136919947Y-70173214D01*
X136931852Y-70179166D01*
X136937804Y-70185119D01*
X136943757Y-70197023D01*
X136943757Y-70232738D01*
X136937804Y-70244642D01*
X136931852Y-70250595D01*
X136919947Y-70256547D01*
X136902090Y-70256547D01*
X137050900Y-70173214D02*
X137050900Y-70256547D01*
X136997328Y-70173214D02*
X136997328Y-70238690D01*
X137003280Y-70250595D01*
X137015185Y-70256547D01*
X137033042Y-70256547D01*
X137044947Y-70250595D01*
X137050900Y-70244642D01*
X137092566Y-70173214D02*
X137140185Y-70173214D01*
X137110423Y-70131547D02*
X137110423Y-70238690D01*
X137116376Y-70250595D01*
X137128280Y-70256547D01*
X137140185Y-70256547D01*
X137271138Y-70250595D02*
X137283042Y-70256547D01*
X137306852Y-70256547D01*
X137318757Y-70250595D01*
X137324709Y-70238690D01*
X137324709Y-70232738D01*
X137318757Y-70220833D01*
X137306852Y-70214880D01*
X137288995Y-70214880D01*
X137277090Y-70208928D01*
X137271138Y-70197023D01*
X137271138Y-70191071D01*
X137277090Y-70179166D01*
X137288995Y-70173214D01*
X137306852Y-70173214D01*
X137318757Y-70179166D01*
X137366376Y-70173214D02*
X137390185Y-70256547D01*
X137413995Y-70197023D01*
X137437804Y-70256547D01*
X137461614Y-70173214D01*
X137509233Y-70256547D02*
X137509233Y-70173214D01*
X137509233Y-70131547D02*
X137503280Y-70137500D01*
X137509233Y-70143452D01*
X137515185Y-70137500D01*
X137509233Y-70131547D01*
X137509233Y-70143452D01*
X137550900Y-70173214D02*
X137598519Y-70173214D01*
X137568757Y-70131547D02*
X137568757Y-70238690D01*
X137574709Y-70250595D01*
X137586614Y-70256547D01*
X137598519Y-70256547D01*
X137693757Y-70250595D02*
X137681852Y-70256547D01*
X137658042Y-70256547D01*
X137646138Y-70250595D01*
X137640185Y-70244642D01*
X137634233Y-70232738D01*
X137634233Y-70197023D01*
X137640185Y-70185119D01*
X137646138Y-70179166D01*
X137658042Y-70173214D01*
X137681852Y-70173214D01*
X137693757Y-70179166D01*
X137747328Y-70256547D02*
X137747328Y-70131547D01*
X137800900Y-70256547D02*
X137800900Y-70191071D01*
X137794947Y-70179166D01*
X137783042Y-70173214D01*
X137765185Y-70173214D01*
X137753280Y-70179166D01*
X137747328Y-70185119D01*
X137860423Y-70256547D02*
X137860423Y-70173214D01*
X137860423Y-70131547D02*
X137854471Y-70137500D01*
X137860423Y-70143452D01*
X137866376Y-70137500D01*
X137860423Y-70131547D01*
X137860423Y-70143452D01*
X137919947Y-70173214D02*
X137919947Y-70256547D01*
X137919947Y-70185119D02*
X137925900Y-70179166D01*
X137937804Y-70173214D01*
X137955661Y-70173214D01*
X137967566Y-70179166D01*
X137973519Y-70191071D01*
X137973519Y-70256547D01*
X138086614Y-70173214D02*
X138086614Y-70274404D01*
X138080661Y-70286309D01*
X138074709Y-70292261D01*
X138062804Y-70298214D01*
X138044947Y-70298214D01*
X138033042Y-70292261D01*
X138086614Y-70250595D02*
X138074709Y-70256547D01*
X138050900Y-70256547D01*
X138038995Y-70250595D01*
X138033042Y-70244642D01*
X138027090Y-70232738D01*
X138027090Y-70197023D01*
X138033042Y-70185119D01*
X138038995Y-70179166D01*
X138050900Y-70173214D01*
X138074709Y-70173214D01*
X138086614Y-70179166D01*
X138241376Y-70173214D02*
X138241376Y-70256547D01*
X138241376Y-70185119D02*
X138247328Y-70179166D01*
X138259233Y-70173214D01*
X138277090Y-70173214D01*
X138288995Y-70179166D01*
X138294947Y-70191071D01*
X138294947Y-70256547D01*
X138372328Y-70256547D02*
X138360423Y-70250595D01*
X138354471Y-70244642D01*
X138348519Y-70232738D01*
X138348519Y-70197023D01*
X138354471Y-70185119D01*
X138360423Y-70179166D01*
X138372328Y-70173214D01*
X138390185Y-70173214D01*
X138402090Y-70179166D01*
X138408042Y-70185119D01*
X138413995Y-70197023D01*
X138413995Y-70232738D01*
X138408042Y-70244642D01*
X138402090Y-70250595D01*
X138390185Y-70256547D01*
X138372328Y-70256547D01*
X138467566Y-70256547D02*
X138467566Y-70173214D01*
X138467566Y-70131547D02*
X138461614Y-70137500D01*
X138467566Y-70143452D01*
X138473519Y-70137500D01*
X138467566Y-70131547D01*
X138467566Y-70143452D01*
X138521138Y-70250595D02*
X138533042Y-70256547D01*
X138556852Y-70256547D01*
X138568757Y-70250595D01*
X138574709Y-70238690D01*
X138574709Y-70232738D01*
X138568757Y-70220833D01*
X138556852Y-70214880D01*
X138538995Y-70214880D01*
X138527090Y-70208928D01*
X138521138Y-70197023D01*
X138521138Y-70191071D01*
X138527090Y-70179166D01*
X138538995Y-70173214D01*
X138556852Y-70173214D01*
X138568757Y-70179166D01*
X138675900Y-70250595D02*
X138663995Y-70256547D01*
X138640185Y-70256547D01*
X138628280Y-70250595D01*
X138622328Y-70238690D01*
X138622328Y-70191071D01*
X138628280Y-70179166D01*
X138640185Y-70173214D01*
X138663995Y-70173214D01*
X138675900Y-70179166D01*
X138681852Y-70191071D01*
X138681852Y-70202976D01*
X138622328Y-70214880D01*
X138830661Y-70173214D02*
X138830661Y-70256547D01*
X138830661Y-70185119D02*
X138836614Y-70179166D01*
X138848519Y-70173214D01*
X138866376Y-70173214D01*
X138878280Y-70179166D01*
X138884233Y-70191071D01*
X138884233Y-70256547D01*
X138991376Y-70250595D02*
X138979471Y-70256547D01*
X138955661Y-70256547D01*
X138943757Y-70250595D01*
X138937804Y-70238690D01*
X138937804Y-70191071D01*
X138943757Y-70179166D01*
X138955661Y-70173214D01*
X138979471Y-70173214D01*
X138991376Y-70179166D01*
X138997328Y-70191071D01*
X138997328Y-70202976D01*
X138937804Y-70214880D01*
X139104471Y-70256547D02*
X139104471Y-70191071D01*
X139098519Y-70179166D01*
X139086614Y-70173214D01*
X139062804Y-70173214D01*
X139050900Y-70179166D01*
X139104471Y-70250595D02*
X139092566Y-70256547D01*
X139062804Y-70256547D01*
X139050900Y-70250595D01*
X139044947Y-70238690D01*
X139044947Y-70226785D01*
X139050900Y-70214880D01*
X139062804Y-70208928D01*
X139092566Y-70208928D01*
X139104471Y-70202976D01*
X139163995Y-70256547D02*
X139163995Y-70173214D01*
X139163995Y-70197023D02*
X139169947Y-70185119D01*
X139175900Y-70179166D01*
X139187804Y-70173214D01*
X139199709Y-70173214D01*
X139390185Y-70250595D02*
X139378280Y-70256547D01*
X139354471Y-70256547D01*
X139342566Y-70250595D01*
X139336614Y-70244642D01*
X139330661Y-70232738D01*
X139330661Y-70197023D01*
X139336614Y-70185119D01*
X139342566Y-70179166D01*
X139354471Y-70173214D01*
X139378280Y-70173214D01*
X139390185Y-70179166D01*
X139461614Y-70256547D02*
X139449709Y-70250595D01*
X139443757Y-70238690D01*
X139443757Y-70131547D01*
X139527090Y-70256547D02*
X139515185Y-70250595D01*
X139509233Y-70244642D01*
X139503280Y-70232738D01*
X139503280Y-70197023D01*
X139509233Y-70185119D01*
X139515185Y-70179166D01*
X139527090Y-70173214D01*
X139544947Y-70173214D01*
X139556852Y-70179166D01*
X139562804Y-70185119D01*
X139568757Y-70197023D01*
X139568757Y-70232738D01*
X139562804Y-70244642D01*
X139556852Y-70250595D01*
X139544947Y-70256547D01*
X139527090Y-70256547D01*
X139675900Y-70250595D02*
X139663995Y-70256547D01*
X139640185Y-70256547D01*
X139628280Y-70250595D01*
X139622328Y-70244642D01*
X139616376Y-70232738D01*
X139616376Y-70197023D01*
X139622328Y-70185119D01*
X139628280Y-70179166D01*
X139640185Y-70173214D01*
X139663995Y-70173214D01*
X139675900Y-70179166D01*
X139729471Y-70256547D02*
X139729471Y-70131547D01*
X139741376Y-70208928D02*
X139777090Y-70256547D01*
X139777090Y-70173214D02*
X139729471Y-70220833D01*
D14*
%TO.C,MOSFET301*%
X100225000Y-112641900D02*
X100225000Y-112895900D01*
X100529800Y-99218000D02*
X100529800Y-99472000D01*
X100275800Y-99345000D02*
X106524200Y-99345000D01*
X100987000Y-103155000D02*
X101241000Y-103282000D01*
X100275800Y-103155000D02*
X100021800Y-103282000D01*
X108861000Y-104971100D02*
X108734000Y-105225100D01*
X100275800Y-105695000D02*
X100275800Y-98964000D01*
X106397200Y-115308900D02*
X106143200Y-115181900D01*
X99971000Y-109593900D02*
X99971000Y-113149900D01*
X106524200Y-99345000D02*
X106270200Y-99472000D01*
X106397200Y-115308900D02*
X106143200Y-115435900D01*
X108861000Y-110228900D02*
X108734000Y-109974900D01*
X100656800Y-115181900D02*
X100656800Y-115435900D01*
X99971000Y-112768900D02*
X104517600Y-112768900D01*
X99971000Y-112768900D02*
X100225000Y-112895900D01*
X100987000Y-103155000D02*
X101241000Y-103028000D01*
X99971000Y-112768900D02*
X100225000Y-112641900D01*
X97939000Y-105695000D02*
X97812000Y-105441000D01*
X100987000Y-103155000D02*
X102257000Y-103155000D01*
X97939000Y-106965000D02*
X97812000Y-107219000D01*
X97812000Y-107219000D02*
X98066000Y-107219000D01*
X104263600Y-112641900D02*
X104263600Y-112895900D01*
X97812000Y-105441000D02*
X98066000Y-105441000D01*
X106524200Y-105695000D02*
X106524200Y-98964000D01*
X100275800Y-103155000D02*
X99005800Y-103155000D01*
X108861000Y-104971100D02*
X108988000Y-105225100D01*
X100275800Y-99345000D02*
X100529800Y-99218000D01*
X108734000Y-109974900D02*
X108988000Y-109974900D01*
X108734000Y-105225100D02*
X108988000Y-105225100D01*
X101241000Y-103028000D02*
X101241000Y-103282000D01*
X100275800Y-105695000D02*
X100275800Y-102774000D01*
X104517600Y-109593900D02*
X104517600Y-113149900D01*
X100275800Y-103155000D02*
X100021800Y-103028000D01*
X97939000Y-105695000D02*
X97939000Y-104425000D01*
X106143200Y-115181900D02*
X106143200Y-115435900D01*
X100402800Y-115308900D02*
X100656800Y-115181900D01*
X100479000Y-106965000D02*
X97558000Y-106965000D01*
X97939000Y-105695000D02*
X98066000Y-105441000D01*
X100021800Y-103028000D02*
X100021800Y-103282000D01*
X108861000Y-104971100D02*
X108861000Y-110228900D01*
X100479000Y-105695000D02*
X97558000Y-105695000D01*
X106397200Y-110228900D02*
X106397200Y-115689900D01*
X106270200Y-99218000D02*
X106270200Y-99472000D01*
X108861000Y-110228900D02*
X108988000Y-109974900D01*
X106524200Y-99345000D02*
X106270200Y-99218000D01*
X104517600Y-112768900D02*
X104263600Y-112641900D01*
X106397200Y-104971100D02*
X109242000Y-104971100D01*
X97939000Y-106965000D02*
X97939000Y-108235000D01*
X104517600Y-112768900D02*
X104263600Y-112895900D01*
X100402800Y-115308900D02*
X106397200Y-115308900D01*
X100402800Y-110228900D02*
X100402800Y-115689900D01*
X106397200Y-110228900D02*
X109242000Y-110228900D01*
X100402800Y-115308900D02*
X100656800Y-115435900D01*
X100987000Y-105695000D02*
X100987000Y-102774000D01*
X97939000Y-106965000D02*
X98066000Y-107219000D01*
X100275800Y-99345000D02*
X100529800Y-99472000D01*
%TD*%
M02*
